<?xml version="1.0" encoding="utf-8"?>
<!-- Generator: Adobe Illustrator 21.1.0, SVG Export Plug-In . SVG Version: 6.00 Build 0)  -->
<svg version="1.1" id="Layer_1" xmlns="http://www.w3.org/2000/svg" xmlns:xlink="http://www.w3.org/1999/xlink" x="0px" y="0px" width="9px"
	 viewBox="0 0 9 13" style="enable-background:new 0 0 9 13;" xml:space="preserve">
<style type="text/css">
	.st0{clip-path:url(#SVGID_2_);fill:#FFFFFF;}
</style>
<g>
	<defs>
		<rect id="SVGID_1_" x="0.5" y="0.2" width="8.1" height="12.6"/>
	</defs>
	<clipPath id="SVGID_2_">
		<use xlink:href="#SVGID_1_"  style="overflow:visible;"/>
	</clipPath>
	<path class="st0" d="M8.5,6.5c0-0.1-0.1-0.3-0.1-0.4L2.6,0.4C2.5,0.3,2.4,0.2,2.2,0.2C2.1,0.2,2,0.3,1.9,0.4L0.6,1.6
		C0.5,1.7,0.5,1.9,0.5,2s0.1,0.3,0.1,0.4l4.1,4.1l-4.1,4.1c-0.1,0.1-0.1,0.2-0.1,0.4s0.1,0.3,0.1,0.4l1.3,1.3
		c0.1,0.1,0.2,0.1,0.4,0.1c0.1,0,0.3,0,0.4-0.1l5.8-5.8C8.5,6.8,8.5,6.6,8.5,6.5"/>
</g>
</svg>
