<?xml version="1.0" encoding="utf-8"?>
<!-- Generator: Adobe Illustrator 21.1.0, SVG Export Plug-In . SVG Version: 6.00 Build 0)  -->
<svg version="1.1" id="Layer_1" xmlns="http://www.w3.org/2000/svg" xmlns:xlink="http://www.w3.org/1999/xlink" x="0px" y="0px" width="12px"
	 viewBox="0 0 10 6" style="enable-background:new 0 0 10 6;" xml:space="preserve">
<style type="text/css">
	.st0{clip-path:url(#SVGID_2_);fill:#ffffff;}
</style>
<g>
	<defs>
		<rect id="SVGID_1_" x="0.3" y="0.2" width="9.5" height="5.5"/>
	</defs>
	<clipPath id="SVGID_2_">
		<use xlink:href="#SVGID_1_"  style="overflow:visible;"/>
	</clipPath>
	<path class="st0" d="M0.4,5.2l0.5,0.5C0.9,5.7,1,5.8,1.1,5.8c0.1,0,0.2,0,0.2-0.1L5,1.9l3.7,3.7c0.1,0.1,0.1,0.1,0.2,0.1
		c0.1,0,0.2,0,0.2-0.1l0.5-0.5C9.7,5.1,9.7,5.1,9.7,5c0-0.1,0-0.2-0.1-0.2L5.2,0.3C5.2,0.3,5.1,0.2,5,0.2c-0.1,0-0.2,0-0.2,0.1
		L0.4,4.8C0.3,4.8,0.3,4.9,0.3,5C0.3,5.1,0.3,5.1,0.4,5.2"/>
</g>
</svg>
