<?xml version="1.0" encoding="utf-8"?>
<!-- Generator: Adobe Illustrator 21.1.0, SVG Export Plug-In . SVG Version: 6.00 Build 0)  -->
<svg version="1.1" id="Layer_1" xmlns="http://www.w3.org/2000/svg" xmlns:xlink="http://www.w3.org/1999/xlink" x="0px" y="0px" width="10px"
	 viewBox="0 0 10 6" style="enable-background:new 0 0 10 6;" xml:space="preserve">
<style type="text/css">
	.st0{clip-path:url(#SVGID_2_);fill:#FFFFFF;}
</style>
<g>
	<defs>
		<rect id="SVGID_1_" x="0.3" y="0.2" width="9.5" height="5.5"/>
	</defs>
	<clipPath id="SVGID_2_">
		<use xlink:href="#SVGID_1_"  style="overflow:visible;"/>
	</clipPath>
	<path class="st0" d="M9.6,0.8L9.2,0.3C9.1,0.3,9,0.2,8.9,0.2c-0.1,0-0.2,0-0.2,0.1L5,4.1L1.3,0.3C1.2,0.3,1.1,0.2,1.1,0.2
		c-0.1,0-0.2,0-0.2,0.1L0.4,0.8C0.3,0.9,0.3,0.9,0.3,1c0,0.1,0,0.2,0.1,0.2l4.4,4.4C4.8,5.7,4.9,5.8,5,5.8c0.1,0,0.2,0,0.2-0.1
		l4.4-4.4C9.7,1.2,9.7,1.1,9.7,1C9.7,0.9,9.7,0.9,9.6,0.8"/>
</g>
</svg>
