<?xml version="1.0" encoding="utf-8"?>
<!-- Generator: Adobe Illustrator 21.1.0, SVG Export Plug-In . SVG Version: 6.00 Build 0)  -->
<svg version="1.1" id="Layer_1" xmlns="http://www.w3.org/2000/svg" xmlns:xlink="http://www.w3.org/1999/xlink" x="0px" y="0px" width="17px"
	 viewBox="0 0 17 28" style="enable-background:new 0 0 17 28;" xml:space="preserve">
<style type="text/css">
	.st0{clip-path:url(#SVGID_2_);fill:#231F20;}
</style>
<g>
	<defs>
		<rect id="SVGID_1_" x="0.4" y="0.1" width="16.2" height="27.8"/>
	</defs>
	<clipPath id="SVGID_2_">
		<use xlink:href="#SVGID_1_"  style="overflow:visible;"/>
	</clipPath>
	<path class="st0" d="M16.3,13.4l-13-13C3.2,0.2,2.9,0.1,2.7,0.1S2.2,0.2,2.1,0.4L0.7,1.8C0.5,1.9,0.4,2.2,0.4,2.4S0.5,2.8,0.7,3
		l11,11l-11,11c-0.2,0.2-0.3,0.4-0.3,0.6s0.1,0.5,0.3,0.6l1.4,1.4c0.2,0.2,0.4,0.3,0.6,0.3s0.5-0.1,0.6-0.3l13-13
		c0.2-0.2,0.3-0.4,0.3-0.6C16.6,13.8,16.5,13.5,16.3,13.4"/>
</g>
</svg>
