<?xml version="1.0" encoding="utf-8"?>
<!-- Generator: Adobe Illustrator 21.1.0, SVG Export Plug-In . SVG Version: 6.00 Build 0)  -->
<svg version="1.1" id="Layer_1" xmlns="http://www.w3.org/2000/svg" xmlns:xlink="http://www.w3.org/1999/xlink" x="0px" y="0px" width="17px"
	 viewBox="0 0 17 28" style="enable-background:new 0 0 17 28;" xml:space="preserve">
<style type="text/css">
	.st0{clip-path:url(#SVGID_2_);fill:#231F20;}
</style>
<g>
	<defs>
		<rect id="SVGID_1_" x="0.4" y="0.1" width="16.2" height="27.8"/>
	</defs>
	<clipPath id="SVGID_2_">
		<use xlink:href="#SVGID_1_"  style="overflow:visible;"/>
	</clipPath>
	<path class="st0" d="M0.7,14.6l13,13c0.2,0.2,0.4,0.3,0.6,0.3s0.5-0.1,0.6-0.3l1.4-1.4c0.2-0.2,0.3-0.4,0.3-0.6s-0.1-0.5-0.3-0.6
		l-11-11l11-11c0.2-0.2,0.3-0.4,0.3-0.6c0-0.2-0.1-0.5-0.3-0.6l-1.4-1.4c-0.2-0.2-0.4-0.3-0.6-0.3s-0.5,0.1-0.6,0.3l-13,13
		c-0.2,0.2-0.3,0.4-0.3,0.6C0.4,14.2,0.5,14.5,0.7,14.6"/>
</g>
</svg>
