<?xml version="1.0" encoding="utf-8"?>
<!-- Generator: Adobe Illustrator 21.1.0, SVG Export Plug-In . SVG Version: 6.00 Build 0)  -->
<svg version="1.1" id="Layer_1" xmlns="http://www.w3.org/2000/svg" xmlns:xlink="http://www.w3.org/1999/xlink" x="0px" y="0px" width="16px"
	 viewBox="0 0 16 16" style="enable-background:new 0 0 16 16;" xml:space="preserve">
<style type="text/css">
	.st0{clip-path:url(#SVGID_2_);fill:#FFFFFF;}
</style>
<g>
	<g>
		<defs>
			<rect id="SVGID_1_" x="0.3" y="0.3" width="15.4" height="15.4"/>
		</defs>
		<clipPath id="SVGID_2_">
			<use xlink:href="#SVGID_1_"  style="overflow:visible;"/>
		</clipPath>
		<path class="st0" d="M14.6,5.9c0.1,0.1,0.3,0.2,0.5,0.2c0.1,0,0.2,0,0.3-0.1c0.3-0.1,0.4-0.3,0.4-0.6V0.9c0-0.2-0.1-0.3-0.2-0.5
			c-0.1-0.1-0.3-0.2-0.5-0.2h-4.5c-0.3,0-0.5,0.1-0.6,0.4c-0.1,0.3-0.1,0.5,0.1,0.7l1.4,1.4L8,6.4L4.4,2.8l1.4-1.4
			C6.1,1.2,6.1,0.9,6,0.7C5.9,0.4,5.7,0.3,5.4,0.3H0.9c-0.2,0-0.3,0.1-0.5,0.2C0.3,0.6,0.3,0.8,0.3,0.9v4.5c0,0.3,0.1,0.5,0.4,0.6
			c0.1,0,0.2,0.1,0.2,0.1c0.2,0,0.3-0.1,0.5-0.2l1.4-1.4L6.4,8l-3.6,3.6l-1.4-1.4C1.2,9.9,0.9,9.9,0.7,10c-0.3,0.1-0.4,0.3-0.4,0.6
			v4.5c0,0.2,0.1,0.3,0.2,0.5c0.1,0.1,0.3,0.2,0.5,0.2h4.5c0.3,0,0.5-0.1,0.6-0.4c0.1-0.3,0.1-0.5-0.1-0.7l-1.4-1.4L8,9.6l3.6,3.6
			l-1.4,1.4c-0.2,0.2-0.3,0.4-0.1,0.7c0.1,0.3,0.3,0.4,0.6,0.4h4.5c0.2,0,0.3-0.1,0.5-0.2c0.1-0.1,0.2-0.3,0.2-0.5v-4.5
			c0-0.3-0.1-0.5-0.4-0.6c-0.3-0.1-0.5-0.1-0.7,0.1l-1.4,1.4L9.6,8l3.6-3.6L14.6,5.9z"/>
	</g>
</g>
</svg>
