<?xml version="1.0" encoding="utf-8"?>
<!-- Generator: Adobe Illustrator 21.1.0, SVG Export Plug-In . SVG Version: 6.00 Build 0)  -->
<svg version="1.1" id="Laag_1" xmlns="http://www.w3.org/2000/svg" xmlns:xlink="http://www.w3.org/1999/xlink" x="0px" y="0px" width="250px"
	 viewBox="0 0 581.6 334.6" style="enable-background:new 0 0 581.6 334.6;" xml:space="preserve">
<style type="text/css">
	.st0{fill:#FFFFFF;}
	.st1{fill:#647883;}
</style>
<g>
	<g>
		<path d="M213.1,52.3c-2.8,0-5.1,1.1-5.1,2.5h10.1C218.2,53.4,215.9,52.3,213.1,52.3z"/>
		<path d="M235,52.3c-2.8,0-5.1,1.1-5.1,2.5H240C240,53.4,237.8,52.3,235,52.3z"/>
		<path d="M256.8,52.3c-2.8,0-5.1,1.1-5.1,2.5h10.1C261.9,53.4,259.6,52.3,256.8,52.3z"/>
		<path d="M213.1,82.7c-2.8,0-5.1,1.1-5.1,2.5h10.1C218.2,83.8,215.9,82.7,213.1,82.7z"/>
		<path d="M235,82.7c-2.8,0-5.1,1.1-5.1,2.5H240C240,83.8,237.8,82.7,235,82.7z"/>
		<path d="M256.8,82.7c-2.8,0-5.1,1.1-5.1,2.5h10.1C261.9,83.8,259.6,82.7,256.8,82.7z"/>
		<path d="M213.1,115.3c-2.8,0-5.1,1.1-5.1,2.5h10.1C218.2,116.4,215.9,115.3,213.1,115.3z"/>
		<path d="M235,115.3c-2.8,0-5.1,1.1-5.1,2.5H240C240,116.4,237.8,115.3,235,115.3z"/>
		<path d="M256.8,115.3c-2.8,0-5.1,1.1-5.1,2.5h10.1C261.9,116.4,259.6,115.3,256.8,115.3z"/>
		<path d="M327.9,52.3c-2.8,0-5.1,1.1-5.1,2.5h10.1C332.9,53.4,330.7,52.3,327.9,52.3z"/>
		<path d="M349.7,52.3c-2.8,0-5.1,1.1-5.1,2.5h10.1C354.8,53.4,352.5,52.3,349.7,52.3z"/>
		<path d="M371.6,52.3c-2.8,0-5.1,1.1-5.1,2.5h10.1C376.6,53.4,374.4,52.3,371.6,52.3z"/>
		<path d="M327.9,82.7c-2.8,0-5.1,1.1-5.1,2.5h10.1C332.9,83.8,330.7,82.7,327.9,82.7z"/>
		<path d="M349.7,82.7c-2.8,0-5.1,1.1-5.1,2.5h10.1C354.8,83.8,352.5,82.7,349.7,82.7z"/>
		<path d="M371.6,82.7c-2.8,0-5.1,1.1-5.1,2.5h10.1C376.6,83.8,374.4,82.7,371.6,82.7z"/>
		<path d="M327.9,115.3c-2.8,0-5.1,1.1-5.1,2.5h10.1C332.9,116.4,330.7,115.3,327.9,115.3z"/>
		<path d="M349.7,115.3c-2.8,0-5.1,1.1-5.1,2.5h10.1C354.8,116.4,352.5,115.3,349.7,115.3z"/>
		<path d="M371.6,115.3c-2.8,0-5.1,1.1-5.1,2.5h10.1C376.6,116.4,374.4,115.3,371.6,115.3z"/>
		<path d="M297.5,49.9c-2.2,0-3.9,1.1-3.9,2.5h7.8C301.4,51,299.7,49.9,297.5,49.9z"/>
		<path d="M285.6,49.9c-2.2,0-3.9,1.1-3.9,2.5h7.8C289.5,51,287.8,49.9,285.6,49.9z"/>
		<path d="M287.6,25h7.8c0-1.2-1.4-2.3-3.2-2.5V8.1h1.7v6h1.4V6.7h-3.1h-1.4h-3.1v7.4h1.4v-6h1.7v14.4C289,22.7,287.6,23.8,287.6,25
			z"/>
		<path d="M297.5,81.7c-2.2,0-3.9,1.1-3.9,2.5h7.8C301.4,82.8,299.7,81.7,297.5,81.7z"/>
		<path d="M285.6,81.7c-2.2,0-3.9,1.1-3.9,2.5h7.8C289.5,82.8,287.8,81.7,285.6,81.7z"/>
		<path d="M192.3,117.8c0-1.4-2.3-2.5-5.1-2.5c-2.8,0-5.1,1.1-5.1,2.5H192.3z"/>
		<path d="M172.6,117.8c0-1.4-2.3-2.5-5.1-2.5c-2.8,0-5.1,1.1-5.1,2.5H172.6z"/>
		<path d="M152.9,117.8c0-1.4-2.3-2.5-5.1-2.5c-2.8,0-5.1,1.1-5.1,2.5H152.9z"/>
		<path d="M317.4,155.8l-10.6-4.1v-28.9c0-1.8,1.1-3.5,3.2-4.8c2-1.3,4.6-2,7.5-2.1V155.8z"/>
		<path d="M276.4,151.8l-10.6,4.1v-39.7c2.8,0.1,5.5,0.8,7.5,2.1c2,1.3,3.2,3,3.2,4.8V151.8z"/>
		<rect x="515" y="88.2" width="3.3" height="52.2"/>
		<rect x="505.3" y="88.2" width="4.8" height="52.2"/>
		<rect x="523.4" y="88.2" width="1.9" height="52.2"/>
		<rect x="530.3" y="88.2" width="1.2" height="52.2"/>
		<rect x="64.9" y="88.2" width="3.3" height="52.2"/>
		<rect x="73.1" y="88.2" width="4.8" height="52.2"/>
		<rect x="57.9" y="88.2" width="1.9" height="52.2"/>
		<rect x="51.6" y="88.2" width="1.2" height="52.2"/>
		<path d="M387.9,142.6V82.7h149.6v-2.9h-16L515.5,57h6.3v-1.9H387.9V43.5h1.2l1.4-3.4h-2.7v0l-23.7-23h-0.1v-1.8h-59.2v0h-1.3v-5
			h-3.8v5h-1.7v-12h-1.5V0h-10.2v3.2h-1.5v12h-1.7v-5h-3.8v5h-1.3v0H219V18l-22.6,21.9l-0.2,0.2v0h-3.6l1.4,3.4h2.1v11.6H61.4V57
			h6.3l-6.1,22.7h-16v2.9h150.5v59.9h-155v5.8h153.9v2.2h68.2v-5.8h-65.7v-4.3h5.4v-1.9h-5.4v-5.7h5.4v-1.9h-5.4v-5.7h5.4v-1.9h-5.4
			v-5.7h5.4v-1.9h-5.4v-5.7h5.4v-1.9h-5.4v-5.7h5.4v-1.9h-5.4v-5.7h5.4V93h-5.4v-5.7h5.4v-1.9h-5.4v-5.7h5.4v-1.9h-5.4v-5.7h5.4
			v-1.9h-5.4v-5.7h5.4v-1.9h-5.4V57h5.4v-1.9h-5.4v-5.7h5.4v-1.9h-5.4v-4H272v71.6c1.2,0.4,2.2,0.8,3.2,1.4c2.3,1.5,3.6,3.4,3.6,5.6
			v28.3h1.9h0.3v-10.1h0.4v-1.9H281v-2.3h0.4v-1.9H281v-2.3h0.4v-1.9H281v-2.3h0.4V126H281v-5.9h0.8c0.5-1,1.3-1.9,2.3-2.6
			c1.8-1.3,5.1-2.2,7.9-2.2c2.8,0,6.1,0.8,7.9,2.2c1,0.7,1.8,1.6,2.3,2.6h0.8v5.9h-0.4v1.9h0.4v2.3h-0.4v1.9h0.4v2.3h-0.4v1.9h0.4
			v2.3h-0.4v1.9h0.4v10.1h0.3h1v-28.3c0-2.1,1.3-4.1,3.6-5.6c0.9-0.6,1.9-1,3-1.4V43.5h75.4v4h-5.4v1.9h5.4v5.7h-5.4V57h5.4v5.7
			h-5.4v1.9h5.4v5.7h-5.4v1.9h5.4v5.7h-5.4v1.9h5.4v5.7h-5.4v1.9h5.4V93h-5.4v1.9h5.4v5.7h-5.4v1.9h5.4v5.7h-5.4v1.9h5.4v5.7h-5.4
			v1.9h5.4v5.7h-5.4v1.9h5.4v5.7h-5.4v1.9h5.4v5.7h-5.4v1.9h5.4v4.3h-66.6v5.8h69.1v-2.2h153v-5.8H387.9z M513.3,57l6.1,22.7h-3
			L510.3,57H513.3z M506.7,57l6.1,22.7h-2.9L503.8,57H506.7z M66.8,79.8h-3L69.9,57h3L66.8,79.8z M73.3,79.8h-2.9L76.5,57h2.9
			L73.3,79.8z M133.2,117.8c0-1.4-2.3-2.5-5.1-2.5c-2.8,0-5.1,1.1-5.1,2.5H133.2z M113.6,117.8c0-1.4-2.3-2.5-5.1-2.5
			c-2.8,0-5.1,1.1-5.1,2.5H113.6z M93.9,117.8c0-1.4-2.3-2.5-5.1-2.5c-2.8,0-5.1,1.1-5.1,2.5H93.9z M238.9,41.1h-5.3V29.8h5.3V41.1z
			 M258.4,41.1h-5.3V29.8h5.3V41.1z M309.6,109.1h-36.1V28h1.4v-4.7h1.6V28h3.1V16.7h1.3v-5h0.9v5h4.6v-12h1.5V1.4h7.3v3.2h1.5v12
			h4.6v-5h0.9v5h1.3V28h3.1v-4.7h1.6V28h1.4V109.1z M331,41.1h-5.3V29.8h5.3V41.1z M350.5,41.1h-5.3V29.8h5.3V41.1z M385.8,40.2
			l-0.6-0.6L385.8,40.2L385.8,40.2z"/>
		<polygon class="st0" points="153.6,77.4 148.5,77.4 150.7,69.5 155.7,69.5 		"/>
		<polygon class="st0" points="172.6,77.4 167.5,77.4 169.7,69.5 174.8,69.5 		"/>
		<polygon class="st0" points="94,77.4 88.9,77.4 91.1,69.5 96.1,69.5 		"/>
		<polygon class="st0" points="112.9,77.4 107.9,77.4 110.1,69.5 115.1,69.5 		"/>
		<polygon class="st0" points="133.2,77.4 128.2,77.4 130.4,69.5 135.4,69.5 		"/>
		<path d="M390.9,117.8c0-1.4,2.3-2.5,5.1-2.5c2.8,0,5.1,1.1,5.1,2.5H390.9z"/>
		<path d="M410.6,117.8c0-1.4,2.3-2.5,5.1-2.5c2.8,0,5.1,1.1,5.1,2.5H410.6z"/>
		<path d="M430.2,117.8c0-1.4,2.3-2.5,5.1-2.5c2.8,0,5.1,1.1,5.1,2.5H430.2z"/>
		<path d="M460.1,117.8c0-1.4-2.3-2.5-5.1-2.5c-2.8,0-5.1,1.1-5.1,2.5H460.1z"/>
		<path d="M479.7,117.8c0-1.4-2.3-2.5-5.1-2.5c-2.8,0-5.1,1.1-5.1,2.5H479.7z"/>
		<path d="M499.4,117.8c0-1.4-2.3-2.5-5.1-2.5c-2.8,0-5.1,1.1-5.1,2.5H499.4z"/>
		<polygon class="st0" points="427.5,69.5 432.5,69.5 434.7,77.4 429.6,77.4 		"/>
		<polygon class="st0" points="408.4,69.5 413.5,69.5 415.6,77.4 410.6,77.4 		"/>
		<polygon class="st0" points="487.1,69.5 492.1,69.5 494.3,77.4 489.2,77.4 		"/>
		<polygon class="st0" points="468.1,69.5 473.1,69.5 475.3,77.4 470.2,77.4 		"/>
		<polygon class="st0" points="447.8,69.5 452.8,69.5 455,77.4 449.9,77.4 		"/>
		<rect x="208.1" y="56.2" class="st1" width="10.1" height="21.2"/>
		<rect x="229.9" y="56.2" class="st1" width="10.1" height="21.2"/>
		<rect x="251.8" y="56.2" class="st1" width="10.1" height="21.2"/>
		<rect x="208.1" y="86.6" class="st1" width="10.1" height="21.2"/>
		<rect x="229.9" y="86.6" class="st1" width="10.1" height="21.2"/>
		<rect x="251.8" y="86.6" class="st1" width="10.1" height="21.2"/>
		<rect x="208.1" y="119.2" class="st1" width="10.1" height="21.2"/>
		<rect x="229.9" y="119.2" class="st1" width="10.1" height="21.2"/>
		<rect x="251.8" y="119.2" class="st1" width="10.1" height="21.2"/>
		<rect x="322.8" y="56.2" class="st1" width="10.1" height="21.2"/>
		<rect x="344.7" y="56.2" class="st1" width="10.1" height="21.2"/>
		<rect x="366.5" y="56.2" class="st1" width="10.1" height="21.2"/>
		<rect x="322.8" y="86.6" class="st1" width="10.1" height="21.2"/>
		<rect x="344.7" y="86.6" class="st1" width="10.1" height="21.2"/>
		<rect x="366.5" y="86.6" class="st1" width="10.1" height="21.2"/>
		<rect x="322.8" y="119.2" class="st1" width="10.1" height="21.2"/>
		<rect x="344.7" y="119.2" class="st1" width="10.1" height="21.2"/>
		<rect x="366.5" y="119.2" class="st1" width="10.1" height="21.2"/>
		<rect x="293.6" y="53.9" class="st1" width="7.8" height="21.2"/>
		<rect x="281.7" y="53.9" class="st1" width="7.8" height="21.2"/>
		<rect x="287.6" y="26.4" class="st1" width="7.8" height="14.7"/>
		<rect x="293.6" y="85.7" class="st1" width="7.8" height="21.2"/>
		<rect x="281.7" y="85.7" class="st1" width="7.8" height="21.2"/>
		<rect x="182.2" y="119.2" class="st1" width="10.1" height="21.2"/>
		<rect x="182.2" y="88.2" class="st1" width="10.1" height="19.6"/>
		<rect x="162.5" y="119.2" class="st1" width="10.1" height="21.2"/>
		<rect x="162.5" y="88.2" class="st1" width="10.1" height="19.6"/>
		<rect x="142.8" y="119.2" class="st1" width="10.1" height="21.2"/>
		<rect x="142.8" y="88.2" class="st1" width="10.1" height="19.6"/>
		<rect x="123.1" y="119.2" class="st1" width="10.1" height="21.2"/>
		<rect x="123.1" y="88.2" class="st1" width="10.1" height="19.6"/>
		<rect x="103.5" y="119.2" class="st1" width="10.1" height="21.2"/>
		<rect x="103.5" y="88.2" class="st1" width="10.1" height="19.6"/>
		<rect x="83.8" y="119.2" class="st1" width="10.1" height="21.2"/>
		<rect x="83.8" y="88.2" class="st1" width="10.1" height="19.6"/>
		<rect x="390.9" y="119.2" class="st1" width="10.1" height="21.2"/>
		<rect x="390.9" y="88.2" class="st1" width="10.1" height="19.6"/>
		<rect x="410.6" y="119.2" class="st1" width="10.1" height="21.2"/>
		<rect x="410.6" y="88.2" class="st1" width="10.1" height="19.6"/>
		<rect x="430.2" y="119.2" class="st1" width="10.1" height="21.2"/>
		<rect x="430.2" y="88.2" class="st1" width="10.1" height="19.6"/>
		<rect x="450" y="119.2" class="st1" width="10.1" height="21.2"/>
		<rect x="450" y="88.2" class="st1" width="10.1" height="19.6"/>
		<rect x="469.6" y="119.2" class="st1" width="10.1" height="21.2"/>
		<rect x="469.6" y="88.2" class="st1" width="10.1" height="19.6"/>
		<rect x="489.3" y="119.2" class="st1" width="10.1" height="21.2"/>
		<rect x="489.3" y="88.2" class="st1" width="10.1" height="19.6"/>
	</g>
	<g>
		<g>
			<path d="M144.9,323.7l-3.7,3.9v7h-6.4v-27.8h6.4v13l12.3-13h7.1l-11.5,12.4l12.2,15.4h-7.5L144.9,323.7z"/>
			<path d="M201.1,328.7h-12.9l-2.5,6h-6.6l12.4-27.8h6.4l12.4,27.8h-6.7L201.1,328.7z M199,323.8l-4.4-10.6l-4.4,10.6H199z"/>
			<path d="M255.5,329.4v5.2h-24.3v-4.2l15.2-18.4h-14.9v-5.2h23.4v4.2l-15.2,18.4H255.5z"/>
			<path d="M301,329.5v5.2h-21.5v-27.8h21v5.2h-14.6v6h12.9v5h-12.9v6.4H301z"/>
			<path d="M343.7,334.6l-5.4-7.7H338h-5.6v7.7H326v-27.8h12c2.5,0,4.6,0.4,6.4,1.2c1.8,0.8,3.2,2,4.2,3.5c1,1.5,1.5,3.3,1.5,5.4
				c0,2.1-0.5,3.8-1.5,5.3c-1,1.5-2.4,2.6-4.2,3.4l6.2,8.9H343.7z M342,313.3c-1-0.8-2.5-1.3-4.4-1.3h-5.2v9.7h5.2
				c1.9,0,3.4-0.4,4.4-1.3c1-0.8,1.5-2,1.5-3.6C343.5,315.4,343,314.2,342,313.3z"/>
			<path d="M400.4,306.8v27.8h-5.3l-13.8-16.9v16.9H375v-27.8h5.3l13.8,16.9v-16.9H400.4z"/>
			<path d="M448.4,329.5v5.2h-21.5v-27.8h21v5.2h-14.6v6h12.9v5h-12.9v6.4H448.4z"/>
		</g>
		<g>
			<g>
				<g>
					<rect x="78" y="315" class="st1" width="33.3" height="3.3"/>
					<rect x="78" y="306.8" class="st1" width="33.3" height="3.3"/>
					<rect x="78" y="323.2" class="st1" width="33.3" height="3.3"/>
					<rect x="78" y="331.3" class="st1" width="33.3" height="3.3"/>
				</g>
				<g>
					<rect x="471.9" y="315" class="st1" width="33.3" height="3.3"/>
					<rect x="471.9" y="306.8" class="st1" width="33.3" height="3.3"/>
					<rect x="471.9" y="323.2" class="st1" width="33.3" height="3.3"/>
					<rect x="471.9" y="331.3" class="st1" width="33.3" height="3.3"/>
				</g>
			</g>
		</g>
	</g>
	<g>
		<path d="M87.8,206.3l-0.4-0.1l-23.9,66.2h-12l-23.8-65.9l-0.4,0.1l1.7,39.2v14.1l9.6,1.8v10.7h-37v-10.7l9.5-1.8v-64.2l-9.5-1.8
			V183h9.5h23.4l22.8,65.9h0.4l23-65.9h33v10.8l-9.6,1.8v64.2l9.6,1.8v10.7h-37v-10.7l9.5-1.8v-14.1L87.8,206.3z"/>
		<path d="M122.1,261.7l6.4-0.9l27.2-77.7H174l27,77.7l6.4,0.9v10.7H177v-10.7l6.2-1.1l-3.9-12.3h-29l-3.9,12.3l6.2,1.1v10.7h-30.5
			V261.7z M154.5,235.1H175l-10.1-31.5h-0.4L154.5,235.1z"/>
		<path d="M239.6,183v10.8l-9.6,1.8v46.7c0,5.9,1.6,10.3,4.8,13.2c3.2,2.9,7.5,4.4,13,4.4c5.6,0,10-1.5,13.2-4.4
			c3.2-2.9,4.8-7.3,4.8-13.3v-46.7l-9.5-1.8V183h37v10.8l-9.6,1.8v46.7c0,10-3.3,17.8-9.9,23.2c-6.6,5.4-15.3,8.2-26,8.2
			c-10.7,0-19.3-2.7-25.9-8.2c-6.6-5.4-9.9-13.2-9.9-23.2v-46.7l-9.5-1.8V183h9.5H230H239.6z"/>
		<path d="M339.8,183c10.2,0,18.1,2.3,23.9,7c5.8,4.6,8.7,11.1,8.7,19.2c0,4.5-1.2,8.4-3.6,11.7c-2.4,3.3-6,6-10.6,8
			c5.3,1.6,9.1,4.1,11.4,7.8c2.3,3.6,3.5,8.1,3.5,13.5v4.5c0,2,0.4,3.5,1.2,4.6c0.8,1.1,2.1,1.7,3.9,1.9l2.2,0.3v10.8h-9.3
			c-5.9,0-10-1.6-12.3-4.7c-2.4-3.2-3.6-7.2-3.6-12.2v-5.1c0-4.3-1.2-7.7-3.5-10.2c-2.3-2.5-5.6-3.8-9.8-3.9h-14.7v23.6l9.6,1.8
			v10.7h-37v-10.7l9.5-1.8v-64.2l-9.5-1.8V183h9.5H339.8z M327.1,222.5h12.4c5,0,8.7-1.1,11.2-3.2c2.5-2.1,3.7-5.2,3.7-9.2
			c0-4-1.2-7.2-3.7-9.6c-2.5-2.4-6.1-3.6-11-3.6h-12.7V222.5z"/>
		<path d="M387,193.8V183h37v10.8l-9.6,1.8v64.2l9.6,1.8v10.7h-37v-10.7l9.6-1.8v-64.2L387,193.8z"/>
		<path d="M510.6,183v23.8h-13.8l-0.7-10h-16.5v63l9.6,1.8v10.7h-37.1v-10.7l9.6-1.8v-63h-16.4l-0.7,10h-13.7V183H510.6z"/>
		<path d="M580.3,211.6h-13.4l-2.3-12.3c-1.6-1-3.8-1.8-6.8-2.6c-3-0.7-6.2-1.1-9.5-1.1c-4.9,0-8.7,1-11.4,3.1c-2.7,2.1-4,4.7-4,8
			c0,3,1.4,5.5,4.2,7.5c2.8,1.9,7.6,4,14.5,6.2c9.9,2.7,17.3,6.4,22.4,10.9c5.1,4.5,7.6,10.4,7.6,17.7c0,7.7-3,13.7-9.1,18.1
			c-6.1,4.4-14,6.6-23.9,6.6c-7.1,0-13.5-1.1-19.2-3.4c-5.7-2.3-10.5-5.4-14.3-9.3v-18.7H529l1.9,12.7c1.8,1.5,4.2,2.7,7.3,3.7
			c3.1,1,6.5,1.4,10.3,1.4c4.9,0,8.6-1,11.2-3c2.6-2,3.8-4.7,3.8-8c0-3.4-1.2-6.2-3.7-8.3c-2.4-2.1-6.7-4.1-12.8-5.9
			c-10.6-3.1-18.6-6.7-24.1-10.9c-5.4-4.2-8.2-10-8.2-17.3c0-7.2,3.1-13.2,9.2-17.8c6.1-4.6,13.9-7,23.1-7.1c6.9,0,13.1,1,18.8,3.1
			c5.6,2.1,10.4,4.9,14.2,8.4V211.6z"/>
	</g>
</g>
</svg>
