<?xml version="1.0" encoding="utf-8"?>
<!-- Generator: Adobe Illustrator 22.0.1, SVG Export Plug-In . SVG Version: 6.00 Build 0)  -->
<svg version="1.1" id="Layer_1" xmlns="http://www.w3.org/2000/svg" xmlns:xlink="http://www.w3.org/1999/xlink" x="0px" y="0px" width="340px"
	 viewBox="0 0 340 140" style="enable-background:new 0 0 340 140;" xml:space="preserve">
<style type="text/css">
	.st0{fill:#35A8E0;}
	.st1{fill:#662482;}
	.st2{fill:url(#SVGID_1_);}
	.st3{fill:url(#SVGID_2_);}
	.st4{fill:url(#SVGID_3_);}
	.st5{fill:url(#SVGID_4_);}
	.st6{fill-rule:evenodd;clip-rule:evenodd;fill:#E20613;}
	.st7{fill-rule:evenodd;clip-rule:evenodd;fill:#009540;}
	.st8{fill-rule:evenodd;clip-rule:evenodd;fill:#662482;}
	.st9{fill-rule:evenodd;clip-rule:evenodd;fill:#93C01F;}
</style>
<g>
	<g>
		<path class="st0" d="M133.1,108.8L128,83.8h1.6l2.7,13.4c0.7,3.3,1.2,6.1,1.5,9.2h0.1c0.3-3.2,0.9-5.9,1.6-9.3l2.6-13.3h1.5
			l2.7,13c0.6,3.1,1.3,6,1.6,9.6h0.1c0.5-3.8,1-6.6,1.6-9.4l2.6-13.2h1.6l-5.2,25.1h-1.4l-3-14.7c-0.6-2.9-1.1-5.7-1.4-8.2h-0.1
			c-0.3,2.7-0.7,5.4-1.4,8.4l-3,14.5H133.1z"/>
		<path class="st0" d="M161.3,96.4h-6.6v11.1h7.6v1.4h-9.2V83.8h8.7v1.4h-7.1V95h6.6V96.4z"/>
		<path class="st0" d="M164.8,106.6c0.7,0.5,2.1,1,3.3,1c2.8,0,4.7-2,4.7-5.1c0-2.6-1.5-4.4-3.3-5.9c-1.1-0.9-4.7-3.1-4.7-6.9
			c0-3.6,2.6-6.1,5.8-6.1c1.5,0,2.7,0.5,3.2,0.9l-0.6,1.4c-0.6-0.4-1.6-0.9-2.9-0.9c-2.7,0-3.9,2.2-3.9,4.2c0,3.1,1.6,4.2,3.8,5.9
			c2.8,2.2,4.2,4.4,4.2,7.3c0,4.2-2.8,6.7-6.3,6.7c-1.5,0-3.2-0.6-3.9-1.2L164.8,106.6z"/>
		<path class="st0" d="M181.1,85.1h-4.7v-1.4h11v1.4h-4.7v23.7h-1.6V85.1z"/>
		<path class="st0" d="M196,84.1c1-0.3,2.1-0.5,3.3-0.5c2.2,0,3.9,0.6,5,1.7c0.9,0.9,1.5,2.3,1.5,4.1c0,2.8-1.6,4.7-4,5.6v0.1
			c2.9,0.7,4.8,3.1,4.8,6.7c0,2-0.7,3.8-1.7,5c-1.4,1.6-3.6,2.1-5.7,2.1c-1.8,0-2.7-0.1-3.2-0.2V84.1z M197.6,94.6h1.5
			c2.7,0,5.1-2,5.1-5c0-2.6-1.2-4.6-4.9-4.6c-0.7,0-1.3,0.1-1.7,0.2V94.6z M197.6,107.4c0.4,0.1,0.9,0.1,1.7,0.1
			c3.6,0,5.7-2,5.7-5.7c0-4-2.8-5.9-6-5.9h-1.4V107.4z"/>
		<path class="st0" d="M218.2,96.4h-6.6v11.1h7.6v1.4H210V83.8h8.7v1.4h-7.1V95h6.6V96.4z"/>
		<path class="st0" d="M225.2,85.1h-4.7v-1.4h11v1.4h-4.7v23.7h-1.6V85.1z"/>
		<path class="st0" d="M236.1,83.8v17.1c0,5.1,1.8,6.8,4.1,6.8c2.6,0,4.2-2,4.2-6.8V83.8h1.6v16.9c0,6.5-2.8,8.4-5.8,8.4
			c-2.9,0-5.6-1.7-5.6-7.9V83.8H236.1z"/>
		<path class="st0" d="M254.3,108.8l-5.1-25.1h1.6l2.7,13.4c0.7,3.3,1.2,6.1,1.5,9.2h0.1c0.3-3.2,0.9-5.9,1.6-9.3l2.6-13.3h1.5
			l2.7,13c0.6,3.1,1.3,6,1.6,9.6h0.1c0.5-3.8,1-6.6,1.6-9.4l2.6-13.2h1.6l-5.2,25.1h-1.4l-3-14.7c-0.6-2.9-1.1-5.7-1.4-8.2H260
			c-0.3,2.7-0.7,5.4-1.4,8.4l-3,14.5H254.3z"/>
		<path class="st0" d="M282.5,96.4h-6.6v11.1h7.6v1.4h-9.2V83.8h8.7v1.4h-7.1V95h6.6V96.4z"/>
	</g>
	<g>
		<path class="st1" d="M134.3,73.2l-7-33.7h6.4l2.5,14.7c0.7,4.1,1.2,7.9,1.6,12h0.2c0.5-4.2,1.4-7.9,2.2-12.1l3.2-14.7h5.1l3,14.5
			c0.8,3.9,1.6,7.7,2.1,12.2h0.1c0.6-4.6,1.2-8.3,1.7-12.1l2.5-14.6h6.1l-7.2,33.7h-6.3l-2.9-13.4c-0.7-3.4-1.3-7.2-1.8-11.1h-0.1
			c-0.6,4-1.3,7.7-2.1,11.2l-3.2,13.4H134.3z"/>
		<path class="st1" d="M183.7,57.9h-9.2v10.7h10.5v4.7h-16.7V39.5h16v4.7h-9.8v9.3h9.2V57.9z"/>
		<path class="st1" d="M190,39.5h6.2v29.2h10.4v4.5H190V39.5z"/>
		<path class="st1" d="M208.4,70.1l12.7-25.8v-0.1h-11.6v-4.7h18.5v3.9l-12.3,25.1v0.1H228v4.7h-19.6V70.1z"/>
		<path class="st1" d="M238.7,39.5v33.7h-6.2V39.5H238.7z"/>
		<path class="st1" d="M249.3,39.5h6.2V63c0,8.8-4.6,10.6-10.1,10.6c-1.4,0-2.6-0.2-3.4-0.4l0.5-4.6c0.6,0.2,1.4,0.3,2.3,0.3
			c2.7,0,4.5-0.9,4.5-5.7V39.5z"/>
		<path class="st1" d="M261.8,73.2V39.5h5.7l6.6,14.4c1.4,3.1,3.3,7.4,4.6,10.7h0.1c-0.3-4.3-0.7-9.5-0.7-15.5v-9.6h5.4v33.7h-5.7
			l-6.6-14.4c-1.4-3.1-3.2-7.2-4.3-10.7h-0.1c0.3,3.9,0.5,8.7,0.5,15.7v9.4H261.8z"/>
	</g>
	<g>
		<path class="st1" d="M193.1,118.9c0.4,0,0.7,0.2,1,0.8c0.1,0.6-0.1,1.4-0.6,2.4c-0.3,0.3-0.4,0.6-0.5,1.1
			c-0.4,0.4-0.6,0.7-0.5,1.1c-0.3,0.3-0.5,0.7-0.8,1.4c-0.2,0.1-0.6,1-1.4,2.5c-0.1,0-0.3,0.5-0.6,1.3c-0.1,0-0.2,0.3-0.4,0.8
			c-0.2,0.1-0.5,0.6-0.8,1.5c-0.8,1.2-1.4,2.4-1.9,3.6c-0.1,0-0.2,0.4-0.3,1.3c0.3,0.2,0.7,0.3,1,0.2l0.5-0.1l0.5-0.2l0.5-0.1l1.5,0
			c1.6-0.4,2.7-0.8,3.4-1.2l0.5-0.1c1,0.3,1.5,0.6,1.5,0.9c-0.1,0.9-0.4,1.3-0.8,1.4c0,0.1-0.6,0.3-1.9,0.6l-1.9,0l-2,0.5l-1.4,0
			c-0.7,0.3-1.3,0.4-1.8,0.5l-0.1,0c-1.8,0.2-2.7,0-2.8-0.6l-0.1-0.2l0-0.1c0-0.1,0.1-0.5,0.4-1.1c0-0.2,0.3-0.6,0.8-1.4
			c0.4-0.6,0.8-1.2,1-1.8c0.1-0.1,0.3-0.5,0.5-1.1c0.2-0.1,0.3-0.5,0.5-1c0.2-0.1,0.4-0.4,0.6-1c0.6-1.1,1-1.8,1.1-1.9
			c0-0.4,0.2-0.8,0.6-1.4c0-0.3,0.1-0.6,0.5-1.1c0-0.1,0.2-0.5,0.6-1.2l0.5-1.1l1.1-2.3l0-0.2c-0.1-0.2-0.3-0.2-0.5-0.2l-0.1,0
			c-1.6,0.5-2.6,0.8-3.2,0.9l-3.4,0.8c-0.2,0.2-0.5,0.3-1,0.3c-0.5,0.1-0.8-0.3-1.1-1c0.1-0.6,0.9-1,2.3-1.2c1-0.5,2.3-0.9,3.9-1
			l4.8-1.5L193.1,118.9z"/>
		<path class="st1" d="M200.4,128c1,0.1,1.5,0.6,1.6,1.3l0,0.1c0.2,1.4-1,3.1-3.4,5.2c-0.5,0.4-0.8,0.8-0.8,1.2
			c0.1,0.3,0.3,0.4,0.6,0.4l0.4,0c0.5-0.1,1.8-0.9,4.2-2.7c0.5-0.3,0.8-0.5,0.9-0.5l0.2,0c0.3,0,0.5,0.2,0.6,0.6
			c0,0.3-0.7,0.9-2.1,1.8c-2,1.5-3.3,2.3-3.9,2.4l-0.2,0c-1.5-0.2-2.4-1-2.5-2.6l0-0.1c0-1.3,0.5-2.9,1.5-4.9c0.5-1,1.3-1.7,2.4-2.2
			L200.4,128z M198.2,132.7L198.2,132.7l0.3,0.1c0.6-0.4,1.1-0.9,1.3-1.6c0.5-0.5,0.7-0.9,0.7-1.2c-0.1-0.3-0.2-0.4-0.5-0.4
			c-0.4,0-0.9,0.8-1.7,2.2C198.2,132.1,198.2,132.4,198.2,132.7z"/>
		<path class="st1" d="M210,121.8l0.1,0c0.3,0,0.5,0.2,0.6,0.6c0,0.2-0.1,1.1-0.3,2.6l0,0.4l0,0.1c0,0.3,0.2,0.4,0.5,0.4l1.2-0.1
			l1.7-0.1l0.9-0.2c0.7,0,1.1,0.2,1.1,0.6l0,0.2c-0.1,0.3-0.3,0.5-0.8,0.5l-1.9,0.3l-1.3,0.1c-1.1,0.3-1.7,0.6-1.6,0.9
			c-0.2,0.5-0.3,1.8-0.2,3.9c-0.1,1.7-0.1,3.1,0,4.2l0.3,2.3c0,0.4-0.2,0.7-0.6,0.7l-0.1,0c-0.4,0.1-0.8-0.3-0.9-0.9
			c-0.1-1.5-0.2-2.6-0.2-3.1l-0.1-0.8c0.1-0.5,0.1-1.4,0-2.6l0.1-3l0-0.5c0-0.2-0.2-0.3-0.5-0.3l-0.2,0c-0.9,0.1-1.7,0.6-2.3,1.5
			l-0.3,0.1l-0.1,0c-0.3,0-0.6-0.2-0.7-0.7l0-0.3c0.6-1.1,1.1-1.7,1.5-1.7c0.5-0.3,0.9-0.4,1.2-0.4l0.7-0.1c0.8-0.1,1.1-0.5,1.2-1.1
			c0.1-1,0.3-1.9,0.5-2.8C209.6,122,209.8,121.8,210,121.8z"/>
		<path class="st1" d="M227.1,125.6c0.4,0,0.6,0.2,0.7,0.8l0,1.7l0.1,0.2l0.1,3.4l0.3,1.7c0,0.7-0.2,1-0.6,1.1
			c-0.7,0-1.1-0.2-1.1-0.8l0-0.3c0-1.9-0.1-3.7-0.2-5.3C226.1,126.6,226.4,125.7,227.1,125.6z M227.4,121.4l0.3,0
			c0.3,0,0.6,0.2,0.7,0.6l0,0.2c0,0.3-0.2,0.6-0.8,0.8c-0.8,0-1.2-0.2-1.2-0.6C226.3,121.9,226.7,121.6,227.4,121.4z"/>
		<path class="st1" d="M238.1,124.9c0.9,0,1.4,0.3,1.5,0.8l0.1,0.6l-0.1,1l0.1,0.7l0,1.4l0.2,1.2l0,0.3l0.3,0.2l0.4,0
			c1-0.6,1.9-1.2,2.5-1.8l0.3-0.1l0.1,0c0.3,0,0.5,0.2,0.6,0.7c-0.4,0.8-1,1.4-1.6,1.7c-0.7,0.9-1.5,1.3-2.4,1.4
			c-0.9,0.1-1.5-0.4-1.8-1.6l0-0.2l0-1.9l-0.1-0.7l0-1.2c0-0.3-0.2-0.4-0.5-0.4l-1.2,1c-0.2,0-1.1,0.9-2.7,2.7
			c-0.6,0.8-1,1.4-1.2,1.8c-0.1,0.1-0.2,0.3-0.3,0.6l-0.7,1l-0.3,0.1l-0.1,0c-0.7,0-1-0.3-1.1-0.9l-0.1-0.9c0-2.2,0.2-4,0.4-5.4
			c0.1-0.5,0.3-0.9,0.6-1.1l0.1,0c0.4,0,0.7,0.2,0.9,0.6l0,0.1l-0.1,1l0.1,0.3l-0.2,1l0,0.1c0.1,0.5,0.2,0.8,0.4,0.8l0.2,0
			c0.1-0.1,0.6-0.6,1.3-1.6c1.3-1.4,2.3-2.2,3-2.5L238.1,124.9L238.1,124.9z"/>
		<path class="st1" d="M255,113.6c0.2,0,0.4,0.1,0.5,0.4l0,0.4c0,0.3-0.1,1.4-0.4,3.5c-0.1,1.2-0.1,3.2-0.1,6.2
			c0.1,0.2,0.2,0.3,0.2,0.3c0.1,0,0.5-0.5,1.2-1.6c1.3-1.4,2.2-2.2,2.7-2.2c0-0.1,0.7-0.4,2.1-0.7c0.9-0.1,1.6,0.3,2.2,1.2l0.3,1
			l0,0.2c0.1,0.5-0.4,1.7-1.4,3.6c-0.7,1-1.3,1.8-1.7,2.5l-1.6,1.5c-0.1,0-0.2,0.2-0.5,0.5c-0.5,0.5-0.9,0.7-1.4,0.8l-0.1,0
			c-0.5-0.1-0.8-0.4-0.9-1.1c0.1-1.2,0.3-1.8,0.7-1.8c0-0.1,0.2-0.2,0.4-0.3c0.5,0.2,0.9,0.2,1,0.2c0.2,0,0.7-0.5,1.5-1.4
			c0-0.1,0.2-0.4,0.6-0.9c0.5-0.7,0.9-1.4,1.1-2.2c0.4-0.6,0.5-1,0.5-1.5l0-0.1c0-0.3-0.4-0.5-1-0.6l-0.4,0
			c-0.5,0.1-1.4,0.6-2.5,1.5c-1.2,1.6-1.7,2.5-1.7,2.9c-0.3,0.8-0.5,1.7-0.5,2.6c-0.3,0.7-0.7,1.1-1.1,1.1l-0.1,0
			c-0.8,0.1-1.2-0.3-1.3-1.1c-0.2-3.8-0.2-6.8-0.2-8.8c0.2-2.2,0.4-3.6,0.5-4.4C254.3,114.4,254.6,113.7,255,113.6z"/>
		<path class="st1" d="M268.9,120.2c1,0.1,1.5,0.6,1.6,1.3l0,0.1c0.2,1.4-1,3.1-3.4,5.2c-0.5,0.4-0.8,0.8-0.8,1.2
			c0.1,0.3,0.3,0.4,0.6,0.4l0.4,0c0.5-0.1,1.8-0.9,4.2-2.7c0.5-0.3,0.8-0.5,0.9-0.5l0.2,0c0.3,0,0.5,0.2,0.6,0.6
			c0,0.3-0.7,0.9-2.1,1.8c-2,1.5-3.3,2.3-3.9,2.4l-0.2,0c-1.5-0.2-2.4-1-2.5-2.6l0-0.1c0-1.3,0.5-2.9,1.5-4.9c0.5-1,1.3-1.7,2.4-2.2
			L268.9,120.2z M266.8,124.9L266.8,124.9l0.3,0.1c0.6-0.4,1.1-0.9,1.3-1.6c0.5-0.5,0.7-0.9,0.7-1.2c-0.1-0.3-0.2-0.4-0.5-0.4
			c-0.4,0-0.9,0.8-1.7,2.2C266.8,124.4,266.7,124.7,266.8,124.9z"/>
		<path class="st1" d="M284.4,117.4l0.2,0c0.8-0.1,1.2,0.1,1.2,0.7c0,0.3-0.3,0.6-1,1c-0.2,0.3-0.4,1-0.5,2.2
			c-0.3,2.9-0.6,4.8-0.9,5.7c-0.3,0.5-0.5,0.7-0.8,0.8l-0.3,0c-0.3,0-0.8-0.2-1.4-0.6l-1-1.2c-0.6-1.2-1-1.7-1.2-1.7l-1.1,2.9
			c-0.6,1-1,1.6-1.3,1.6c0,0.1-0.2,0.2-0.6,0.3c-0.5,0.1-1-0.4-1.6-1.3l-0.4-1.4l-0.1-1.2l-0.1-0.6c-0.1-3.3,0.2-5.1,0.8-5.6l0.3,0
			c0.3,0.1,0.5,0.3,0.5,0.6c0,0.4,0,1.7-0.1,3.9l0.1,1.5l0,0.2c0.2,1,0.5,1.5,0.8,1.5c0.4,0,0.9-1.4,1.5-4.1
			c0.5-1.6,0.8-2.5,1.1-2.5c0-0.1,0.1-0.1,0.2-0.1c0.4,0,0.7,0.2,0.9,0.8l0.8,2.7c0.6,1.2,1,1.8,1.3,1.8l0.1,0
			c0.2,0,0.4-0.6,0.5-1.7l0.5-3.5c0.3-1.5,0.6-2.3,0.9-2.4C283.7,117.6,283.9,117.5,284.4,117.4z"/>
		<path class="st1" d="M290.5,117.8c1,0.1,1.5,0.6,1.6,1.3l0,0.1c0.2,1.4-1,3.1-3.4,5.2c-0.5,0.4-0.8,0.8-0.8,1.2
			c0.1,0.3,0.3,0.4,0.6,0.4l0.4,0c0.5-0.1,1.8-0.9,4.2-2.7c0.5-0.3,0.8-0.5,0.9-0.5l0.2,0c0.3,0,0.5,0.2,0.6,0.6
			c0,0.3-0.7,0.9-2.1,1.8c-2,1.5-3.3,2.3-3.9,2.4l-0.2,0c-1.5-0.2-2.4-1-2.5-2.6l0-0.1c0-1.3,0.5-2.9,1.5-4.9c0.5-1,1.3-1.7,2.4-2.2
			L290.5,117.8z M288.4,122.5L288.4,122.5l0.3,0.1c0.6-0.4,1.1-0.9,1.3-1.6c0.5-0.5,0.7-0.9,0.7-1.2c-0.1-0.3-0.2-0.4-0.5-0.4
			c-0.4,0-0.9,0.8-1.7,2.2C288.4,122,288.3,122.2,288.4,122.5z"/>
		<path class="st1" d="M305.3,124c-0.4,0.3-0.6,0.9-0.5,1.7c0.1,1.2,0.1,2.9,0,5.3c-0.1,1.6-0.3,3.2-0.6,4.7
			c-0.4,1.3-1.1,2.1-1.9,2.1c-1.1,0.1-2.2-0.4-3.4-1.5c-0.8-1-1.2-2-1.3-3c0-0.8,0.3-1.8,0.8-3.1c0.6-1.1,1.1-2,1.7-2.7l2-2.5
			c0.7-0.5,1-1.2,0.9-2.1l-0.1-0.9l-0.5-2.2l0-0.3c-0.1-0.4-0.3-0.6-0.6-0.6l-0.1,0c-0.2,0-0.7,0.7-1.4,1.9
			c-1.2,1.8-1.8,2.8-1.8,2.9c-0.8,1.1-1.3,1.7-1.5,1.7l-0.3,0.1c-0.6,0.1-1-0.3-1.4-1.2l-0.1-0.3c0.1-1,0.4-2.1,0.9-3.4
			c0.7-1.5,1.2-2.4,1.5-2.7c0.5-0.5,1-0.8,1.4-0.9l0.7-0.1l0.6,0l0.2,0c0.8-0.4,1.3-0.7,1.5-0.7c0.6-0.1,1.1,0.5,1.5,1.6
			c0,0.2,0.2,0.7,0.4,1.3l0,0.4l0.1,0.7c0.2,1.3,0.5,1.9,0.7,1.9c0.2,0,0.7-0.4,1.4-1.2l2.8-2.1c0.1-0.1,0.2,0.1,0.5,0.4l-0.2,1.4
			C308.3,121.3,307,122.3,305.3,124z M297.2,122.2c0,0.1,0.1,0.2,0.2,0.2c0.6-0.2,1.3-1.3,2.1-3.2l0-0.3l-0.2-0.1
			c-0.4,0-0.7,0.4-1.1,1.2c-0.1,0.5-0.4,1.1-0.9,1.6C297.2,121.8,297.2,122,297.2,122.2z M299.1,133.8c0.1,0.7,0.5,1.4,1.3,2.1
			c0.6,0.3,1,0.4,1.3,0.4l0.3,0c0.5-0.1,0.8-0.6,1-1.6l0.3-1.7c0.2-2,0.2-3.3,0.2-4l0.1-0.6l-0.1-0.6l0-0.6
			c-0.1-0.3-0.2-0.5-0.3-0.4l-0.2,0c-0.3,0.2-0.9,0.9-1.8,2c-0.3,0.3-0.6,0.9-1,1.7C299.3,132,299,133.1,299.1,133.8z"/>
		<path class="st1" d="M308.8,116.4c0.4,0,0.6,0.2,0.7,0.8l0,1.7l0.1,0.2l0.1,3.4l0.3,1.7c0,0.7-0.2,1-0.6,1.1
			c-0.7,0-1.1-0.2-1.1-0.8l0-0.3c0-1.9-0.1-3.7-0.2-5.3C307.9,117.3,308.1,116.5,308.8,116.4z M309.1,112.1l0.3,0
			c0.3,0,0.6,0.2,0.7,0.6l0,0.2c0,0.3-0.2,0.6-0.8,0.8c-0.8,0-1.2-0.2-1.2-0.6C308.1,112.7,308.4,112.4,309.1,112.1z"/>
		<path class="st1" d="M319.9,115.7c0.9,0,1.4,0.3,1.5,0.8l0.1,0.6l-0.1,1l0.1,0.7l0,1.4l0.2,1.2l0,0.3l0.3,0.2l0.4,0
			c1-0.6,1.9-1.2,2.5-1.8l0.3-0.1l0.1,0c0.3,0,0.5,0.2,0.6,0.7c-0.4,0.8-1,1.4-1.6,1.7c-0.7,0.9-1.5,1.3-2.4,1.4
			c-0.9,0.1-1.5-0.4-1.8-1.6l0-0.2l0-1.9l-0.1-0.7l0-1.2c0-0.3-0.2-0.5-0.5-0.4l-1.2,1c-0.2,0-1.1,0.9-2.7,2.7
			c-0.6,0.8-1,1.4-1.2,1.8c-0.1,0.1-0.2,0.3-0.3,0.6l-0.7,1l-0.3,0.1l-0.1,0c-0.7,0-1-0.3-1.1-0.9l-0.1-0.9c0-2.2,0.2-4,0.4-5.4
			c0.1-0.5,0.3-0.9,0.6-1.1l0.1,0c0.4,0,0.7,0.2,0.9,0.6l0,0.1l-0.1,1l0.1,0.3l-0.2,1l0,0.1c0.1,0.5,0.2,0.8,0.4,0.8l0.2,0
			c0.1-0.1,0.6-0.6,1.3-1.6c1.3-1.4,2.3-2.2,3-2.5L319.9,115.7L319.9,115.7z"/>
		<path class="st1" d="M335.1,120.6c-0.4,0.3-0.6,0.9-0.5,1.7c0.1,1.2,0.1,2.9,0,5.3c-0.1,1.6-0.3,3.2-0.6,4.7
			c-0.4,1.3-1.1,2.1-1.9,2.1c-1.1,0.1-2.2-0.4-3.4-1.5c-0.8-1-1.2-2-1.3-3c0-0.8,0.3-1.8,0.8-3.1c0.6-1.1,1.1-2,1.7-2.7l2-2.5
			c0.7-0.5,1-1.2,0.9-2.1l-0.1-0.9l-0.5-2.2l0-0.3c-0.1-0.4-0.3-0.6-0.6-0.6l-0.1,0c-0.2,0-0.7,0.7-1.4,1.9
			c-1.2,1.8-1.8,2.8-1.8,2.9c-0.8,1.1-1.3,1.7-1.5,1.7l-0.3,0.1c-0.6,0.1-1-0.3-1.4-1.2l-0.1-0.3c0.1-1,0.4-2.1,0.9-3.4
			c0.7-1.5,1.2-2.4,1.5-2.7c0.5-0.5,1-0.8,1.4-0.9l0.7-0.1l0.6,0l0.2,0c0.8-0.4,1.3-0.7,1.5-0.7c0.6-0.1,1.1,0.5,1.5,1.6
			c0,0.2,0.2,0.7,0.4,1.3l0,0.4l0.1,0.7c0.2,1.3,0.5,1.9,0.7,1.9c0.2,0,0.7-0.4,1.4-1.2l2.8-2.1c0.1-0.1,0.2,0.1,0.5,0.4l-0.2,1.4
			C338.2,118,336.9,119,335.1,120.6z M327,118.8c0,0.1,0.1,0.2,0.2,0.2c0.6-0.2,1.3-1.3,2.1-3.2l0-0.3l-0.2-0.1
			c-0.4,0-0.7,0.4-1.1,1.2c-0.1,0.5-0.4,1.1-0.9,1.6C327.1,118.4,327,118.6,327,118.8z M328.9,130.4c0.1,0.7,0.5,1.4,1.3,2.1
			c0.6,0.3,1,0.4,1.3,0.4l0.3,0c0.5-0.1,0.8-0.6,1-1.6l0.3-1.7c0.2-2,0.2-3.3,0.2-4l0.1-0.6l-0.1-0.6l0-0.6
			c-0.1-0.3-0.2-0.5-0.3-0.4l-0.2,0c-0.3,0.2-0.9,0.9-1.8,2c-0.3,0.3-0.6,0.9-1,1.7C329.2,128.6,328.8,129.7,328.9,130.4z"/>
		<path class="st1" d="M338.3,105.7c0.3,0,0.6,0.1,0.8,0.4l0,0.3c0.3,5.8,0.5,9.1,0.6,9.9l0.2,0.8c-0.1,0.7-0.3,1.1-0.7,1.1l-0.2,0
			c-0.4,0.1-0.7-0.2-0.8-0.6l-0.1-0.9c-0.1-0.5-0.1-1.1,0-1.8l-0.1-0.5l0-0.1l0-2.6l-0.1-0.6c0.1-0.3,0-1.8-0.2-4.5
			C337.8,106.1,338,105.7,338.3,105.7z M339,119.9c0.6,0.1,0.9,0.3,1,0.7l0,0.3c0.1,0.5-0.2,0.8-0.8,1l-0.1,0
			c-0.6,0.1-0.9-0.2-1-0.9C338.3,120.3,338.5,120,339,119.9z"/>
	</g>
	<linearGradient id="SVGID_1_" gradientUnits="userSpaceOnUse" x1="4.130983e-03" y1="69.9425" x2="47.2697" y2="69.9425">
		<stop  offset="0" style="stop-color:#35A8E0"/>
		<stop  offset="0.3794" style="stop-color:#327DBF"/>
		<stop  offset="1" style="stop-color:#2D2E82"/>
	</linearGradient>
	<path class="st2" d="M8.1,59.7c-2.1,0.5-4,1.6-5.4,3.2C-1,67-0.9,73.3,3.1,77.3c1.3,1.3,3,2.3,4.9,2.8c1.9,0.5,4.1,0.3,6.5,0.8
		c3.5,0.8,6.7,2.5,9.3,5.1c2.7,2.7,4.6,6.3,5.2,10.1c0.4,2.1,0.2,4.5,0.9,6.6c0.5,1.6,1.4,3,2.6,4.2c4.1,4,10.6,4,14.7-0.1
		c3.9-3.9,4.1-10.3,0.3-14.4c-1-1.1-2.2-2-3.6-2.6c-2.7-1.1-3.9-0.7-6.5-1.1c-1.5-0.2-3.1-0.6-4.5-1.2c-1.5-0.6-2-0.9-3.3-1.7
		c-2.5-1.6-4.5-3.8-6-6.3c-1.6-2.8-2.6-6.1-2.6-9.5c0-5.2,2.1-9.9,5.5-13.3c2.7-2.7,6.3-4.6,10.2-5.3c1.9-0.3,3.9-0.2,5.8-0.6
		c1.8-0.5,3.5-1.4,4.8-2.7c4.1-4.1,4.1-10.7,0-14.7c-3.9-3.9-10.2-4.1-14.3-0.4c-1.3,1.2-2.4,2.8-2.9,4.5c-0.7,2.3-0.5,3.4-0.8,5.7
		c-0.5,4.2-2.5,8-5.4,10.9c-2.9,2.9-6.8,4.9-11.2,5.4C10.8,59.5,9.9,59.3,8.1,59.7L8.1,59.7z"/>
	<linearGradient id="SVGID_2_" gradientUnits="userSpaceOnUse" x1="58.7952" y1="40.5167" x2="109.051" y2="40.5167">
		<stop  offset="0" style="stop-color:#F29100"/>
		<stop  offset="1" style="stop-color:#E20613"/>
	</linearGradient>
	<path class="st3" d="M100.9,50.7c2.1-0.5,4-1.6,5.4-3.2c3.8-4.1,3.6-10.5-0.3-14.4c-1.3-1.3-3-2.3-4.9-2.8
		c-1.9-0.5-4.1-0.3-6.5-0.8c-3.5-0.8-6.7-2.5-9.3-5.1c-2.7-2.7-4.6-6.3-5.2-10.1c-0.4-2.1-0.2-4.5-0.9-6.6c-0.5-1.6-1.4-3-2.6-4.2
		c-4.1-4-10.6-4-14.7,0.1c-3.9,3.9-4.1,10.3-0.3,14.4c1,1.1,2.2,2,3.6,2.6c2.7,1.1,3.9,0.7,6.5,1.1c1.5,0.2,3.1,0.6,4.5,1.2
		c1.5,0.6,2,0.9,3.3,1.7c2.5,1.6,4.5,3.8,6,6.3c1.6,2.8,2.6,6.1,2.6,9.5c0,5.2-2.1,9.9-5.5,13.3c-2.7,2.7-6.3,4.6-10.2,5.3
		c-1.9,0.3-3.9,0.2-5.8,0.6c-1.8,0.5-3.5,1.4-4.8,2.7c-4.1,4.1-4.1,10.7,0,14.7c3.9,3.9,10.2,4.1,14.3,0.4c1.3-1.2,2.4-2.8,2.9-4.5
		c0.7-2.3,0.5-3.4,0.8-5.7c0.5-4.2,2.5-8,5.4-10.9c2.9-2.9,6.8-4.9,11.2-5.4C98.2,50.9,99.2,51.1,100.9,50.7L100.9,50.7z"/>
	<linearGradient id="SVGID_3_" gradientUnits="userSpaceOnUse" x1="69.2404" y1="107.8368" x2="69.2404" y2="60.1171">
		<stop  offset="0" style="stop-color:#E61B72"/>
		<stop  offset="1" style="stop-color:#662482"/>
	</linearGradient>
	<path class="st4" d="M59,101.6c0.5,2.1,1.6,4,3.2,5.4c4.1,3.8,10.5,3.6,14.4-0.3c1.3-1.3,2.3-3,2.8-4.9c0.5-1.9,0.3-4.1,0.8-6.5
		c0.8-3.5,2.5-6.7,5.1-9.3c2.7-2.7,6.3-4.6,10.1-5.2c2.1-0.4,4.5-0.2,6.6-0.9c1.6-0.5,3-1.4,4.2-2.6c4-4.1,4-10.6-0.1-14.7
		c-3.9-3.9-10.3-4.1-14.4-0.3c-1.1,1-2,2.2-2.6,3.6c-1.1,2.7-0.7,3.9-1.1,6.5c-0.2,1.5-0.6,3.1-1.2,4.5c-0.6,1.5-0.9,2-1.7,3.3
		c-1.6,2.5-3.8,4.5-6.3,6c-2.8,1.6-6.1,2.6-9.5,2.6c-5.2,0-9.9-2.1-13.3-5.5c-2.7-2.7-4.6-6.3-5.3-10.2c-0.3-1.9-0.2-3.9-0.6-5.8
		c-0.5-1.8-1.4-3.5-2.7-4.8c-4.1-4.1-10.7-4.1-14.7,0c-3.9,3.9-4.1,10.2-0.4,14.3c1.2,1.3,2.8,2.4,4.5,2.9c2.3,0.7,3.4,0.5,5.7,0.8
		c4.2,0.5,8,2.5,10.9,5.4c2.9,2.9,4.9,6.8,5.4,11.2C58.8,98.9,58.6,99.9,59,101.6L59,101.6z"/>
	<linearGradient id="SVGID_4_" gradientUnits="userSpaceOnUse" x1="39.8145" y1="0.1549" x2="39.8145" y2="49.1641">
		<stop  offset="0" style="stop-color:#A2C4E8"/>
		<stop  offset="0.1526" style="stop-color:#9EC3E7"/>
		<stop  offset="0.3102" style="stop-color:#91BFE6"/>
		<stop  offset="0.4702" style="stop-color:#7DB9E3"/>
		<stop  offset="0.6318" style="stop-color:#60B0DF"/>
		<stop  offset="0.7947" style="stop-color:#3AA5DB"/>
		<stop  offset="0.9565" style="stop-color:#0D98D5"/>
		<stop  offset="1" style="stop-color:#0094D3"/>
	</linearGradient>
	<path class="st5" d="M50,8.8c-0.5-2.1-1.6-4-3.2-5.4c-4.1-3.8-10.5-3.6-14.4,0.3c-1.3,1.3-2.3,3-2.8,4.9c-0.5,1.9-0.3,4.1-0.8,6.5
		c-0.8,3.5-2.5,6.7-5.1,9.3c-2.7,2.7-6.3,4.6-10.1,5.2c-2.1,0.4-4.5,0.2-6.6,0.9c-1.6,0.5-3,1.4-4.2,2.6c-4,4.1-4,10.6,0.1,14.7
		C7,51.9,13.4,52,17.5,48.2c1.1-1,2-2.2,2.6-3.6c1.1-2.7,0.7-3.9,1.1-6.5c0.2-1.5,0.6-3.1,1.2-4.5c0.6-1.5,0.9-2,1.7-3.3
		c1.6-2.5,3.8-4.5,6.3-6c2.8-1.6,6.1-2.6,9.5-2.6c5.2,0,9.9,2.1,13.3,5.5c2.7,2.7,4.6,6.3,5.3,10.2c0.3,1.9,0.2,3.9,0.6,5.8
		c0.5,1.8,1.4,3.5,2.7,4.8c4.1,4.1,10.7,4.1,14.7,0c3.9-3.9,4.1-10.2,0.4-14.3c-1.2-1.3-2.8-2.4-4.5-2.9c-2.3-0.7-3.4-0.5-5.7-0.8
		c-4.2-0.5-8-2.5-10.9-5.4c-2.9-2.9-4.9-6.8-5.4-11.2C50.2,11.5,50.4,10.6,50,8.8L50,8.8z"/>
	<path class="st6" d="M106,18.3c-4,4-10.5,4-14.6,0c-4-4-4-10.5,0-14.6c4-4,10.5-4,14.6,0C110.1,7.7,110.1,14.3,106,18.3L106,18.3z"
		/>
	<path class="st7" d="M17.6,18.3c-4,4-10.5,4-14.6,0c-4-4-4-10.5,0-14.6c4-4,10.5-4,14.6,0C21.6,7.7,21.6,14.3,17.6,18.3L17.6,18.3z
		"/>
	<path class="st8" d="M17.6,106.7c-4,4-10.5,4-14.6,0c-4-4-4-10.5,0-14.6c4-4,10.5-4,14.6,0C21.6,96.2,21.6,102.7,17.6,106.7
		L17.6,106.7z"/>
	<path class="st9" d="M107.7,106.7c-4,4-10.5,4-14.6,0c-4-4-4-10.5,0-14.6c4-4,10.5-4,14.6,0C111.7,96.2,111.7,102.7,107.7,106.7
		L107.7,106.7z"/>
</g>
</svg>
