<?xml version="1.0" encoding="utf-8"?>
<!-- Generator: Adobe Illustrator 22.0.1, SVG Export Plug-In . SVG Version: 6.00 Build 0)  -->
<svg version="1.1" id="Layer_1" xmlns="http://www.w3.org/2000/svg" xmlns:xlink="http://www.w3.org/1999/xlink" x="0px" y="0px"
	 viewBox="0 0 238.4 170.3" style="enable-background:new 0 0 238.4 170.3;" xml:space="preserve">
<style type="text/css">
	.st0{fill:#35A8E0;}
</style>
<path class="st0" d="M-1.5-24c0,0,0,8.8,0,19.7V171l1.1-0.6c19.9-16.1,43.9-42.9,50.8-67.1c3.9-13.5,4.6-29.4,10.4-42.2
	c4.6-10,11.5-18.7,20.1-25.4c29.7-23.2,73-18.5,97.1,10.6c23.5,28.5,20.1,70.1-7.7,94.3c-7.4,6.5-16.2,11.3-25.8,14.2
	c-18.8,5.6-26.1,2.1-44.1,2.6c-10.4,0.3-20.7,1.8-30.7,4.6c-10.7,3-13.6,4.2-23,8.9c42.5,0,98.6,0,105.3,0h66.4V-4.3
	c-0.1-10.9,0.1-19.7,0.1-19.7H-1.5z"/>
<rect x="213.4" y="-24.3" class="st0" width="25" height="194.7"/>
</svg>
