<svg xmlns="http://www.w3.org/2000/svg" width="91.174" height="122.411" viewBox="0 0 91.174 122.411">
  <g id="Group_264" data-name="Group 264" transform="translate(-392.701 -324.791)">
    <text id="ISO_14001" data-name="ISO
14001" transform="translate(408.367 359.353)" fill="#2b3a49" font-size="14.164" font-family="SegoeUI-Bold, Segoe UI" font-weight="700"><tspan x="0" y="0">ISO</tspan><tspan x="0" y="13.074">14001</tspan></text>
    <text id="CERTIFIED" transform="translate(408.367 383.356)" fill="#5a7ca0" font-size="9.806" font-family="SegoeUI, Segoe UI" letter-spacing="0.1em"><tspan x="0" y="0">CERTIFIED</tspan></text>
    <path id="Path_360" data-name="Path 360" d="M460.373,325.609v22.685h22.685Z" fill="none" stroke="#5a7ca0" stroke-linejoin="round" stroke-width="1.634"/>
    <path id="Path_361" data-name="Path 361" d="M429.891,433.424H393.518V325.609h66.854l22.685,22.685v85.13H446.685" fill="none" stroke="#5a7ca0" stroke-linejoin="round" stroke-width="1.634"/>
    <g id="Group_263" data-name="Group 263">
      <path id="Path_362" data-name="Path 362" d="M429.891,423.448V444.4l7.981-7.981,8.812,8.812V422.783" fill="none" stroke="#2b3a49" stroke-linecap="round" stroke-miterlimit="10" stroke-width="1.634"/>
      <g id="Group_262" data-name="Group 262">
        <path id="Path_363" data-name="Path 363" d="M438.288,395.012h0a15.214,15.214,0,0,0-3.782.492v20.179h-7.565V400.1a15.178,15.178,0,0,0-3.906,10.168h0a15.253,15.253,0,0,0,15.253,15.253h0a15.26,15.26,0,0,0,2.627-.242l-5.722-9.594,7.788-13.06h7.565l-7.788,13.06,4.234,7.1a15.228,15.228,0,0,0,6.55-12.517h0A15.254,15.254,0,0,0,438.288,395.012Z" fill="none" stroke="#2b3a49" stroke-miterlimit="10" stroke-width="1.634"/>
        <path id="Path_364" data-name="Path 364" d="M434.506,415.683V395.5a15.221,15.221,0,0,0-7.565,4.594v15.585Z" fill="none" stroke="#2b3a49" stroke-miterlimit="10" stroke-width="1.634"/>
        <path id="Path_365" data-name="Path 365" d="M450.546,402.623h-7.565l-7.788,13.06,5.722,9.594a15.154,15.154,0,0,0,6.077-2.494l-4.234-7.1Z" fill="none" stroke="#2b3a49" stroke-miterlimit="10" stroke-width="1.634"/>
      </g>
    </g>
  </g>
</svg>
