<svg xmlns="http://www.w3.org/2000/svg" width="91.174" height="122.411" viewBox="0 0 91.174 122.411">
  <g id="Group_267" data-name="Group 267" transform="translate(-590.584 -324.791)">
    <text id="OVERSTEMPEL_BEVOEGD" data-name="OVERSTEMPEL
BEVOEGD" transform="translate(606.249 359.353)" fill="#2b3a49" font-size="8" font-family="SegoeUI-Bold, Segoe UI" font-weight="700"><tspan x="0" y="0">OVERSTEMPEL</tspan><tspan x="0" y="7.627">BEVOEGD</tspan></text>
    <text id="CERTIFIED" transform="translate(606.25 383.356)" fill="#5a7ca0" font-size="9.806" font-family="SegoeUI, Segoe UI" letter-spacing="0.1em"><tspan x="0" y="0">CERTIFIED</tspan></text>
    <path id="Path_366" data-name="Path 366" d="M658.255,325.609v22.685H680.94Z" fill="none" stroke="#5a7ca0" stroke-linejoin="round" stroke-width="1.634"/>
    <path id="Path_367" data-name="Path 367" d="M627.774,433.424H591.4V325.609h66.854l22.685,22.685v85.13H644.567" fill="none" stroke="#5a7ca0" stroke-linejoin="round" stroke-width="1.634"/>
    <g id="Group_266" data-name="Group 266">
      <path id="Path_368" data-name="Path 368" d="M627.774,423.448V444.4l7.981-7.981,8.812,8.812V422.783" fill="none" stroke="#2b3a49" stroke-linecap="round" stroke-miterlimit="10" stroke-width="1.634"/>
      <g id="Group_265" data-name="Group 265">
        <path id="Path_369" data-name="Path 369" d="M636.171,395.012h0a15.221,15.221,0,0,0-3.783.492v20.179h-7.565V400.1a15.178,15.178,0,0,0-3.906,10.168h0a15.253,15.253,0,0,0,15.254,15.253h0a15.268,15.268,0,0,0,2.627-.242l-5.723-9.594,7.789-13.06h7.565l-7.789,13.06,4.235,7.1a15.229,15.229,0,0,0,6.549-12.517h0A15.253,15.253,0,0,0,636.171,395.012Z" fill="none" stroke="#2b3a49" stroke-miterlimit="10" stroke-width="1.634"/>
        <path id="Path_370" data-name="Path 370" d="M632.388,415.683V395.5a15.221,15.221,0,0,0-7.565,4.594v15.585Z" fill="none" stroke="#2b3a49" stroke-miterlimit="10" stroke-width="1.634"/>
        <path id="Path_371" data-name="Path 371" d="M648.429,402.623h-7.565l-7.789,13.06,5.723,9.594a15.154,15.154,0,0,0,6.077-2.494l-4.235-7.1Z" fill="none" stroke="#2b3a49" stroke-miterlimit="10" stroke-width="1.634"/>
      </g>
    </g>
  </g>
</svg>
