<svg id="Layer_1" data-name="Layer 1" xmlns="http://www.w3.org/2000/svg" viewBox="0 0 125.28 248"><defs><style>.cls-1{fill:#fff;}</style></defs><title>facebook</title><path class="cls-1" d="M91,158.09h27.18V270a4,4,0,0,0,4,4h46.09a4,4,0,0,0,4-4V158.61h31.25a4,4,0,0,0,4-3.54l4.75-41.2a4,4,0,0,0-4-4.46h-36V83.58c0-7.79,4.2-11.73,12.46-11.73h23.54a4,4,0,0,0,4-4V30a4,4,0,0,0-4-4H175.84c-.23,0-.74,0-1.49,0-5.63,0-25.19,1.1-40.64,15.32C116.59,57.07,119,75.94,119.54,79.21v30.2H91a4,4,0,0,0-4,4v40.68a4,4,0,0,0,4,4Zm0,0" transform="translate(-87 -26)"/></svg>