<?xml version="1.0" encoding="utf-8"?>
<!-- Generator: Adobe Illustrator 21.1.0, SVG Export Plug-In . SVG Version: 6.00 Build 0)  -->
<svg version="1.1" id="Layer_1" xmlns="http://www.w3.org/2000/svg" xmlns:xlink="http://www.w3.org/1999/xlink" x="0px" y="0px"
	 viewBox="0 0 12 12" style="enable-background:new 0 0 12 12;" xml:space="preserve">
<style type="text/css">
	.st0{fill:#C3EFFD;}
</style>
<g>
	<path class="st0" d="M44.2,69.5c0,16.9-13.7,30.6-30.6,30.6C-3.3,100.1-17,86.4-17,69.5c0-16.9,13.7-30.6,30.6-30.6
		C30.5,38.9,44.2,52.6,44.2,69.5L44.2,69.5z M44.2,69.5"/>
	<path class="st0" d="M242-193.5c-5.5,0-10,4.5-10,10v108.3c0,46.9-38.4,85.1-85.3,85.1c-46.9,0-85.3-38.2-85.3-85.1v-108.3
		c0-5.5-4.5-10-10-10c-5.5,0-10,4.5-10,10v108.3c0,54.6,41.9,99.5,94.8,104.6v99.8c0,31.1-25.2,56.4-56.4,56.4
		c-31.1,0-56.4-25.2-56.4-56.4v-29.1c0-5.5-4.5-10-10-10c-5.5,0-10,4.5-10,10v29.1c0,42.1,34.2,76.3,76.3,76.3
		c42.2,0,76.3-34.2,76.3-76.3V29.4c53.9-5,95.8-50,95.8-104.6v-108.3C251.9-189,247.5-193.5,242-193.5L242-193.5z M242-193.5"/>
	<path class="st0" d="M13.6,110C-8.8,110-27,91.9-27,69.5s18.2-40.6,40.6-40.6c22.4,0,40.6,18.2,40.6,40.6
		C54.1,91.9,36,110,13.6,110L13.6,110z M13.6,48.8C2.2,48.8-7,58.1-7,69.5c0,11.4,9.2,20.6,20.6,20.6c11.4,0,20.6-9.2,20.6-20.6
		C34.2,58.1,25,48.8,13.6,48.8L13.6,48.8z M13.6,48.8"/>
</g>
</svg>
