<svg id="Layer_1" data-name="Layer 1" xmlns="http://www.w3.org/2000/svg" xmlns:xlink="http://www.w3.org/1999/xlink" viewBox="0 0 248 247.45"><defs><style>.cls-1{fill:none;}.cls-2{fill:#fff;}.cls-3{clip-path:url(#clip-path);}</style><clipPath id="clip-path" transform="translate(-26 -26.47)"><rect class="cls-1" x="26" y="26" width="247.92" height="248.88"/></clipPath></defs><title>linkedin</title><path class="cls-2" d="M83.73,106H33.94a4,4,0,0,0-4,4V269.92a4,4,0,0,0,4,4H83.73a4,4,0,0,0,4-4V110a4,4,0,0,0-4-4Zm0,0" transform="translate(-26 -26.47)"/><g class="cls-3"><path class="cls-2" d="M58.85,26.47A32.82,32.82,0,1,0,91.68,59.28,32.87,32.87,0,0,0,58.85,26.47Zm0,0" transform="translate(-26 -26.47)"/><path class="cls-2" d="M210.36,102c-20,0-34.78,8.6-43.74,18.36V110a4,4,0,0,0-4-4H114.94a4,4,0,0,0-4,4V269.92a4,4,0,0,0,4,4h49.68a4,4,0,0,0,4-4V190.79c0-26.67,7.25-37.06,25.83-37.06,20.25,0,21.86,16.65,21.86,38.43v77.76a4,4,0,0,0,4,4H270a4,4,0,0,0,4-4V182.19c0-39.65-7.56-80.19-63.64-80.19Zm0,0" transform="translate(-26 -26.47)"/></g></svg>