<svg id="Layer_1" data-name="Layer 1" xmlns="http://www.w3.org/2000/svg" xmlns:xlink="http://www.w3.org/1999/xlink" viewBox="0 0 248 203.04"><defs><style>.cls-1{fill:none;}.cls-2{clip-path:url(#clip-path);}.cls-3{fill:#fff;}</style><clipPath id="clip-path" transform="translate(-26 -48.72)"><rect class="cls-1" x="26" y="48" width="247.92" height="204.72"/></clipPath></defs><title>twitter</title><g class="cls-2"><path class="cls-3" d="M268.38,72.15a94.22,94.22,0,0,1-12,4.37,53.06,53.06,0,0,0,10.79-19,4,4,0,0,0-5.85-4.66,94.43,94.43,0,0,1-27.9,11A53.26,53.26,0,0,0,142.93,102a54.44,54.44,0,0,0,.43,6.88A136.31,136.31,0,0,1,49.81,59.2a4,4,0,0,0-6.55.51A53.31,53.31,0,0,0,48.71,121a45.44,45.44,0,0,1-7.13-3.18,4,4,0,0,0-5.94,3.4c0,.24,0,.47,0,.71A53.42,53.42,0,0,0,61.7,167.71q-2-.2-4.05-.59a4,4,0,0,0-4.56,5.15,53.21,53.21,0,0,0,39,35.68,94.18,94.18,0,0,1-50.34,14.37,95.75,95.75,0,0,1-11.28-.66A4,4,0,0,0,27.84,229a143.58,143.58,0,0,0,77.64,22.75c54.2,0,88.11-25.56,107-47,23.57-26.74,37.09-62.13,37.09-97.09,0-1.46,0-2.94-.07-4.41A103.49,103.49,0,0,0,273.32,78a4,4,0,0,0-4.94-5.88Zm0,0" transform="translate(-26 -48.72)"/></g></svg>