<?xml version="1.0" encoding="utf-8"?>
<!-- Generator: Adobe Illustrator 21.1.0, SVG Export Plug-In . SVG Version: 6.00 Build 0)  -->
<svg version="1.1" id="Layer_1" xmlns="http://www.w3.org/2000/svg" xmlns:xlink="http://www.w3.org/1999/xlink" x="0px" y="0px" width="8px"
	 viewBox="0 0 8 13" style="enable-background:new 0 0 8 13;" xml:space="preserve">
<style type="text/css">
	.st0{enable-background:new    ;}
	.st1{fill:#FFFFFF;}
</style>
<g class="st0">
	<path class="st1" d="M7.6,6.5c0,0.1,0,0.2-0.1,0.3l-5.7,5.7c-0.1,0.1-0.2,0.1-0.3,0.1c-0.1,0-0.2,0-0.3-0.1l-0.6-0.6
		c-0.1-0.1-0.1-0.2-0.1-0.3s0-0.2,0.1-0.3l4.8-4.8L0.6,1.7C0.5,1.6,0.4,1.5,0.4,1.4c0-0.1,0-0.2,0.1-0.3l0.6-0.6
		c0.1-0.1,0.2-0.1,0.3-0.1c0.1,0,0.2,0,0.3,0.1l5.7,5.7C7.5,6.3,7.6,6.4,7.6,6.5z"/>
</g>
</svg>
