<svg xmlns="http://www.w3.org/2000/svg" width="45.105" height="44.139" viewBox="0 0 45.105 44.139">
  <g id="certifikaat-icoon" transform="translate(0 0)">
    <path id="Path_80" data-name="Path 80" d="M40.992,2.05l-29.558.069A4.943,4.943,0,0,0,6.523,7.062V34.42H2.151A1.151,1.151,0,0,0,1,35.571v2.863a4.943,4.943,0,0,0,4.934,4.939H28.367a1.151,1.151,0,0,0,0-2.3H5.934A2.637,2.637,0,0,1,3.3,38.434V36.722H28.367a1.151,1.151,0,1,0,0-2.3H8.824V7.062a2.642,2.642,0,0,1,2.633-2.637l25.287-.06a5.063,5.063,0,0,0-.842,2.8V13.4a1.151,1.151,0,0,0,2.3,0V7.164a2.817,2.817,0,0,1,2.812-2.812h0A2.817,2.817,0,0,1,43.8,7.164V8.7H41.292a1.151,1.151,0,1,0,0,2.3h3.682a1.151,1.151,0,0,0,1.132-1.151V7.164A5.118,5.118,0,0,0,40.992,2.05Z" transform="translate(-1 -2.05)" fill="#002c3e"/>
    <path id="Path_81" data-name="Path 81" d="M59.058,47.979A1.459,1.459,0,0,1,59.927,49a3.728,3.728,0,0,0,2.039,2.573,3.944,3.944,0,0,0,3.48,0,1.68,1.68,0,0,1,1.464,0,3.949,3.949,0,0,0,3.48,0A3.724,3.724,0,0,0,72.428,49a1.459,1.459,0,0,1,.87-1.017,3.719,3.719,0,0,0,2.2-2.614,3.6,3.6,0,0,0-.833-3.222,1.339,1.339,0,0,1-.3-1.215,3.6,3.6,0,0,0-.663-3.185,3.889,3.889,0,0,0-3.167-1.473,1.574,1.574,0,0,1-1.3-.585,3.944,3.944,0,0,0-6.117,0,1.616,1.616,0,0,1-1.3.585,3.88,3.88,0,0,0-3.167,1.473,3.6,3.6,0,0,0-.663,3.185,1.339,1.339,0,0,1-.3,1.234,3.608,3.608,0,0,0-.833,3.222A3.724,3.724,0,0,0,59.058,47.979Zm.359-4.3a3.636,3.636,0,0,0,.8-3.346,1.312,1.312,0,0,1,.244-1.146,1.579,1.579,0,0,1,1.3-.594,3.958,3.958,0,0,0,3.153-1.454,1.643,1.643,0,0,1,2.518,0h0a3.954,3.954,0,0,0,3.153,1.45,1.579,1.579,0,0,1,1.307.6,1.312,1.312,0,0,1,.249,1.169,3.636,3.636,0,0,0,.8,3.346,1.312,1.312,0,0,1,.313,1.178,1.445,1.445,0,0,1-.865,1,3.765,3.765,0,0,0-2.209,2.656,1.436,1.436,0,0,1-.8.985,1.657,1.657,0,0,1-1.464,0,4,4,0,0,0-3.475,0,1.657,1.657,0,0,1-1.464,0,1.441,1.441,0,0,1-.8-.985,3.765,3.765,0,0,0-2.209-2.656,1.445,1.445,0,0,1-.865-1,1.312,1.312,0,0,1,.308-1.2Z" transform="translate(-31.101 -19.42)" fill="#002c3e"/>
    <path id="Path_82" data-name="Path 82" d="M69.051,77A1.151,1.151,0,0,0,67.9,78.151v7.341a1.151,1.151,0,0,0,1.841.921l2.462-1.9,2.462,1.9a1.151,1.151,0,0,0,1.841-.921V78.215a1.151,1.151,0,0,0-2.3,0v4.934l-1.312-1.013a1.151,1.151,0,0,0-1.4,0l-1.312,1.013v-5A1.151,1.151,0,0,0,69.05,77Z" transform="translate(-37.108 -42.503)" fill="#002c3e"/>
    <path id="Path_83" data-name="Path 83" d="M28.251,21.011H44.608a1.151,1.151,0,0,0,0-2.3H28.251a1.151,1.151,0,1,0,0,2.3Z" transform="translate(-15.087 -11.042)" fill="#002c3e"/>
    <path id="Path_84" data-name="Path 84" d="M41.408,32.471a1.151,1.151,0,0,0-1.151-1.151H28.291a1.151,1.151,0,1,0,0,2.3H40.258A1.151,1.151,0,0,0,41.408,32.471Z" transform="translate(-15.109 -17.848)" fill="#002c3e"/>
    <path id="Path_85" data-name="Path 85" d="M37.746,45.091A1.151,1.151,0,0,0,36.6,43.94H28.251a1.151,1.151,0,1,0,0,2.3H36.6a1.151,1.151,0,0,0,1.151-1.151Z" transform="translate(-15.087 -24.66)" fill="#002c3e"/>
    <path id="Path_86" data-name="Path 86" d="M35.744,56.55H28.311a1.151,1.151,0,1,0,0,2.3h7.433a1.151,1.151,0,1,0,0-2.3Z" transform="translate(-15.119 -31.466)" fill="#002c3e"/>
  </g>
</svg>
