<svg xmlns="http://www.w3.org/2000/svg" width="149.453" height="41.987" viewBox="0 0 149.453 41.987">
  <g id="Group_43" data-name="Group 43" transform="translate(0 0)">
    <g id="Group_6" data-name="Group 6" transform="translate(50.191 9.024)">
      <g id="Group_5" data-name="Group 5">
        <path id="Path_13" data-name="Path 13" d="M73.042,20.329,79.605,12.2h5.742l-6.712,8.054,7.085,11.858H79.829ZM72.52,32.112H67.3V12.2h5.22Z" transform="translate(-67.3 -12.125)" fill="#fff"/>
        <path id="Path_14" data-name="Path 14" d="M112.549,23.983c0,5.593-2.983,8.427-8.875,8.427S94.8,29.577,94.8,23.983V12.2h5.22V24.058c0,2.834,1.193,4.251,3.654,4.251,2.536,0,3.729-1.417,3.729-4.251V12.2h5.146Z" transform="translate(-74.291 -12.125)" fill="#fff"/>
        <path id="Path_15" data-name="Path 15" d="M133.731,24.778v7.309h-5.22V24.778L121.5,12.1h5.37l2.834,5.444L131.2,20.9l1.492-3.356,2.834-5.444h5.295Z" transform="translate(-81.079 -12.1)" fill="#fff"/>
        <path id="Path_16" data-name="Path 16" d="M166.385,28.085v4.027H150.5V12.2h15.512v4.027H155.72v4.027h8.2v3.8h-8.2v4.1h10.665Z" transform="translate(-88.452 -12.125)" fill="#fff"/>
        <path id="Path_17" data-name="Path 17" d="M182.115,21.149h2.61c2.237,0,3.132-.746,3.132-2.536,0-1.715-.97-2.536-3.132-2.536H181.22v15.96H176V12.2h9.471c4.773,0,7.532,2.237,7.532,6.339a5.56,5.56,0,0,1-3.878,5.742l5.071,7.831h-5.742Z" transform="translate(-94.934 -12.125)" fill="#fff"/>
      </g>
    </g>
    <g id="Group_8" data-name="Group 8" transform="translate(49.967 32.889)">
      <g id="Group_7" data-name="Group 7">
        <path id="Path_18" data-name="Path 18" d="M76.322,53.2H74.98V47.9l.075-2.536h0l-2.759,7.756H71.1l-2.759-7.756h0l.075,2.536V53.2H67V44.1h2.237L71.1,49.395l.6,2.163h0l.671-2.163,1.79-5.295h2.163Z" transform="translate(-67 -44.1)" fill="#fff"/>
        <path id="Path_19" data-name="Path 19" d="M89.787,51.931V53.2H83V44.1h6.563v1.268H84.492v2.61h4.027v1.268H84.492v2.685Z" transform="translate(-71.068 -44.1)" fill="#fff"/>
        <path id="Path_20" data-name="Path 20" d="M101.356,45.368H98.224V53.2H96.732V45.368H93.6V44.1h7.756Z" transform="translate(-73.762 -44.1)" fill="#fff"/>
        <path id="Path_21" data-name="Path 21" d="M109.89,50.812h-3.8l-.895,2.386H103.7l3.431-9.1h1.79l3.431,9.1h-1.566Zm-.447-1.193L108.4,46.71l-.447-1.342h-.075l-.373,1.268-1.044,2.983Z" transform="translate(-76.33 -44.1)" fill="#fff"/>
        <path id="Path_22" data-name="Path 22" d="M122.89,50.812h-3.8l-.895,2.386H116.7l3.431-9.1h1.79l3.431,9.1h-1.566Zm-.447-1.193L121.4,46.71l-.447-1.342h-.075l-.373,1.268-1.044,2.983Z" transform="translate(-79.635 -44.1)" fill="#fff"/>
        <path id="Path_23" data-name="Path 23" d="M136.888,51.931V53.2H130.4V44.1h1.492v7.831Z" transform="translate(-83.118 -44.1)" fill="#fff"/>
      </g>
    </g>
    <path id="Path_24" data-name="Path 24" d="M41.987,0H15.363V28.19H5.295V0H0V41.987H24.536l-8.278-13.8L26.624,10.814H36.692L26.326,28.19l8.278,13.8h7.383Z" fill="#5a7ca1"/>
  </g>
</svg>
