<svg xmlns="http://www.w3.org/2000/svg" width="51.13" height="49.467" viewBox="0 0 51.13 49.467">
  <g id="Group_109" data-name="Group 109" transform="translate(-67.111 -91)">
    <g id="Group_188" data-name="Group 188" transform="translate(67.111 91)">
      <path id="Path_176" data-name="Path 176" d="M8.15,37A6.278,6.278,0,0,1,4,31.13V7.26A6.313,6.313,0,0,1,10.37,1H20.63A6.313,6.313,0,0,1,27,7.26V22.9" fill="none" stroke="#5a7ca1" stroke-linecap="round" stroke-linejoin="round" stroke-miterlimit="10" stroke-width="2"/>
      <path id="Path_177" data-name="Path 177" d="M21.67,20H9.33A1.336,1.336,0,0,1,8,18.67V12.34A1.338,1.338,0,0,1,9.33,11H21.66A1.338,1.338,0,0,1,23,12.33v6.33A1.338,1.338,0,0,1,21.67,20Z" fill="none" stroke="#5a7ca1" stroke-linecap="round" stroke-linejoin="round" stroke-miterlimit="10" stroke-width="2"/>
      <path id="Path_178" data-name="Path 178" d="M27,11h.95A1.852,1.852,0,0,1,30,12.55v8.9A1.852,1.852,0,0,1,27.95,23H27" fill="none" stroke="#5a7ca1" stroke-linecap="round" stroke-linejoin="round" stroke-miterlimit="10" stroke-width="2"/>
      <path id="Path_179" data-name="Path 179" d="M4,23H3.05A1.852,1.852,0,0,1,1,21.45v-8.9A1.852,1.852,0,0,1,3.05,11H4" fill="none" stroke="#5a7ca1" stroke-linecap="round" stroke-linejoin="round" stroke-miterlimit="10" stroke-width="2"/>
      <path id="Path_180" data-name="Path 180" d="M6,48.25,2.23,44.48a.754.754,0,0,1,0-1.06L18.42,27.23a.754.754,0,0,1,1.06,0L23.25,31a.754.754,0,0,1,0,1.06L7.06,48.25A.754.754,0,0,1,6,48.25Z" fill="none" stroke="#5a7ca1" stroke-linecap="round" stroke-linejoin="round" stroke-miterlimit="10" stroke-width="2"/>
      <rect id="Rectangle_189" data-name="Rectangle 189" width="3.19" height="9.72" transform="translate(19.937 35.391) rotate(45.057)" stroke-width="2" stroke="#5a7ca1" stroke-linecap="round" stroke-linejoin="round" stroke-miterlimit="10" fill="none"/>
      <rect id="Rectangle_190" data-name="Rectangle 190" width="3.19" height="5.14" transform="translate(21.065 38.768) rotate(45.057)" stroke-width="2" stroke="#5a7ca1" stroke-linecap="round" stroke-linejoin="round" stroke-miterlimit="10" fill="none"/>
      <path id="Path_181" data-name="Path 181" d="M22.25,30.01l-1.79-1.79,3.88-3.88a3.807,3.807,0,0,1,2.69-1.11h5.36v2.53H27.03a1.263,1.263,0,0,0-.9.37Z" fill="none" stroke="#5a7ca1" stroke-linecap="round" stroke-linejoin="round" stroke-miterlimit="10" stroke-width="2"/>
      <path id="Path_182" data-name="Path 182" d="M32.39,26.62V22.37h5.12a.739.739,0,0,1,.64.37L39.2,24.5l-1.05,1.76a.751.751,0,0,1-.64.37H32.39Z" fill="none" stroke="#5a7ca1" stroke-linecap="round" stroke-linejoin="round" stroke-miterlimit="10" stroke-width="2"/>
      <line id="Line_36" data-name="Line 36" x2="5.64" transform="translate(44.49 24.5)" fill="none" stroke="#5a7ca1" stroke-linecap="round" stroke-linejoin="round" stroke-miterlimit="10" stroke-width="2"/>
      <line id="Line_37" data-name="Line 37" x2="3.98" y2="3.98" transform="translate(42.5 27.8)" fill="none" stroke="#5a7ca1" stroke-linecap="round" stroke-linejoin="round" stroke-miterlimit="10" stroke-width="2"/>
      <line id="Line_38" data-name="Line 38" y1="3.99" x2="3.98" transform="translate(42.5 17.21)" fill="none" stroke="#5a7ca1" stroke-linecap="round" stroke-linejoin="round" stroke-miterlimit="10" stroke-width="2"/>
      <line id="Line_39" data-name="Line 39" y1="8.52" x2="8.51" transform="translate(13.04 11.11)" fill="none" stroke="#5a7ca1" stroke-linecap="round" stroke-linejoin="round" stroke-miterlimit="10" stroke-width="2"/>
      <line id="Line_40" data-name="Line 40" y1="3.99" x2="3.99" transform="translate(13.04 11.08)" fill="none" stroke="#5a7ca1" stroke-linecap="round" stroke-linejoin="round" stroke-miterlimit="10" stroke-width="2"/>
      <line id="Line_41" data-name="Line 41" x2="1.47" transform="translate(39.2 24.5)" fill="none" stroke="#5a7ca1" stroke-linecap="round" stroke-linejoin="round" stroke-miterlimit="10" stroke-width="2"/>
      <path id="Path_183" data-name="Path 183" d="M22.06,37.56a6.242,6.242,0,0,0,4.75-6.06V25.79" fill="none" stroke="#5a7ca1" stroke-linecap="round" stroke-linejoin="round" stroke-miterlimit="10" stroke-width="2"/>
      <line id="Line_42" data-name="Line 42" y1="13.34" x2="13.34" transform="translate(5.64 30.6)" fill="none" stroke="#5a7ca1" stroke-linecap="round" stroke-linejoin="round" stroke-miterlimit="10" stroke-width="2"/>
    </g>
  </g>
</svg>
