<svg id="Group_187" data-name="Group 187" xmlns="http://www.w3.org/2000/svg" width="41" height="51.69" viewBox="0 0 41 51.69">
  <path id="Path_172" data-name="Path 172" d="M17.5,23.5h6v5.42a.917.917,0,0,1-.52.79L20.5,31l-2.48-1.29a.917.917,0,0,1-.52-.79Z" fill="none" stroke="#fff" stroke-linecap="round" stroke-linejoin="round" stroke-miterlimit="10" stroke-width="2"/>
  <line id="Line_31" data-name="Line 31" y2="1.89" transform="translate(20.62 31.38)" fill="none" stroke="#fff" stroke-linecap="round" stroke-linejoin="round" stroke-miterlimit="10" stroke-width="2"/>
  <path id="Path_173" data-name="Path 173" d="M20.93,37.91l-.79.7a.974.974,0,0,0-.04,1.42l3.33,3.34a.978.978,0,0,1,0,1.38l-5.91,5.94" fill="none" stroke="#fff" stroke-linecap="round" stroke-linejoin="round" stroke-miterlimit="10" stroke-width="2"/>
  <path id="Path_174" data-name="Path 174" d="M8.5,11.5h24V22.02a1.477,1.477,0,0,1-1.48,1.48H9.98A1.477,1.477,0,0,1,8.5,22.02Z" fill="none" stroke="#fff" stroke-linecap="round" stroke-linejoin="round" stroke-miterlimit="10" stroke-width="2"/>
  <rect id="Rectangle_187" data-name="Rectangle 187" width="27" height="4.5" transform="translate(7 7)" stroke-width="2" stroke="#fff" stroke-linecap="round" stroke-linejoin="round" stroke-miterlimit="10" fill="none"/>
  <rect id="Rectangle_188" data-name="Rectangle 188" width="27" height="6" transform="translate(7 1)" stroke-width="2" stroke="#fff" stroke-linecap="round" stroke-linejoin="round" stroke-miterlimit="10" fill="none"/>
  <circle id="Ellipse_19" data-name="Ellipse 19" cx="1.5" cy="1.5" r="1.5" transform="translate(25 16)" stroke-width="2" stroke="#fff" stroke-linecap="round" stroke-linejoin="round" stroke-miterlimit="10" fill="none"/>
  <circle id="Ellipse_20" data-name="Ellipse 20" cx="1.5" cy="1.5" r="1.5" transform="translate(13 16)" stroke-width="2" stroke="#fff" stroke-linecap="round" stroke-linejoin="round" stroke-miterlimit="10" fill="none"/>
  <line id="Line_32" data-name="Line 32" x2="3.33" y2="3.34" transform="translate(11.86 30.27)" fill="none" stroke="#fff" stroke-linecap="round" stroke-linejoin="round" stroke-miterlimit="10" stroke-width="2"/>
  <line id="Line_33" data-name="Line 33" x1="3.33" y2="3.34" transform="translate(26.61 30.27)" fill="none" stroke="#fff" stroke-linecap="round" stroke-linejoin="round" stroke-miterlimit="10" stroke-width="2"/>
  <line id="Line_34" data-name="Line 34" x2="6.17" transform="translate(8.33 38.31)" fill="none" stroke="#fff" stroke-linecap="round" stroke-linejoin="round" stroke-miterlimit="10" stroke-width="2"/>
  <line id="Line_35" data-name="Line 35" x2="6.17" transform="translate(26.65 38.31)" fill="none" stroke="#fff" stroke-linecap="round" stroke-linejoin="round" stroke-miterlimit="10" stroke-width="2"/>
  <path id="Path_175" data-name="Path 175" d="M40,7V1H1V7" fill="none" stroke="#fff" stroke-linecap="round" stroke-linejoin="round" stroke-miterlimit="10" stroke-width="2"/>
</svg>
