<svg xmlns="http://www.w3.org/2000/svg" width="41.93" height="39.73" viewBox="0 0 41.93 39.73">
  <g id="Group_184" data-name="Group 184" transform="translate(-74 19)">
    <g id="Group_190" data-name="Group 190" transform="translate(74 -19)">
      <line id="Line_46" data-name="Line 46" x1="39.93" transform="translate(1 1)" fill="none" stroke="#5a7ca1" stroke-linecap="round" stroke-linejoin="round" stroke-miterlimit="10" stroke-width="2"/>
      <path id="Path_189" data-name="Path 189" d="M7.02,34.91V29.43H9.11a.965.965,0,0,1,.83.47l1.35,2.27L9.94,34.44a.965.965,0,0,1-.83.47Z" fill="none" stroke="#5a7ca1" stroke-linecap="round" stroke-linejoin="round" stroke-miterlimit="10" stroke-width="2"/>
      <path id="Path_190" data-name="Path 190" d="M2.36,38.73V25.7H5.52a1.5,1.5,0,0,1,1.5,1.5V37.22a1.5,1.5,0,0,1-1.5,1.5H2.36Z" fill="none" stroke="#5a7ca1" stroke-linecap="round" stroke-linejoin="round" stroke-miterlimit="10" stroke-width="2"/>
      <path id="Path_191" data-name="Path 191" d="M34.93,34.91V29.43H32.84a.965.965,0,0,0-.83.47l-1.35,2.27,1.35,2.27a.965.965,0,0,0,.83.47Z" fill="none" stroke="#5a7ca1" stroke-linecap="round" stroke-linejoin="round" stroke-miterlimit="10" stroke-width="2"/>
      <path id="Path_192" data-name="Path 192" d="M39.59,38.73V25.7H36.43a1.5,1.5,0,0,0-1.5,1.5V37.22a1.5,1.5,0,0,0,1.5,1.5h3.16Z" fill="none" stroke="#5a7ca1" stroke-linecap="round" stroke-linejoin="round" stroke-miterlimit="10" stroke-width="2"/>
      <path id="Path_193" data-name="Path 193" d="M6.74,10.97H33.8l-2.25,2.75H8.99Z" fill="none" stroke="#5a7ca1" stroke-linecap="round" stroke-linejoin="round" stroke-miterlimit="10" stroke-width="2"/>
      <rect id="Rectangle_192" data-name="Rectangle 192" width="27.06" height="9.97" transform="translate(6.74 1)" stroke-width="2" stroke="#5a7ca1" stroke-linecap="round" stroke-linejoin="round" stroke-miterlimit="10" fill="none"/>
      <path id="Path_194" data-name="Path 194" d="M25.93,18.78l-5.66,5.65-5.65-5.65V13.72H25.93Z" fill="none" stroke="#5a7ca1" stroke-linecap="round" stroke-linejoin="round" stroke-miterlimit="10" stroke-width="2"/>
      <line id="Line_47" data-name="Line 47" y2="2.55" transform="translate(20.27 24.43)" fill="none" stroke="#5a7ca1" stroke-linecap="round" stroke-linejoin="round" stroke-miterlimit="10" stroke-width="2"/>
      <rect id="Rectangle_193" data-name="Rectangle 193" width="7.03" height="6.67" transform="translate(11.73 28.84)" stroke-width="2" stroke="#5a7ca1" stroke-linecap="round" stroke-linejoin="round" stroke-miterlimit="10" fill="none"/>
      <rect id="Rectangle_194" data-name="Rectangle 194" width="11.57" height="3.76" transform="translate(18.77 30.29)" stroke-width="2" stroke="#5a7ca1" stroke-linecap="round" stroke-linejoin="round" stroke-miterlimit="10" fill="none"/>
      <line id="Line_48" data-name="Line 48" x2="2.31" y2="2.31" transform="translate(12.33 22.78)" fill="none" stroke="#5a7ca1" stroke-linecap="round" stroke-linejoin="round" stroke-miterlimit="10" stroke-width="2"/>
      <line id="Line_49" data-name="Line 49" x1="2.43" y2="2.43" transform="translate(24.85 23.94)" fill="none" stroke="#5a7ca1" stroke-linecap="round" stroke-linejoin="round" stroke-miterlimit="10" stroke-width="2"/>
    </g>
  </g>
</svg>
