<svg xmlns="http://www.w3.org/2000/svg" width="91.773" height="58.712" viewBox="0 0 91.773 58.712">
  <g id="Group_26" data-name="Group 26" transform="translate(0 0)">
    <path id="Path_56" data-name="Path 56" d="M327.363,6.731V9.6h-3.511V6.731H321.2V2.922h2.652V0h3.511V2.922h2.716V6.731h-2.716" transform="translate(-280.048)" fill="#002c3e"/>
    <path id="Path_57" data-name="Path 57" d="M187.31,69.534a5.29,5.29,0,0,1,1.858,2.008,5.961,5.961,0,0,1,.679,2.742,5.806,5.806,0,0,1-.679,2.742,5.291,5.291,0,0,1-1.858,2.008,4.89,4.89,0,0,1-2.537.734,4.764,4.764,0,0,1-2.537-.734,5.29,5.29,0,0,1-1.858-2.008,5.961,5.961,0,0,1-.679-2.742,5.806,5.806,0,0,1,.679-2.742,5.291,5.291,0,0,1,1.858-2.008,4.89,4.89,0,0,1,2.537-.734,4.764,4.764,0,0,1,2.537.734" transform="translate(-156.677 -59.271)" fill="#002c3e"/>
    <path id="Path_58" data-name="Path 58" d="M277.21,69.534a5.29,5.29,0,0,1,1.858,2.008,5.96,5.96,0,0,1,.679,2.742,5.806,5.806,0,0,1-.679,2.742,5.291,5.291,0,0,1-1.858,2.008,4.89,4.89,0,0,1-2.537.734,4.764,4.764,0,0,1-2.537-.734,5.291,5.291,0,0,1-1.858-2.008,5.961,5.961,0,0,1-.679-2.742,5.806,5.806,0,0,1,.679-2.742,5.291,5.291,0,0,1,1.858-2.008,4.89,4.89,0,0,1,2.537-.734,4.7,4.7,0,0,1,2.537.734" transform="translate(-235.059 -59.271)" fill="#002c3e"/>
    <path id="Path_59" data-name="Path 59" d="M367.21,69.534a5.29,5.29,0,0,1,1.858,2.008,5.96,5.96,0,0,1,.679,2.742,5.806,5.806,0,0,1-.679,2.742,5.291,5.291,0,0,1-1.858,2.008,4.89,4.89,0,0,1-2.537.734,4.764,4.764,0,0,1-2.537-.734,5.29,5.29,0,0,1-1.858-2.008,5.961,5.961,0,0,1-.679-2.742,5.806,5.806,0,0,1,.679-2.742,5.291,5.291,0,0,1,1.858-2.008,4.89,4.89,0,0,1,2.537-.734,4.764,4.764,0,0,1,2.537.734" transform="translate(-313.528 -59.271)" fill="#002c3e"/>
    <path id="Path_60" data-name="Path 60" d="M457.11,69.534a5.29,5.29,0,0,1,1.858,2.008,5.961,5.961,0,0,1,.679,2.742,5.806,5.806,0,0,1-.679,2.742,5.291,5.291,0,0,1-1.858,2.008,4.89,4.89,0,0,1-2.537.734,4.764,4.764,0,0,1-2.537-.734,5.29,5.29,0,0,1-1.858-2.008,5.961,5.961,0,0,1-.679-2.742,5.807,5.807,0,0,1,.679-2.742,5.291,5.291,0,0,1,1.858-2.008,4.89,4.89,0,0,1,2.537-.734,4.7,4.7,0,0,1,2.537.734" transform="translate(-391.91 -59.271)" fill="#002c3e"/>
    <path id="Path_61" data-name="Path 61" d="M255.2,161.527V155.1H220.7v6.427h34.5" transform="translate(-192.424 -133.618)" fill="#002c3e"/>
    <path id="Path_62" data-name="Path 62" d="M0,243.8H8.8v8.518l7.559-8.518h9.327L15.567,255.227,27.7,268.745H16.182L8.8,260.282v8.463H0V243.8" transform="translate(0 -210.033)" fill="#002c3e"/>
    <path id="Path_63" data-name="Path 63" d="M222.3,243.8h8.8v18.006h13.876v6.939H222.3V243.8" transform="translate(-193.819 -210.033)" fill="#002c3e"/>
    <path id="Path_64" data-name="Path 64" d="M417.9,243.8h14.926l4.19,13.019,4.19-13.019h14.926v24.945h-8.8V250.587l-5.842,18.158h-8.93L426.7,250.587v18.158h-8.8V243.8" transform="translate(-364.358 -210.033)" fill="#002c3e"/>
  </g>
</svg>
