<svg xmlns="http://www.w3.org/2000/svg" width="110.104" height="45.587" viewBox="0 0 110.104 45.587">
  <g id="Group_30" data-name="Group 30" transform="translate(0 0)">
    <g id="Group_27" data-name="Group 27">
      <path id="Path_65" data-name="Path 65" d="M1.783,39.419H0V6.04A5.82,5.82,0,0,1,5.587,0H110.074V1.928H5.587a3.955,3.955,0,0,0-3.8,4.112Z" fill="#002c3e"/>
    </g>
    <g id="Group_28" data-name="Group 28" transform="translate(102.14 32.319)">
      <path id="Path_66" data-name="Path 66" d="M346.077,113.258H343.7V111.33h2.377a3.974,3.974,0,0,0,3.8-4.112V100.6h1.783v6.618A5.859,5.859,0,0,1,346.077,113.258Z" transform="translate(-343.7 -100.6)" fill="#002c3e"/>
    </g>
    <g id="Group_29" data-name="Group 29" transform="translate(0 43.049)">
      <rect id="Rectangle_29" data-name="Rectangle 29" width="94.502" height="1.928" fill="#002c3e"/>
    </g>
    <path id="Path_67" data-name="Path 67" d="M16.7,51.636h7.221A2.778,2.778,0,0,0,26.6,48.745V18H19.375A2.778,2.778,0,0,0,16.7,20.891Z" transform="translate(-11.737 -12.217)" fill="#002c3e"/>
    <path id="Path_68" data-name="Path 68" d="M282.216,35.252V34.8c0-8.9-2.585-16.8-13.462-16.8h-.892C256.956,18,254.4,25.935,254.4,34.8v.45c0,8.9,2.585,16.8,13.462,16.8h.892a16.756,16.756,0,0,0,3.239-.289c1.724,2.377,4.785,6.04,7.043,6.04V52.022l-2.2-2.217C281.027,46.881,282.216,41.291,282.216,35.252Zm-9.569,9.7a2.354,2.354,0,0,1-2.259,2.442H264V24.682a2.354,2.354,0,0,1,2.259-2.442h6.389Z" transform="translate(-178.798 -12.217)" fill="#002c3e"/>
    <path id="Path_69" data-name="Path 69" d="M182.566,49.162a2.131,2.131,0,0,0,.03-.45V34.866h8.41V32.392H182.6V20.57h10.1V18.1H182.6V18h-7.221a2.778,2.778,0,0,0-2.675,2.891V51.6h18.128a2.387,2.387,0,0,0,2.288-2.474h-10.55Z" transform="translate(-121.378 -12.217)" fill="#002c3e"/>
    <path id="Path_70" data-name="Path 70" d="M94.36,18.1H86.128V18H78.906a2.723,2.723,0,0,0-.713.1H68a2.388,2.388,0,0,0,2.288,2.474h5.973c0,.1-.03.225-.03.321V51.6h7.221a2.778,2.778,0,0,0,2.675-2.891V20.57H94.36Z" transform="translate(-47.792 -12.217)" fill="#002c3e"/>
  </g>
</svg>
