<svg id="Group_73" data-name="Group 73" xmlns="http://www.w3.org/2000/svg" xmlns:xlink="http://www.w3.org/1999/xlink" width="160.467" height="43.879" viewBox="0 0 160.467 43.879">
  <defs>
    <clipPath id="clip-path">
      <path id="Path_9" data-name="Path 9" d="M0-88.241H160.467V-132.12H0Z" transform="translate(0 132.12)" fill="none"/>
    </clipPath>
    <clipPath id="clip-path-2">
      <path id="Path_11" data-name="Path 11" d="M68.984-110.247h0v16.971h8.4c-.012,5.009-3.632,8.617-8.4,9.351h0v3.419h0c6.789-.76,12.032-5.762,12.032-12.793h-.007v-16.948Zm2.372,5.772a1.751,1.751,0,0,1,1.751-1.752h0a1.752,1.752,0,0,1,1.752,1.752h0a1.752,1.752,0,0,1-1.752,1.751h0a1.751,1.751,0,0,1-1.751-1.751" transform="translate(-68.984 110.247)" fill="none"/>
    </clipPath>
    <linearGradient id="linear-gradient" x1="0.003" y1="0.773" x2="0.586" y2="0.773" gradientUnits="objectBoundingBox">
      <stop offset="0" stop-color="#70d2c7"/>
      <stop offset="0.1" stop-color="#70d2c7"/>
      <stop offset="0.2" stop-color="#70d2c7"/>
      <stop offset="0.3" stop-color="#7bd1a9"/>
      <stop offset="0.4" stop-color="#8acf7d"/>
      <stop offset="0.5" stop-color="#99ce51"/>
      <stop offset="0.6" stop-color="#9dcd44"/>
      <stop offset="0.7" stop-color="#9dcd44"/>
      <stop offset="0.8" stop-color="#9dcd44"/>
      <stop offset="0.9" stop-color="#9dcd44"/>
      <stop offset="1" stop-color="#9dcd44"/>
    </linearGradient>
    <clipPath id="clip-path-3">
      <path id="Path_13" data-name="Path 13" d="M0-132.12s0,3.66,0,8.232H0v5.069c0,4.326,0,8.609.007,10.928h0C.007-96.28,9.38-88.3,20.975-88.241h.24C32.81-88.3,42.19-96.28,42.19-107.89h0c.012-5.857.005-24.23.005-24.23H0Zm3.63,3.632H38.565s.006,16.521,0,20.6h0c0,9.65-7.819,16.275-17.468,16.275h0c-9.649,0-17.46-6.625-17.46-16.275h0c-.008-4.077,0-20.6,0-20.6" transform="translate(0 132.12)" fill="none"/>
    </clipPath>
    <linearGradient id="linear-gradient-2" x1="0.003" y1="0.79" x2="0.586" y2="0.79" xlink:href="#linear-gradient"/>
    <clipPath id="clip-path-4">
      <path id="Path_15" data-name="Path 15" d="M21.844-110.247v16.971h0c.012,7.018,5.245,12.009,12.024,12.769h0v-3.419c-4.765-.735-8.381-4.342-8.392-9.35h8.392v-16.971Zm6.15,5.772a1.752,1.752,0,0,1,1.751-1.752h0a1.752,1.752,0,0,1,1.752,1.752h0a1.752,1.752,0,0,1-1.752,1.751h0a1.752,1.752,0,0,1-1.751-1.751" transform="translate(-21.844 110.247)" fill="none"/>
    </clipPath>
    <linearGradient id="linear-gradient-3" x1="0.003" y1="0.84" x2="0.586" y2="0.84" xlink:href="#linear-gradient"/>
  </defs>
  <g id="Group_9" data-name="Group 9" transform="translate(0 0)" clip-path="url(#clip-path)">
    <g id="Group_1" data-name="Group 1" transform="translate(50.812 12.327)">
      <path id="Path_1" data-name="Path 1" d="M-13.949-6.535c-1.857,0-3.359,1.393-3.359,3.768s1.5,3.8,3.359,3.8,3.332-1.392,3.332-3.8c0-2.376-1.475-3.768-3.332-3.768M-20.885,9.14V-9.484h3.523v1.639a4.7,4.7,0,0,1,4.124-1.939c3.932,0,6.2,3,6.2,6.991,0,4.069-2.54,7.073-6.336,7.073A4.721,4.721,0,0,1-17.253,2.64v6.5Z" transform="translate(20.885 9.785)" fill="#181e51"/>
    </g>
    <g id="Group_2" data-name="Group 2" transform="translate(66.639 12.518)">
      <path id="Path_2" data-name="Path 2" d="M-16.475-7.468a5.462,5.462,0,0,0-1.093-.109c-1.857,0-3.468.9-3.468,3.8V2.363h-3.632V-11.073h3.523v1.994a4,4,0,0,1,3.823-2.1,8.2,8.2,0,0,1,.847.054Z" transform="translate(24.668 11.182)" fill="#181e51"/>
    </g>
    <g id="Group_3" data-name="Group 3" transform="translate(75.705 12.218)">
      <path id="Path_3" data-name="Path 3" d="M-19.441-11.258a2.7,2.7,0,0,0-3-2.649,2.906,2.906,0,0,0-3,2.649Zm3.386,4.4A6.052,6.052,0,0,1-22.172-2.6a6.806,6.806,0,0,1-6.936-7.182A6.745,6.745,0,0,1-22.5-16.856c4.151,0,6.636,2.649,6.636,6.963,0,.519-.055,1.065-.055,1.12h-9.612a3.273,3.273,0,0,0,3.387,3.058,2.967,2.967,0,0,0,3.058-2.048Z" transform="translate(29.108 16.856)" fill="#181e51"/>
    </g>
    <g id="Group_4" data-name="Group 4" transform="translate(89.331 12.628)">
      <path id="Path_4" data-name="Path 4" d="M-18.342-27.019h-3.632l-5.489-13.436h3.987l3.331,9.011,3.195-9.011h3.823Z" transform="translate(27.463 40.455)" fill="#181e51"/>
    </g>
    <g id="Group_5" data-name="Group 5" transform="translate(103.914 12.218)">
      <path id="Path_5" data-name="Path 5" d="M-19.44-11.258a2.7,2.7,0,0,0-3-2.649,2.907,2.907,0,0,0-3,2.649Zm3.386,4.4A6.052,6.052,0,0,1-22.171-2.6a6.806,6.806,0,0,1-6.936-7.182A6.745,6.745,0,0,1-22.5-16.856c4.151,0,6.636,2.649,6.636,6.963,0,.519-.055,1.065-.055,1.12H-25.53a3.273,3.273,0,0,0,3.387,3.058,2.967,2.967,0,0,0,3.058-2.048Z" transform="translate(29.107 16.856)" fill="#181e51"/>
    </g>
    <g id="Group_6" data-name="Group 6" transform="translate(119.478 12.272)">
      <path id="Path_6" data-name="Path 6" d="M-7.3-27.733h-3.632V-41.169h3.523V-39.5a4.465,4.465,0,0,1,3.878-2.021c3.332,0,4.861,2.376,4.861,5.325v8.466H-2.307v-7.838a2.362,2.362,0,0,0-2.485-2.676A2.529,2.529,0,0,0-7.3-35.462Z" transform="translate(10.937 41.524)" fill="#181e51"/>
    </g>
    <g id="Group_7" data-name="Group 7" transform="translate(133.951 12.628)">
      <path id="Path_7" data-name="Path 7" d="M0-27.019v-3.2l6.363-7.1H.164v-3.14H11.006v3.031L4.451-30.187h6.664v3.168Z" transform="translate(0 40.455)" fill="#181e51"/>
    </g>
    <g id="Group_8" data-name="Group 8" transform="translate(146.376 12.218)">
      <path id="Path_8" data-name="Path 8" d="M-21.033-14.333c0-2.539-1.639-3.823-3.413-3.823s-3.414,1.284-3.414,3.823c0,2.513,1.639,3.823,3.414,3.823s3.413-1.284,3.413-3.823m3.632,0a6.9,6.9,0,0,1-7.046,7.127,6.9,6.9,0,0,1-7.045-7.127,6.881,6.881,0,0,1,7.045-7.127A6.882,6.882,0,0,1-17.4-14.333" transform="translate(31.492 21.46)" fill="#181e51"/>
    </g>
  </g>
  <g id="Group_11" data-name="Group 11" transform="translate(22.911 7.264)" clip-path="url(#clip-path-2)">
    <g id="Group_10" data-name="Group 10" transform="matrix(0.541, 0.841, -0.841, 0.541, 90.548, -80.295)">
      <path id="Path_10" data-name="Path 10" d="M0,134.931,86.852,0l36.9,23.749L36.9,158.68Z" transform="translate(0 0)" fill="url(#linear-gradient)"/>
    </g>
  </g>
  <g id="Group_13" data-name="Group 13" transform="translate(0 0)" clip-path="url(#clip-path-3)">
    <g id="Group_12" data-name="Group 12" transform="matrix(0.541, 0.841, -0.841, 0.541, 113.459, -73.031)">
      <path id="Path_12" data-name="Path 12" d="M0,134.931,86.852,0l36.9,23.749L36.9,158.68Z" transform="translate(0 0)" fill="url(#linear-gradient-2)"/>
    </g>
  </g>
  <g id="Group_15" data-name="Group 15" transform="translate(7.255 7.264)" clip-path="url(#clip-path-4)">
    <g id="Group_14" data-name="Group 14" transform="matrix(0.541, 0.841, -0.841, 0.541, 106.204, -80.295)">
      <path id="Path_14" data-name="Path 14" d="M0,134.931,86.852,0l36.9,23.749L36.9,158.68Z" transform="translate(0 0)" fill="url(#linear-gradient-3)"/>
    </g>
  </g>
</svg>
