<svg id="Group_48" data-name="Group 48" xmlns="http://www.w3.org/2000/svg" xmlns:xlink="http://www.w3.org/1999/xlink" width="268.766" height="73.492" viewBox="0 0 268.766 73.492">
  <defs>
    <clipPath id="clip-path">
      <path id="Path_39" data-name="Path 39" d="M0-58.627H268.766V-132.12H0Z" transform="translate(0 132.12)" fill="none"/>
    </clipPath>
    <clipPath id="clip-path-2">
      <path id="Path_41" data-name="Path 41" d="M68.985-110.246h0v28.424H83.052c-.019,8.389-6.083,14.432-14.068,15.661h0v5.726h0c11.372-1.273,20.152-9.649,20.152-21.427h-.012v-28.385Zm3.972,9.667a2.933,2.933,0,0,1,2.933-2.934h0a2.934,2.934,0,0,1,2.934,2.934h0a2.934,2.934,0,0,1-2.934,2.933h0a2.933,2.933,0,0,1-2.933-2.933" transform="translate(-68.984 110.246)" fill="none"/>
    </clipPath>
    <linearGradient id="linear-gradient" x1="0.003" y1="0.773" x2="0.586" y2="0.773" gradientUnits="objectBoundingBox">
      <stop offset="0" stop-color="#70d2c7"/>
      <stop offset="0.1" stop-color="#70d2c7"/>
      <stop offset="0.2" stop-color="#70d2c7"/>
      <stop offset="0.3" stop-color="#7bd1a9"/>
      <stop offset="0.4" stop-color="#8acf7d"/>
      <stop offset="0.5" stop-color="#99ce51"/>
      <stop offset="0.6" stop-color="#9dcd44"/>
      <stop offset="0.7" stop-color="#9dcd44"/>
      <stop offset="0.8" stop-color="#9dcd44"/>
      <stop offset="0.9" stop-color="#9dcd44"/>
      <stop offset="1" stop-color="#9dcd44"/>
    </linearGradient>
    <clipPath id="clip-path-3">
      <path id="Path_43" data-name="Path 43" d="M0-132.12s0,6.129,0,13.788H0v8.491c0,7.246,0,14.419.012,18.3h0c0,19.446,15.7,32.819,35.119,32.91h.4c19.421-.091,35.131-13.464,35.131-32.91h0c.019-9.811.009-40.583.009-40.583H0Zm6.08,6.084H64.593s.01,27.671,0,34.5h0c0,16.163-13.1,27.258-29.257,27.258h0c-16.161,0-29.244-11.1-29.244-27.258h0c-.014-6.828,0-34.5,0-34.5" transform="translate(0 132.12)" fill="none"/>
    </clipPath>
    <linearGradient id="linear-gradient-2" x1="0.003" y1="0.79" x2="0.586" y2="0.79" xlink:href="#linear-gradient"/>
    <clipPath id="clip-path-4">
      <path id="Path_45" data-name="Path 45" d="M21.845-110.246h0v28.424h0c.019,11.755,8.784,20.115,20.139,21.387h0v-5.727C34-67.393,27.946-73.435,27.928-81.822H41.983v-28.424Zm10.3,9.667a2.934,2.934,0,0,1,2.933-2.934h0a2.934,2.934,0,0,1,2.934,2.934h0a2.934,2.934,0,0,1-2.934,2.933h0a2.934,2.934,0,0,1-2.933-2.933" transform="translate(-21.844 110.246)" fill="none"/>
    </clipPath>
    <linearGradient id="linear-gradient-3" x1="0.003" y1="0.84" x2="0.586" y2="0.84" xlink:href="#linear-gradient"/>
  </defs>
  <g id="Group_41" data-name="Group 41" transform="translate(0 0)" clip-path="url(#clip-path)">
    <g id="Group_33" data-name="Group 33" transform="translate(85.105 20.646)">
      <path id="Path_31" data-name="Path 31" d="M-9.268-4.342c-3.11,0-5.626,2.332-5.626,6.312s2.516,6.357,5.626,6.357S-3.687,6-3.687,1.97c0-3.979-2.47-6.312-5.58-6.312M-20.885,21.912V-9.282h5.9v2.745c1.006-1.739,3.522-3.248,6.907-3.248C-1.492-9.785,2.3-4.754,2.3,1.924c0,6.815-4.254,11.847-10.612,11.847-3.11,0-5.4-1.235-6.495-2.745V21.912Z" transform="translate(20.885 9.785)" fill="#2a1a46"/>
    </g>
    <g id="Group_34" data-name="Group 34" transform="translate(111.614 20.967)">
      <path id="Path_32" data-name="Path 32" d="M-10.946-4.962a9.149,9.149,0,0,0-1.83-.182c-3.109,0-5.809,1.509-5.809,6.357V11.5h-6.083V-11h5.9V-7.66c1.372-2.973,4.482-3.522,6.4-3.522a13.735,13.735,0,0,1,1.418.091Z" transform="translate(24.668 11.182)" fill="#2a1a46"/>
    </g>
    <g id="Group_35" data-name="Group 35" transform="translate(126.798 20.464)">
      <path id="Path_33" data-name="Path 33" d="M-12.916-7.48c-.091-2.241-1.555-4.437-5.031-4.437A4.868,4.868,0,0,0-22.979-7.48ZM-7.245-.115C-8.389,3.772-11.956,7.02-17.491,7.02c-6.174,0-11.617-4.437-11.617-12.03,0-7.181,5.306-11.846,11.069-11.846,6.953,0,11.115,4.437,11.115,11.663,0,.869-.092,1.784-.092,1.876h-16.1a5.482,5.482,0,0,0,5.672,5.123,4.969,4.969,0,0,0,5.123-3.43Z" transform="translate(29.108 16.856)" fill="#2a1a46"/>
    </g>
    <g id="Group_36" data-name="Group 36" transform="translate(149.62 21.15)">
      <path id="Path_34" data-name="Path 34" d="M-12.187-17.952H-18.27l-9.193-22.5h6.678l5.579,15.093,5.351-15.093h6.4Z" transform="translate(27.463 40.455)" fill="#2a1a46"/>
    </g>
    <g id="Group_37" data-name="Group 37" transform="translate(174.044 20.464)">
      <path id="Path_35" data-name="Path 35" d="M-12.916-7.48c-.091-2.241-1.555-4.437-5.031-4.437A4.869,4.869,0,0,0-22.978-7.48ZM-7.244-.115C-8.388,3.772-11.955,7.02-17.49,7.02c-6.174,0-11.617-4.437-11.617-12.03,0-7.181,5.305-11.846,11.068-11.846,6.953,0,11.115,4.437,11.115,11.663,0,.869-.092,1.784-.092,1.876h-16.1a5.482,5.482,0,0,0,5.672,5.123,4.969,4.969,0,0,0,5.123-3.43Z" transform="translate(29.107 16.856)" fill="#2a1a46"/>
    </g>
    <g id="Group_38" data-name="Group 38" transform="translate(200.113 20.555)">
      <path id="Path_36" data-name="Path 36" d="M-4.853-18.426h-6.084v-22.5h5.9v2.79a7.478,7.478,0,0,1,6.5-3.384c5.58,0,8.141,3.979,8.141,8.919v14.179H3.517V-31.553c0-2.515-1.235-4.482-4.162-4.482-2.653,0-4.208,2.058-4.208,4.665Z" transform="translate(10.937 41.524)" fill="#2a1a46"/>
    </g>
    <g id="Group_39" data-name="Group 39" transform="translate(224.354 21.15)">
      <path id="Path_37" data-name="Path 37" d="M0-17.952V-23.3L10.657-35.2H.275v-5.259H18.433v5.077L7.456-23.257H18.616v5.306Z" transform="translate(0 40.455)" fill="#2a1a46"/>
    </g>
    <g id="Group_40" data-name="Group 40" transform="translate(245.164 20.464)">
      <path id="Path_38" data-name="Path 38" d="M-13.974-9.523c0-4.253-2.745-6.4-5.717-6.4s-5.718,2.15-5.718,6.4c0,4.209,2.745,6.4,5.718,6.4s5.717-2.15,5.717-6.4m6.084,0a11.553,11.553,0,0,1-11.8,11.938,11.552,11.552,0,0,1-11.8-11.938,11.525,11.525,0,0,1,11.8-11.937A11.526,11.526,0,0,1-7.891-9.523" transform="translate(31.492 21.46)" fill="#2a1a46"/>
    </g>
  </g>
  <g id="Group_43" data-name="Group 43" transform="translate(38.373 12.168)" clip-path="url(#clip-path-2)">
    <g id="Group_42" data-name="Group 42" transform="matrix(0.541, 0.841, -0.841, 0.541, 151.659, -134.486)">
      <path id="Path_40" data-name="Path 40" d="M0,226,145.468,0l61.8,39.778L61.8,265.773Z" transform="translate(0)" fill="url(#linear-gradient)"/>
    </g>
  </g>
  <g id="Group_45" data-name="Group 45" transform="translate(0 0)" clip-path="url(#clip-path-3)">
    <g id="Group_44" data-name="Group 44" transform="matrix(0.541, 0.841, -0.841, 0.541, 190.031, -122.319)">
      <path id="Path_42" data-name="Path 42" d="M0,226,145.468,0l61.8,39.778L61.8,265.773Z" transform="translate(0)" fill="url(#linear-gradient-2)"/>
    </g>
  </g>
  <g id="Group_47" data-name="Group 47" transform="translate(12.151 12.168)" clip-path="url(#clip-path-4)">
    <g id="Group_46" data-name="Group 46" transform="matrix(0.541, 0.841, -0.841, 0.541, 177.881, -134.486)">
      <path id="Path_44" data-name="Path 44" d="M0,226,145.468,0l61.8,39.778L61.8,265.773Z" transform="translate(0 0)" fill="url(#linear-gradient-3)"/>
    </g>
  </g>
</svg>
