<?xml version="1.0" encoding="utf-8"?>
<!-- Generator: Adobe Illustrator 21.1.0, SVG Export Plug-In . SVG Version: 6.00 Build 0)  -->
<svg version="1.1" id="Layer_1" xmlns="http://www.w3.org/2000/svg" xmlns:xlink="http://www.w3.org/1999/xlink" x="0px" y="0px"
	 viewBox="0 0 34 24" style="enable-background:new 0 0 34 24;" xml:space="preserve">
<style type="text/css">
	.st0{clip-path:url(#SVGID_2_);}
	.st1{clip-path:url(#SVGID_4_);}
	.st2{clip-path:url(#SVGID_6_);}
	.st3{clip-path:url(#SVGID_8_);}
	.st4{clip-path:url(#SVGID_10_);}
	.st5{clip-path:url(#SVGID_12_);}
	.st6{clip-path:url(#SVGID_14_);}
	.st7{clip-path:url(#SVGID_16_);}
	.st8{clip-path:url(#SVGID_18_);}
	.st9{clip-path:url(#SVGID_20_);}
	.st10{clip-path:url(#SVGID_22_);}
	.st11{clip-path:url(#SVGID_24_);}
</style>
<g>
	<g>
		<defs>
			<path id="SVGID_1_" d="M26.4,13.1c-0.1,0.2-0.2,0.4-0.3,0.6c-0.2-0.3-0.5-0.6-0.7-0.8c-1.1-1.2-2.7-1.9-4.5-1.9
				c-0.2,0-0.4,0-0.6,0c-0.3-0.7-0.7-1.3-1.2-1.9c0.3-0.5,0.8-0.9,1.3-1.3c0.6-0.4,1.4-0.6,2.2-0.6c1.1,0,2.2,0.5,3,1.2
				c0.8,0.8,1.2,1.8,1.2,3C26.7,12,26.6,12.6,26.4,13.1z M24.2,21c-0.9,0.9-2.1,1.4-3.4,1.4h-15c-1.1-0.1-2.1-0.6-2.9-1.3
				c-0.7-0.7-1.2-1.8-1.2-2.9c0-1.1,0.5-2.2,1.2-2.9c0.7-0.7,1.7-1.2,2.9-1.2c0.1,0,0.3,0,0.4-0.1c0.2-0.1,0.3-0.3,0.3-0.5
				c0.2-1.6,1.1-3,2.2-4c1.1-1,2.7-1.6,4.3-1.6c1.4,0,2.7,0.4,3.7,1.2c0.8,0.6,1.6,1.4,2.1,2.3c-0.2,0.1-0.3,0.1-0.5,0.2
				c-0.8,0.4-1.6,0.9-2.2,1.6c-0.3,0.3-0.2,0.8,0.1,1.1c0.3,0.3,0.8,0.2,1.1-0.1c0.5-0.5,1-0.9,1.6-1.2c0.6-0.3,1.3-0.4,2-0.4
				c1.3,0,2.6,0.5,3.4,1.4c0.9,0.9,1.4,2.1,1.4,3.5C25.6,18.9,25.1,20.1,24.2,21z M28.2,11.5c0-1.6-0.6-3-1.7-4.1
				c-1-1-2.5-1.7-4-1.7c-1.1,0-2.1,0.3-3,0.8c-0.6,0.4-1.2,0.9-1.7,1.5c-0.1-0.1-0.3-0.2-0.4-0.3c-1.3-0.9-2.9-1.5-4.6-1.5
				c-2,0-3.9,0.7-5.3,2C6.4,9.4,5.4,10.9,5,12.6c-1.3,0.2-2.4,0.7-3.3,1.6c-1,1-1.7,2.4-1.7,4c0,1.5,0.6,3,1.7,4c1,1,2.4,1.7,4,1.7
				h15.2c1.8,0,3.4-0.7,4.6-1.9c1.1-1.2,1.9-2.8,1.9-4.6c0-0.8-0.1-1.5-0.4-2.2c0.4-0.5,0.7-1,0.9-1.5C28.1,13,28.2,12.2,28.2,11.5z
				"/>
		</defs>
		<clipPath id="SVGID_2_">
			<use xlink:href="#SVGID_1_"  style="overflow:visible;"/>
		</clipPath>
		<g class="st0">
			<defs>
				<rect id="SVGID_3_" x="-267" y="-1730.1" width="1920" height="2801"/>
			</defs>
			<clipPath id="SVGID_4_">
				<use xlink:href="#SVGID_3_"  style="overflow:visible;"/>
			</clipPath>
			<rect x="-5" y="0.7" class="st1" width="38.2" height="28.2"/>
		</g>
	</g>
	<g>
		<defs>
			<path id="SVGID_5_" d="M30.6,3.3c-0.3-0.3-0.8-0.3-1.1,0L27.9,5c-0.3,0.3-0.3,0.8,0,1.1c0.3,0.3,0.8,0.3,1.1,0l1.7-1.7
				C30.9,4.1,30.9,3.6,30.6,3.3z"/>
		</defs>
		<clipPath id="SVGID_6_">
			<use xlink:href="#SVGID_5_"  style="overflow:visible;"/>
		</clipPath>
		<g class="st2">
			<defs>
				<rect id="SVGID_7_" x="-267" y="-1730.1" width="1920" height="2801"/>
			</defs>
			<clipPath id="SVGID_8_">
				<use xlink:href="#SVGID_7_"  style="overflow:visible;"/>
			</clipPath>
			<rect x="22.7" y="-1.9" class="st3" width="13.2" height="13.2"/>
		</g>
	</g>
	<g>
		<defs>
			<path id="SVGID_9_" d="M22.6,0c-0.4,0-0.8,0.3-0.8,0.8v2.4c0,0.4,0.4,0.8,0.8,0.8c0.4,0,0.8-0.4,0.8-0.8V0.8
				C23.4,0.4,23,0,22.6,0z"/>
		</defs>
		<clipPath id="SVGID_10_">
			<use xlink:href="#SVGID_9_"  style="overflow:visible;"/>
		</clipPath>
		<g class="st4">
			<defs>
				<rect id="SVGID_11_" x="-267" y="-1730.1" width="1920" height="2801"/>
			</defs>
			<clipPath id="SVGID_12_">
				<use xlink:href="#SVGID_11_"  style="overflow:visible;"/>
			</clipPath>
			<rect x="16.8" y="-5" class="st5" width="11.6" height="13.9"/>
		</g>
	</g>
	<g>
		<defs>
			<path id="SVGID_13_" d="M17.2,5l-1.7-1.7c-0.3-0.3-0.8-0.3-1.1,0c-0.3,0.3-0.3,0.8,0,1.1l1.7,1.7c0.3,0.3,0.8,0.3,1.1,0
				C17.5,5.8,17.5,5.3,17.2,5z"/>
		</defs>
		<clipPath id="SVGID_14_">
			<use xlink:href="#SVGID_13_"  style="overflow:visible;"/>
		</clipPath>
		<g class="st6">
			<defs>
				<rect id="SVGID_15_" x="-267" y="-1730.1" width="1920" height="2801"/>
			</defs>
			<clipPath id="SVGID_16_">
				<use xlink:href="#SVGID_15_"  style="overflow:visible;"/>
			</clipPath>
			<rect x="9.3" y="-1.9" class="st7" width="13.2" height="13.2"/>
		</g>
	</g>
	<g>
		<defs>
			<path id="SVGID_17_" d="M33.2,10.7h-2.3c-0.4,0-0.8,0.4-0.8,0.8c0,0.4,0.4,0.8,0.8,0.8h2.3c0.4,0,0.8-0.4,0.8-0.8
				C34,11,33.6,10.7,33.2,10.7z"/>
		</defs>
		<clipPath id="SVGID_18_">
			<use xlink:href="#SVGID_17_"  style="overflow:visible;"/>
		</clipPath>
		<g class="st8">
			<defs>
				<rect id="SVGID_19_" x="-267" y="-1730.1" width="1920" height="2801"/>
			</defs>
			<clipPath id="SVGID_20_">
				<use xlink:href="#SVGID_19_"  style="overflow:visible;"/>
			</clipPath>
			<rect x="25.1" y="5.7" class="st9" width="13.9" height="11.6"/>
		</g>
	</g>
	<g>
		<defs>
			<path id="SVGID_21_" d="M30.6,18.5L29,16.8c-0.3-0.3-0.8-0.3-1.1,0c-0.3,0.3-0.3,0.8,0,1.1l1.7,1.7c0.3,0.3,0.8,0.3,1.1,0
				C30.9,19.3,30.9,18.8,30.6,18.5z"/>
		</defs>
		<clipPath id="SVGID_22_">
			<use xlink:href="#SVGID_21_"  style="overflow:visible;"/>
		</clipPath>
		<g class="st10">
			<defs>
				<rect id="SVGID_23_" x="-267" y="-1730.1" width="1920" height="2801"/>
			</defs>
			<clipPath id="SVGID_24_">
				<use xlink:href="#SVGID_23_"  style="overflow:visible;"/>
			</clipPath>
			<rect x="22.7" y="11.6" class="st11" width="13.2" height="13.2"/>
		</g>
	</g>
</g>
</svg>
