<?xml version="1.0" encoding="utf-8"?>
<!-- Generator: Adobe Illustrator 22.0.1, SVG Export Plug-In . SVG Version: 6.00 Build 0)  -->
<svg version="1.1" id="Layer_1" xmlns="http://www.w3.org/2000/svg" xmlns:xlink="http://www.w3.org/1999/xlink" x="0px" y="0px"
	 viewBox="0 0 103 98" style="enable-background:new 0 0 103 98;" xml:space="preserve">
<style type="text/css">
	.st0{clip-path:url(#SVGID_2_);}
	.st1{clip-path:url(#SVGID_4_);}
	.st2{clip-path:url(#SVGID_6_);}
	.st3{clip-path:url(#SVGID_8_);}
	.st4{clip-path:url(#SVGID_10_);}
	.st5{clip-path:url(#SVGID_12_);}
	.st6{clip-path:url(#SVGID_14_);}
	.st7{clip-path:url(#SVGID_16_);}
	.st8{clip-path:url(#SVGID_18_);}
	.st9{clip-path:url(#SVGID_20_);}
	.st10{clip-path:url(#SVGID_22_);}
	.st11{clip-path:url(#SVGID_24_);}
</style>
<g>
	<g>
		<defs>
			<path id="SVGID_1_" d="M67.5,0C66.2,0,65,1.3,65,2.7v7.5c0,1.5,1.2,2.7,2.5,2.7s2.5-1.3,2.5-2.7V2.7C70,1.3,68.8,0,67.5,0z"/>
		</defs>
		<clipPath id="SVGID_2_">
			<use xlink:href="#SVGID_1_"  style="overflow:visible;"/>
		</clipPath>
		<g class="st0">
			<defs>
				<rect id="SVGID_3_" x="-80" y="-1509" width="1920" height="2801"/>
			</defs>
			<clipPath id="SVGID_4_">
				<use xlink:href="#SVGID_3_"  style="overflow:visible;"/>
			</clipPath>
			<rect x="60" y="-5" class="st1" width="15" height="23"/>
		</g>
	</g>
	<g>
		<defs>
			<path id="SVGID_5_" d="M92.3,10.7c-1-1-2.6-1-3.6,0l-5,4.9c-1,1-1,2.6,0,3.6c1,1,2.6,1,3.6,0l5-4.9
				C93.2,13.3,93.2,11.7,92.3,10.7z"/>
		</defs>
		<clipPath id="SVGID_6_">
			<use xlink:href="#SVGID_5_"  style="overflow:visible;"/>
		</clipPath>
		<g class="st2">
			<defs>
				<rect id="SVGID_7_" x="-80" y="-1509" width="1920" height="2801"/>
			</defs>
			<clipPath id="SVGID_8_">
				<use xlink:href="#SVGID_7_"  style="overflow:visible;"/>
			</clipPath>
			<rect x="78" y="5" class="st3" width="20" height="20"/>
		</g>
	</g>
	<g>
		<defs>
			<path id="SVGID_9_" d="M51.3,15.7l-5-4.9c-1-1-2.6-1-3.6,0c-1,1-1,2.6,0,3.6l5,4.9c1,1,2.6,1,3.6,0
				C52.2,18.3,52.2,16.7,51.3,15.7z"/>
		</defs>
		<clipPath id="SVGID_10_">
			<use xlink:href="#SVGID_9_"  style="overflow:visible;"/>
		</clipPath>
		<g class="st4">
			<defs>
				<rect id="SVGID_11_" x="-80" y="-1509" width="1920" height="2801"/>
			</defs>
			<clipPath id="SVGID_12_">
				<use xlink:href="#SVGID_11_"  style="overflow:visible;"/>
			</clipPath>
			<rect x="37" y="5" class="st5" width="20" height="20"/>
		</g>
	</g>
	<g>
		<defs>
			<path id="SVGID_13_" d="M69.8,79.2c-2-2-4.7-3.2-7.7-3.2c-0.1,0-0.2,0-0.2,0H33.6c-1.4,0-2.6,1.1-2.6,2.6c0,1.4,1.1,2.6,2.6,2.6
				h28.2c0.1,0,0.1,0,0.2,0c1.6,0,3,0.6,4,1.7c1,1,1.7,2.5,1.7,4c0,1.6-0.6,3-1.7,4c-1,1-2.5,1.7-4,1.7c-1.6,0-3-0.6-4-1.7
				c-1-1-1.7-2.5-1.7-4c0-1.4-1.2-2.6-2.6-2.6c-1.4,0-2.6,1.2-2.6,2.6c0,3,1.2,5.8,3.2,7.8c2,2,4.7,3.2,7.7,3.2c3,0,5.7-1.2,7.7-3.2
				c2-2,3.2-4.7,3.2-7.8S71.8,81.2,69.8,79.2z"/>
		</defs>
		<clipPath id="SVGID_14_">
			<use xlink:href="#SVGID_13_"  style="overflow:visible;"/>
		</clipPath>
		<g class="st6">
			<defs>
				<rect id="SVGID_15_" x="-80" y="-1509" width="1920" height="2801"/>
			</defs>
			<clipPath id="SVGID_16_">
				<use xlink:href="#SVGID_15_"  style="overflow:visible;"/>
			</clipPath>
			<rect x="26" y="71" class="st7" width="52" height="32"/>
		</g>
	</g>
	<g>
		<defs>
			<path id="SVGID_17_" d="M79.1,40.5c-0.2,0.5-0.4,1-0.7,1.4c-0.4-0.5-0.8-0.9-1.2-1.3c-3.5-3.5-8.5-5.7-13.9-5.7
				c-0.5,0-1.1,0-1.6,0.1c-1.1-2.4-2.6-4.6-4.4-6.4c1-1.4,2.3-2.5,3.7-3.4c1.9-1.2,4.1-1.8,6.5-1.8c3.4,0,6.7,1.4,8.9,3.6
				c2.3,2.3,3.6,5.4,3.6,8.9C80,37.4,79.7,39.1,79.1,40.5z M73.6,64.6c-2.6,2.6-6.3,4.2-10.2,4.2h-46c-3.3,0-6.4-1.3-8.6-3.5
				c-2.2-2.2-3.5-5.2-3.5-8.6s1.3-6.3,3.5-8.6c2.2-2.2,5.2-3.5,8.6-3.5c0.4,0,0.9-0.1,1.2-0.3c0.6-0.4,1-1,1.1-1.7
				c0.7-4.7,3.1-9,6.6-11.9c3.4-2.9,8-4.7,12.8-4.7c4.1,0,8,1.3,11.2,3.5c2.4,1.7,4.5,3.9,6,6.6c-0.4,0.2-0.8,0.3-1.2,0.5
				c-2.5,1.1-4.7,2.8-6.7,4.8c-0.9,1.1-0.8,2.7,0.2,3.6c1.1,0.9,2.7,0.8,3.6-0.2c1.4-1.5,3-2.7,4.8-3.6c1.8-0.8,3.8-1.3,6-1.3
				c4,0,7.6,1.6,10.2,4.2c2.6,2.6,4.2,6.2,4.2,10.2C77.7,58.5,76.1,62,73.6,64.6z M92.2,56.8l-4.9-4.9c-1-1-2.6-1-3.6,0
				c-0.4,0.4-0.6,0.8-0.7,1.3c-0.1-2.3-0.7-4.4-1.5-6.4c1-1.3,1.9-2.8,2.5-4.3c0.9-2.1,1.3-4.4,1.3-6.7c0-4.9-2-9.4-5.2-12.5
				C76.8,20,72.4,18,67.5,18c-3.3,0-6.5,0.9-9.2,2.5c-1.9,1.2-3.6,2.7-5,4.5c-4-2.7-8.9-4.3-14-4.3c-6.2,0-11.8,2.2-16.1,5.9
				c-3.8,3.3-6.7,7.8-8,13C11.2,40.2,7.7,42,5,44.6C1.9,47.7,0,52,0,56.8S1.9,65.8,5,69c3.1,3.1,7.5,5,12.2,5h45.9
				c5.4,0,10.3-2.2,13.9-5.7c3.5-3.5,5.8-8.5,5.8-13.9v-0.1c0.1,0.4,0.3,0.8,0.7,1.1l5,5c1,1,2.6,1,3.6,0
				C93.3,59.4,93.3,57.8,92.2,56.8z"/>
		</defs>
		<clipPath id="SVGID_18_">
			<use xlink:href="#SVGID_17_"  style="overflow:visible;"/>
		</clipPath>
		<g class="st8">
			<defs>
				<rect id="SVGID_19_" x="-80" y="-1509" width="1920" height="2801"/>
			</defs>
			<clipPath id="SVGID_20_">
				<use xlink:href="#SVGID_19_"  style="overflow:visible;"/>
			</clipPath>
			<rect x="-5" y="13" class="st9" width="103" height="66"/>
		</g>
	</g>
	<g>
		<defs>
			<path id="SVGID_21_" d="M100.3,33h-7.5c-1.5,0-2.7,1.2-2.7,2.5s1.3,2.5,2.7,2.5h7.5c1.5,0,2.7-1.2,2.7-2.5
				C102.9,34.2,101.7,33,100.3,33z"/>
		</defs>
		<clipPath id="SVGID_22_">
			<use xlink:href="#SVGID_21_"  style="overflow:visible;"/>
		</clipPath>
		<g class="st10">
			<defs>
				<rect id="SVGID_23_" x="-80" y="-1509" width="1920" height="2801"/>
			</defs>
			<clipPath id="SVGID_24_">
				<use xlink:href="#SVGID_23_"  style="overflow:visible;"/>
			</clipPath>
			<rect x="85" y="28" class="st11" width="23" height="15"/>
		</g>
	</g>
</g>
</svg>
