<svg id="Layer_1" data-name="Layer 1" xmlns="http://www.w3.org/2000/svg" xmlns:xlink="http://www.w3.org/1999/xlink" viewBox="0 0 159.49 89.56"><defs><style>.cls-1{fill:none;}.cls-2{clip-path:url(#clip-path);}.cls-3{clip-path:url(#clip-path-2);}</style><clipPath id="clip-path" transform="translate(-363 -994.22)"><path class="cls-1" d="M511.63,1048.79,479.55,1059h-33.4a15.22,15.22,0,0,0-14.44-10.56H390.43v-4.7h121.2v5Zm-12.1,24.13h-7.3l-5.81-9.93,6.15-2Zm-61.25-2.72a9.26,9.26,0,0,1-6.57,2.72H383.15a9.3,9.3,0,0,1,0-18.59h48.56a9.31,9.31,0,0,1,9.2,8v0a8.45,8.45,0,0,1,.09,1.25A9.27,9.27,0,0,1,438.28,1070.2Zm-29-41.73h48.61v9.44H392.18A20.28,20.28,0,0,1,409.28,1028.47Zm54.47-2.19,6.86-12.74,11.76,2.61a40.85,40.85,0,0,1,27.74,21.76h-9.35v-4a2.93,2.93,0,1,0-5.86,0v4h-5.16v-4a2.94,2.94,0,0,0-5.87,0v4h-5.16v-4a2.93,2.93,0,0,0-5.86,0v4h-9.1Zm53.74,24.65v-10.09c0-.11,0-.22,0-.32a.13.13,0,0,0,0-.06,2.51,2.51,0,0,0,0-.27l0-.08a1.68,1.68,0,0,0-.07-.24.43.43,0,0,0,0,0,46.72,46.72,0,0,0-33.67-29.39l-12.53-2.79-.26-.54a14,14,0,0,0-12.53-7.88,2.93,2.93,0,0,0,0,5.86,8.09,8.09,0,0,1,7.25,4.56l.23.48-6.73,12.48H409.28a26.14,26.14,0,0,0-24.53,17.24s0,0,0,0l-.07.25a.14.14,0,0,1,0,.07c0,.11,0,.22-.05.33h0a3,3,0,0,0,0,.31v7.63h-1.42a15.16,15.16,0,0,0,0,30.31h48.56a15.15,15.15,0,0,0,15.1-13.89H480a3.25,3.25,0,0,0,.69-.08l4.74,8.11H470.08a2.93,2.93,0,1,0,0,5.86h31.79a15.4,15.4,0,0,0,3.21-.33,15.67,15.67,0,0,0,12.41-15.28,2.93,2.93,0,1,0-5.86,0,9.81,9.81,0,0,1-5.8,8.91l-7.54-12.88,17.16-5.47A3,3,0,0,0,517.49,1050.93Z"/></clipPath><clipPath id="clip-path-2" transform="translate(-363 -994.22)"><rect class="cls-1" x="69" y="-1301" width="1920" height="3924"/></clipPath></defs><title>a</title><g class="cls-2"><g class="cls-3"><rect width="159.49" height="89.56"/></g></g></svg>