<?xml version="1.0" encoding="utf-8"?>
<!-- Generator: Adobe Illustrator 22.1.0, SVG Export Plug-In . SVG Version: 6.00 Build 0)  -->
<svg version="1.1" id="Layer_1" xmlns="http://www.w3.org/2000/svg" xmlns:xlink="http://www.w3.org/1999/xlink" x="0px" y="0px"
	 viewBox="0 0 200 192" style="enable-background:new 0 0 200 192;" xml:space="preserve">
<style type="text/css">
	.st0{clip-path:url(#SVGID_2_);}
	.st1{clip-path:url(#SVGID_4_);}
</style>
<g>
	<defs>
		<path id="SVGID_1_" d="M192.1,25c-0.2,1-1.8,4.2-3.8,8c-0.6-4.3-0.9-7.8-0.8-8.8c0.2-1.1,1.2-1.9,2.3-1.9c0.1,0,0.3,0,0.4,0
			c0.6,0.1,1.1,0.5,1.5,1C192,23.8,192.2,24.4,192.1,25z M182.6,75.8l-2.1-0.4c0,0,0,0,0,0c0,0,0,0,0,0c0,0,0,0,0,0l-2.1-0.4l5-27.4
			l2.1,0.4c0,0,0,0,0,0s0,0,0,0l2.1,0.4L182.6,75.8z M187.8,148.6v35.8H11.4v-35.7c3.8-3.6,9.1-6.9,15.5-9.9l5.1,27.8l-4,0.7
			c-2,0.4-3.4,2.3-3,4.4c0.3,1.8,1.9,3.1,3.7,3.1c0.2,0,0.5,0,0.7-0.1l15.4-2.9c2-0.4,3.4-2.3,3-4.4c-0.4-2-2.3-3.4-4.4-3l-4,0.7
			L34,135.6c8.5-3.2,18.5-5.8,29.2-7.6l2,9.2c-4.5,1.6-8.7,4.3-12.6,7.9c-1.5,1.4-1.6,3.8-0.2,5.3c1.4,1.5,3.8,1.6,5.3,0.2
			c4-3.7,8.3-6.1,12.8-7.2c7.7-1.9,14.8,0.4,19.5,2.7c4.4,2.1,7.2,4.5,7.2,4.6c0.7,0.6,1.6,0.9,2.5,0.9c0.6,0,1.3-0.2,1.8-0.5
			c0,0,0,0,0,0c0.1,0,0.2-0.1,0.2-0.2c0,0,0.1,0,0.1-0.1c0.1,0,0.1-0.1,0.2-0.1c0,0,0.1-0.1,0.1-0.1c0,0,3-2.6,7.6-4.8
			c4.6-2.2,11.7-4.4,19.4-2.4c4.4,1.1,8.6,3.5,12.5,7.1c0.7,0.7,1.6,1,2.5,1c1,0,2-0.4,2.8-1.2c1.4-1.5,1.3-3.9-0.2-5.3
			c-3.8-3.5-7.9-6.1-12.3-7.7l2-9.2c10.7,1.8,20.7,4.4,29.2,7.7l-5.4,29.3l-4-0.7c-2-0.4-4,1-4.4,3c-0.4,2,1,4,3,4.4l15.4,2.9
			c0.2,0,0.5,0.1,0.7,0.1c1.8,0,3.4-1.3,3.7-3.1c0.4-2-1-4-3-4.4l-4-0.7l5.1-27.6C178.9,141.7,184,145.1,187.8,148.6z M60.3,78.2
			l0-0.2c-0.1-0.4-0.1-0.8-0.1-1.2c0-3.1,2.2-5.9,5.3-6.6c3.6-0.8,7.1,1.5,7.9,5.1c0,0,0,0,0,0l2,9.4c0,0,0,0,0,0.1
			c0.8,3.6-1.6,7.2-5.1,8c-1.8,0.4-3.5,0-5-0.9c-1.5-1-2.5-2.5-2.9-4.2c0,0,0,0,0,0L60.3,78.2z M56.3,59.4l13.1-2.8l1.4,6.5
			c-2.2-0.6-4.5-0.8-6.9-0.3c-2.3,0.5-4.4,1.6-6.2,3.1L56.3,59.4z M54.7,52.1l-5.1-23.8c-0.5-2.3-0.8-4.7-0.8-7.1
			c0-4.4,0.8-8.6,2.4-12.7c0.2-0.5,0.7-0.7,1-0.7c0.3,0,0.5,0.1,0.8,0.3c4.9,4.7,8.2,10.7,9.6,17.4l5.1,23.8L54.7,52.1z M79.3,103.5
			l-13.1,2.8l-1.4-6.5c1.3,0.4,2.6,0.6,3.9,0.6c1,0,2-0.1,3-0.3c2.4-0.5,4.5-1.6,6.2-3.1L79.3,103.5z M80.9,110.9l5.5,25.8
			c-4.1-1.2-8.8-1.9-14-1.3l-4.6-21.8L80.9,110.9z M107.9,125.3l-3.1,14.7c-2.1,1.1-3.9,2.2-5.2,3.2c-1.2-0.8-2.8-1.9-4.8-2.9
			l-3.2-14.9C97.1,125.1,102.6,125.1,107.9,125.3z M116.2,122.5C116.2,122.5,116.2,122.5,116.2,122.5l2.5-11.6l13.1,2.8l-4.6,21.8
			c-5.1-0.7-9.9,0-13.9,1.1L116.2,122.5z M121.6,97.1c1.8,1.5,3.9,2.6,6.2,3.1c1,0.2,2,0.3,3,0.3c1.3,0,2.6-0.2,3.9-0.6l-1.4,6.5
			l-13.1-2.8L121.6,97.1z M124.3,84.7l2-9.3c0,0,0-0.1,0-0.1c0.8-3.6,4.4-5.9,7.9-5.1c3.1,0.7,5.3,3.4,5.3,6.6c0,0.4,0,0.8-0.1,1.2
			l-2,9.5c0,0,0,0,0,0c-0.4,1.8-1.4,3.3-2.9,4.2c-1.5,1-3.3,1.3-5,0.9c-1.7-0.4-3.2-1.4-4.2-2.9C124.2,88.3,123.9,86.5,124.3,84.7z
			 M130.3,56.6l13.1,2.8l-1.4,6.5c-1.7-1.5-3.8-2.6-6.2-3.1c-2.4-0.5-4.7-0.4-6.9,0.2L130.3,56.6z M136.9,25.4
			c1.4-6.7,4.7-12.7,9.6-17.4c0.2-0.2,0.5-0.3,0.7-0.3c0.4,0,0.8,0.2,1,0.7c1.6,4,2.4,8.3,2.4,12.7c0,2.4-0.3,4.8-0.8,7.1l-5.1,23.8
			l-13.1-2.8L136.9,25.4z M19.2,75.4C19.2,75.4,19.2,75.4,19.2,75.4C19.2,75.4,19.1,75.4,19.2,75.4C19.1,75.4,19.1,75.4,19.2,75.4
			L17,75.8l-5-27.4l2.1-0.4c0,0,0,0,0,0s0,0,0,0l2.1-0.4l5,27.4L19.2,75.4z M7.5,25c-0.1-0.6,0-1.2,0.4-1.7c0.4-0.5,0.9-0.9,1.5-1
			c1.3-0.2,2.5,0.6,2.7,1.9c0.1,1-0.2,4.6-0.8,8.8C9.3,29.2,7.8,26,7.5,25z M197.9,19c-1.5-2.2-3.7-3.6-6.3-4.1
			c-5.3-1-10.5,2.6-11.5,7.9c-0.5,2.7,0.6,10.7,1.5,16.8l-0.6-0.1c-2-0.4-4,1-4.4,3l-5.7,31.1l-0.3-0.1c-2-0.4-4,1-4.4,3
			c-0.4,2,1,4,3,4.4l6.1,1.1l-8.5,46.1c-8.6-3.2-18.5-5.7-29-7.5l6.7-31.6c0,0,0,0,0,0l2-9.3c0,0,0,0,0,0l0-0.2l4.7-22.2
			c0,0,0,0,0,0c0,0,0,0,0,0l5.9-27.5c0.6-2.9,0.9-5.8,0.9-8.7c0-5.3-1-10.5-3-15.5c-1.3-3.3-4.5-5.4-8-5.4c-2.2,0-4.3,0.9-6,2.4
			c-6,5.8-10,13.1-11.8,21.2l-10.6,49.9c0,0,0,0.1,0,0.1l-2,9.3c0,0,0,0,0,0l-7.4,34.6c-6.4-0.3-13-0.3-19.5,0l-2.6-12.2
			c0,0,0,0,0,0c0,0,0,0,0,0l-4.8-22.4l0,0c0,0,0,0,0-0.1l-2-9.3c0,0,0-0.1,0-0.1L70,23.8c-1.7-8.1-5.8-15.5-11.7-21.2
			c-1.6-1.6-3.7-2.4-6-2.4c-3.5,0-6.7,2.1-8,5.4c-2,4.9-3,10.2-3,15.5c0,2.9,0.3,5.9,0.9,8.7l5.9,27.5c0,0,0,0,0,0c0,0,0,0,0,0
			l4.7,22.1l0,0.2c0,0,0,0,0,0l2,9.3l0,0l6.7,31.5c-10.5,1.8-20.4,4.3-29,7.5l-8.4-46l6.1-1.1c2-0.4,3.4-2.3,3-4.4
			c-0.4-2-2.3-3.4-4.4-3l-0.3,0.1L23,42.5c-0.4-2-2.3-3.4-4.4-3L18,39.6c0.9-6.2,2-14.2,1.5-16.8c-1-5.4-6.1-8.9-11.5-7.9
			c-2.6,0.5-4.8,1.9-6.3,4.1c-1.5,2.2-2,4.8-1.6,7.4c0.5,2.7,4.3,9.8,7.4,15.2l-0.6,0.1c-1,0.2-1.8,0.7-2.4,1.6
			c-0.6,0.8-0.8,1.8-0.6,2.8l5.7,31.1l-0.3,0.1c-2,0.4-3.4,2.3-3,4.4c0.3,1.8,1.9,3.1,3.7,3.1c0.2,0,0.5,0,0.7-0.1l6.1-1.1l8.7,47.5
			c-7.8,3.5-14.2,7.5-19,11.9c-1.5,0.5-2.6,1.9-2.6,3.6v41.7c0,2.1,1.7,3.8,3.8,3.8h183.8c2.1,0,3.8-1.7,3.8-3.8v-39.8
			c0.3-0.8,0.2-1.7-0.1-2.5c-0.2-1.4-1.2-2.6-2.6-3c-4.7-4.3-10.9-8.3-18.6-11.7l8.7-47.7l6.1,1.1c0.2,0,0.5,0.1,0.7,0.1
			c1.8,0,3.4-1.3,3.7-3.1c0.4-2-1-4-3-4.4l-0.3-0.1l5.7-31.1c0.2-1,0-2-0.6-2.8c-0.6-0.8-1.4-1.4-2.4-1.6l-0.6-0.1
			c3.1-5.4,6.9-12.5,7.4-15.2C199.9,23.8,199.4,21.1,197.9,19z"/>
	</defs>
	<clipPath id="SVGID_2_">
		<use xlink:href="#SVGID_1_"  style="overflow:visible;"/>
	</clipPath>
	<g class="st0">
		<defs>
			<rect id="SVGID_3_" x="-136" y="-1032" width="1920" height="3924"/>
		</defs>
		<clipPath id="SVGID_4_">
			<use xlink:href="#SVGID_3_"  style="overflow:visible;"/>
		</clipPath>
		<rect x="-5" y="-4.9" class="st1" width="209.6" height="201.7"/>
	</g>
</g>
</svg>
