<svg id="Layer_1" data-name="Layer 1" xmlns="http://www.w3.org/2000/svg" xmlns:xlink="http://www.w3.org/1999/xlink" viewBox="0 0 150 150"><defs><style>.cls-1,.cls-2{fill:none;}.cls-2{clip-rule:evenodd;}.cls-3{clip-path:url(#clip-path);}.cls-4{clip-path:url(#clip-path-2);}.cls-5{clip-path:url(#clip-path-3);}.cls-6{clip-path:url(#clip-path-4);}.cls-7{clip-path:url(#clip-path-5);}.cls-8{clip-path:url(#clip-path-6);}.cls-9{clip-path:url(#clip-path-7);}.cls-10{clip-path:url(#clip-path-8);}.cls-11{clip-path:url(#clip-path-9);}.cls-12{clip-path:url(#clip-path-10);}</style><clipPath id="clip-path" transform="translate(-466 -1257)"><path class="cls-1" d="M600.55,1296.34c-4.2,4.2-10.69,9.84-18.21,16.38s-16,13.92-24,21.45l-30-8.74c1.06-1,2.1-2,3.09-3,10.06-10.06,20.06-21.57,28.88-31.72,6.54-7.53,12.19-14,16.39-18.22a16.89,16.89,0,0,1,23.89,23.89Zm-49.94,45.27c-10.06,10.06-20.06,21.57-28.89,31.72-6.53,7.53-12.18,14-16.38,18.22a16.89,16.89,0,1,1-23.89-23.89c4.2-4.2,10.69-9.84,18.21-16.38s16-13.92,24-21.45l30,8.74C552.64,1339.6,551.61,1340.62,550.61,1341.61Zm53.83-73a22.4,22.4,0,0,0-31.68,0c-4.33,4.33-10,10.89-16.64,18.5-8.77,10.08-18.7,21.51-28.63,31.43-2,2-4.15,4.1-6.43,6.25-8.27,7.84-17.16,15.57-25,22.39-7.6,6.6-14.16,12.3-18.49,16.63a22.4,22.4,0,0,0,31.68,31.68c4.33-4.33,10-10.89,16.64-18.5,8.76-10.08,18.7-21.51,28.63-31.43,2-2,4.16-4.1,6.43-6.25,8.27-7.84,17.16-15.57,25-22.38,7.6-6.61,14.16-12.31,18.49-16.64a22.4,22.4,0,0,0,0-31.68Z"/></clipPath><clipPath id="clip-path-2" transform="translate(-466 -1257)"><rect class="cls-1" x="-420" y="-1002" width="1920" height="3924"/></clipPath><clipPath id="clip-path-3" transform="translate(-466 -1257)"><path class="cls-1" d="M529.15,1351.83a2.38,2.38,0,0,1-3.35,0h0l-4.62-4.62a2.35,2.35,0,0,1,0-3.35,2.32,2.32,0,0,1,1.67-.69,2.36,2.36,0,0,1,1.68.69l4.62,4.62a2.39,2.39,0,0,1,0,3.36Zm3.89-7.25-4.62-4.62a7.87,7.87,0,0,0-11.14,11.13l4.63,4.62A7.87,7.87,0,1,0,533,1344.58Z"/></clipPath><clipPath id="clip-path-4" transform="translate(-466 -1257)"><rect class="cls-1" x="-454" y="-968" width="1920" height="3924"/></clipPath><clipPath id="clip-path-5" transform="translate(-466 -1257)"><path class="cls-1" d="M561.15,1319.83a2.38,2.38,0,0,1-3.35,0h0l-4.62-4.62a2.35,2.35,0,0,1,0-3.35,2.32,2.32,0,0,1,1.67-.69,2.36,2.36,0,0,1,1.68.69l4.62,4.62a2.39,2.39,0,0,1,0,3.36Zm3.89-7.25-4.62-4.62a7.87,7.87,0,0,0-11.14,11.13l4.63,4.62A7.87,7.87,0,1,0,565,1312.58Z"/></clipPath><clipPath id="clip-path-6" transform="translate(-466 -1257)"><rect class="cls-1" x="-422" y="-1000" width="1920" height="3924"/></clipPath><clipPath id="clip-path-7" transform="translate(-466 -1257)"><path class="cls-2" d="M594.65,1276.34a11.4,11.4,0,0,0-16.1,0,2.75,2.75,0,0,0,3.89,3.9,5.89,5.89,0,0,1,10,4.16,2.75,2.75,0,0,0,5.5,0A11.32,11.32,0,0,0,594.65,1276.34Z"/></clipPath><clipPath id="clip-path-8" transform="translate(-466 -1257)"><rect class="cls-1" x="-422" y="-1002" width="1920" height="3924"/></clipPath><clipPath id="clip-path-9" transform="translate(-466 -1257)"><path class="cls-2" d="M593.6,1288c-3.54,0-3.55,5.51,0,5.51S597.15,1288,593.6,1288Z"/></clipPath><clipPath id="clip-path-10" transform="translate(-466 -1257)"><rect class="cls-1" x="-421" y="-1002" width="1920" height="3924"/></clipPath></defs><title>exchange_icon</title><g class="cls-3"><g class="cls-4"><rect width="150" height="150"/></g></g><g class="cls-5"><g class="cls-6"><rect x="43.98" y="75.65" width="30.37" height="30.37"/></g></g><g class="cls-7"><g class="cls-8"><rect x="75.98" y="43.65" width="30.37" height="30.37"/></g></g><g class="cls-9"><g class="cls-10"><rect x="106.74" y="11.01" width="30.25" height="24.14"/></g></g><g class="cls-11"><g class="cls-12"><rect x="119.94" y="26.03" width="15.32" height="15.5"/></g></g></svg>