<?xml version="1.0" encoding="utf-8"?>
<!-- Generator: Adobe Illustrator 21.1.0, SVG Export Plug-In . SVG Version: 6.00 Build 0)  -->
<svg version="1.1" id="Layer_1" xmlns="http://www.w3.org/2000/svg" xmlns:xlink="http://www.w3.org/1999/xlink" x="0px" y="0px"
	 viewBox="0 0 20 17" style="enable-background:new 0 0 20 17;" xml:space="preserve">
<style type="text/css">
	.st0{clip-path:url(#SVGID_2_);}
	.st1{clip-path:url(#SVGID_4_);}
	.st2{clip-path:url(#SVGID_6_);}
	.st3{clip-path:url(#SVGID_8_);}
	.st4{clip-path:url(#SVGID_10_);}
	.st5{clip-path:url(#SVGID_12_);}
</style>
<g>
	<defs>
		<polygon id="SVGID_1_" points="6,-2015 6,-2021 10,-2021 10,-2015 15,-2015 15,-2023 18,-2023 8,-2032 -2,-2023 1,-2023 1,-2015 
					"/>
	</defs>
	<clipPath id="SVGID_2_">
		<use xlink:href="#SVGID_1_"  style="overflow:visible;"/>
	</clipPath>
	<g class="st0">
		<defs>
			<rect id="SVGID_3_" x="-546" y="-2103" width="1920" height="2801"/>
		</defs>
		<clipPath id="SVGID_4_">
			<use xlink:href="#SVGID_3_"  style="overflow:visible;"/>
		</clipPath>
		<rect x="-7" y="-2037" class="st1" width="30" height="27"/>
	</g>
</g>
<g>
	<defs>
		<polygon id="SVGID_5_" points="4,-2017 4,-2023 8,-2023 8,-2017 13,-2017 13,-2025 16,-2025 6,-2034 -4,-2025 -1,-2025 -1,-2017 
					"/>
	</defs>
	<clipPath id="SVGID_6_">
		<use xlink:href="#SVGID_5_"  style="overflow:visible;"/>
	</clipPath>
	<g class="st2">
		<defs>
			<rect id="SVGID_7_" x="-548" y="-2105" width="1920" height="2801"/>
		</defs>
		<clipPath id="SVGID_8_">
			<use xlink:href="#SVGID_7_"  style="overflow:visible;"/>
		</clipPath>
		<rect x="-9" y="-2039" class="st3" width="30" height="27"/>
	</g>
</g>
<g>
	<defs>
		<polygon id="SVGID_9_" points="8,17 8,11 12,11 12,17 17,17 17,9 20,9 10,0 0,9 3,9 3,17 		"/>
	</defs>
	<clipPath id="SVGID_10_">
		<use xlink:href="#SVGID_9_"  style="overflow:visible;"/>
	</clipPath>
	<g class="st4">
		<defs>
			<rect id="SVGID_11_" x="-544" y="-71" width="1920" height="2801"/>
		</defs>
		<clipPath id="SVGID_12_">
			<use xlink:href="#SVGID_11_"  style="overflow:visible;"/>
		</clipPath>
		<rect x="-5" y="-5" class="st5" width="30" height="27"/>
	</g>
</g>
</svg>
