<?xml version="1.0" encoding="utf-8"?>
<!-- Generator: Adobe Illustrator 21.1.0, SVG Export Plug-In . SVG Version: 6.00 Build 0)  -->
<svg version="1.1" id="Layer_1" xmlns="http://www.w3.org/2000/svg" xmlns:xlink="http://www.w3.org/1999/xlink" x="0px" y="0px"
	 viewBox="0 0 809 244" style="enable-background:new 0 0 809 244;" xml:space="preserve">
<g>
	<path d="M149.1,0c0,1.7,0,3.4,0,5.3c-2,0-4,0-5.9,0c-1,0-2,0.1-3,0.4c-4.4,1-6.4,3.4-6.9,8.2c-0.2,2.2-0.4,4.5-0.4,6.7
		c0,25.2,0,50.4,0,75.7c0,2.7,0.3,5.4,0.6,8c0.4,3.8,2.6,5.9,6.2,6.7c1.4,0.3,2.8,0.4,4.2,0.5c1.7,0.1,3.4,0,5.2,0
		c0,1.8,0,3.5,0,5.2c-16.8,0-33.6,0-50.5,0c0-1.7,0-3.4,0-5.2c1.8,0,3.5,0,5.3,0c1.2,0,2.5-0.1,3.7-0.4c4.3-1,6.3-3.4,6.8-8
		c0.2-2.3,0.4-4.7,0.4-7.1c0-23.2,0-46.4,0-69.7c0-0.5,0-1,0-1.5c-0.1,0-0.2-0.1-0.3-0.1c-0.2,0.4-0.4,0.7-0.6,1.1
		c-13.7,29.9-27.3,59.7-41,89.6c-0.4,1-0.9,1.3-2,1.4c-2.1,0.2-3.1-0.6-3.9-2.5C53.5,84.6,39.9,55,26.3,25.4
		c-0.1-0.3-0.3-0.5-0.6-1.1c0,0.7-0.1,1.1-0.1,1.4c0,23.5,0,47,0,70.5c0,2.9,0.4,5.7,0.7,8.6c0.4,3.5,2.6,5.4,5.8,6.1
		c2.2,0.5,4.4,0.4,6.7,0.6c0.9,0.1,1.9,0,2.9,0c0,1.8,0,3.4,0,5.3c-13.9,0-27.8,0-41.7,0c0-1.8,0-3.5,0-5.3c3.1-0.2,6.3,0,9.4-0.5
		c3.5-0.6,5.8-3,6.2-6.7c0.3-2.4,0.5-4.8,0.5-7.2c0-25.4,0-50.9,0-76.3c0-1.8-0.1-3.7-0.3-5.5C15.5,11.2,14,8,10.1,6.5
		C6.9,5.2,3.4,5.1,0,5.3C0,3.5,0,1.8,0,0c11.4,0,22.7,0,34.1,0c13.6,29.3,27.1,58.6,40.7,88.1c0.3-0.6,0.4-0.9,0.6-1.2
		c4.4-9.7,8.8-19.4,13.2-29.1C97.4,38.6,106.2,19.3,115,0C126.4,0,137.8,0,149.1,0z"/>
	<path d="M287.2,244c0-1.4,0.1-2.7,0-4.1c0-0.6,0.2-0.9,0.9-1c1.4-0.2,2.8-0.6,4.2-0.9c3-0.7,5.2-2.3,6.9-4.8c2.9-4.2,5-8.8,7-13.4
		c13.3-31.2,26.7-62.5,40-93.7c0.4-0.9,0.9-1.2,1.9-1.2c3,0.1,3,0,4.2,2.8c13.1,31.5,26.3,62.9,39.5,94.3c1.4,3.4,3.2,6.6,5,9.8
		c2.5,4.4,6.5,6.3,11.3,6.9c0.9,0.1,1.7,0.2,2.8,0.3c0,1.6,0,3.3,0,5c-15.8,0-31.5,0-47.3,0c0-1.7,0-3.3,0-5c0.6,0,0.9,0,1.3-0.1
		c2.4-0.5,4.9-0.7,7.2-1.5c2.5-0.8,3.5-3,3.1-5.6c-0.3-1.8-0.7-3.6-1.3-5.2c-2.7-6.8-5.5-13.5-8.3-20.2c-0.3-0.7-0.8-0.7-1.3-0.7
		c-13.6,0-27.2,0-40.8,0c-0.8,0-1.2,0.3-1.5,1c-2.4,5.7-4.9,11.4-7.3,17.1c-1,2.4-1.8,4.9-2.4,7.4c-0.7,2.7,0.6,4.9,3.2,6
		c0.8,0.3,1.6,0.6,2.4,0.7c2.5,0.4,4.9,0.8,7.5,1.2c0,1.6,0,3.2,0,4.9C312.7,244,299.9,244,287.2,244z M326,197.3c12.1,0,24,0,36,0
		c-5.9-14.2-11.8-28.2-17.8-42.5C338.1,169.1,332.1,183.1,326,197.3z"/>
	<path d="M470.4,244c0-1.5,0-3,0-4.6c1.7,0,3.3,0,4.9,0c2.1,0,4-0.5,5.8-1.7c2.1-1.5,2.5-3.8,2.7-6.2c0.1-1.7,0.2-3.4,0.2-5.2
		c0-21,0-41.9,0-62.9c0-2-0.2-4-0.5-6c-0.5-3.7-2.4-5.5-6.6-6.1c-1.7-0.2-3.4-0.1-5.2-0.2c-0.4,0-0.9,0-1.5,0c0-0.9,0-1.6,0-2.3
		c0-0.8,0-1.5,0-2.3c0.4,0,0.7-0.1,1-0.1c13.5,0,27.1,0,40.6,0.1c5.6,0.1,11.2,0.4,16.6,2.1c8.8,2.8,15.1,8.3,17.5,17.5
		c2.9,11.2-2.3,22.2-12.6,27.4c-1.5,0.7-3,1.4-4.5,2c-1.5,0.6-3.1,1-4.7,1.6c0.1,0.2,0.1,0.4,0.3,0.6c7.1,9.8,14.1,19.6,21.3,29.4
		c1.6,2.2,3.5,4.2,5.4,6.1c3.7,3.6,8.3,5.1,13.3,5.9c0.9,0.1,1.7,0.2,2.7,0.4c0,1.5,0,3,0,4.4c-9,0-18.1,0-27.1,0
		c-0.2-0.3-0.4-0.7-0.7-1c-9.8-13.6-19.7-27.1-29.3-40.7c-1.5-2.2-3-3.1-5.6-2.8c-1.6,0.2-3.2,0-4.9,0c0,0.4-0.1,0.7-0.1,0.9
		c0,8.8,0,17.6,0,26.5c0,2.2,0.3,4.5,0.6,6.7c0.4,3.7,3.1,5.1,5.7,5.6c1,0.2,2.1,0.2,3.2,0.3c1.4,0,2.8,0,4.4,0c0,1.6,0,3.1,0,4.6
		C499.1,244,484.7,244,470.4,244z M499.5,192.9c4.2,0.2,8.1,0.1,12.1-0.7c4.7-0.9,8.9-2.8,12.3-6.3c4.1-4.2,5.4-9.4,4.9-15.1
		c-0.6-8.1-6.3-14.7-14.2-16.3c-4.6-0.9-9.1-0.3-13.6,0.4c-1.3,0.2-1.5,0.7-1.5,1.8c0,11.6,0,23.2,0,34.7
		C499.5,191.9,499.5,192.3,499.5,192.9z"/>
	<path d="M809,23.8c-2.5,0.1-5,0-7.4,0.3c-3.2,0.4-5.1,2.3-5.6,5.5c-0.4,2.4-0.5,4.9-0.5,7.3c0,26.5,0,52.9,0,79.4
		c0,0.6,0,1.1,0,1.8c-1.3,0-2.6,0-3.9,0c-0.3,0-0.6-0.4-0.9-0.7C774,97,757.4,76.6,740.8,56.3c-3.3-4.1-6.6-8.1-10-12.2
		c-0.2-0.2-0.3-0.5-0.4-0.7c-0.1,0.1-0.2,0.1-0.3,0.2c0,0.4,0,0.8,0,1.1c0,18.2,0,36.4,0,54.6c0,2,0.2,4.1,0.4,6.1
		c0.3,4,2.1,5.9,6.8,6.4c2,0.2,4.1,0,6.2,0c0,1.7,0,3.2,0,4.8c-11.7,0-23.3,0-35,0c0-1.5,0-3,0-4.7c1.9,0,3.7,0,5.6,0
		c0.4,0,0.7,0,1.1-0.1c4.2-0.7,6-2.8,6.4-7.3c0.2-2,0.3-3.9,0.3-5.9c0-21.4,0-42.8,0-64.2c0-0.9-0.3-1.6-0.9-2.3
		c-3.1-3.8-6.7-6.8-11.6-7.8c-1.6-0.3-3.3-0.3-5-0.5c-0.4,0-0.8,0-1.2-0.1c0-1.5,0-3,0-4.7c0.4,0,0.8,0,1.3,0c8.3,0,16.6,0,24.9,0
		c0.8,0,1.4,0.2,1.9,0.9c18.4,22.6,36.8,45.3,55.2,67.9c0.2,0.2,0.4,0.5,0.8,0.8c0-0.6,0.1-0.9,0.1-1.3c0-16.9,0-33.8,0-50.8
		c0-2.6-0.4-5.2-0.7-7.8c-0.3-2.2-1.7-3.7-3.8-4.2c-2.1-0.5-4.3-0.6-6.5-0.8c-0.8-0.1-1.6,0-2.4,0c0-1.6,0-3.1,0-4.7
		c0.5,0,0.9,0,1.4,0c10.9,0,21.8,0,32.7,0c0.4,0,0.8,0,1.2,0C809,20.6,809,22.2,809,23.8z"/>
	<path d="M419.3,244c0-1.5,0-3,0-4.6c1.5,0,2.9,0,4.4,0c1.1,0,2.2-0.1,3.2-0.3c3.8-0.8,5.3-2.8,5.8-7.3c0.2-1.5,0.2-3,0.2-4.6
		c0-21.3,0-42.7,0-64c0-2.1-0.3-4.2-0.4-6.2c-0.2-2-1.3-3.4-3-4.3c-1.8-1-3.7-1.4-5.8-1.4c-1.4,0-2.9,0-4.4,0c0-1.6,0-3.1,0-4.7
		c14.3,0,28.5,0,42.8,0c0,1.5,0,3,0,4.6c-0.5,0-1,0-1.5,0.1c-2.1,0.1-4.2,0-6.2,0.4c-3,0.6-5.1,2.3-5.4,5.6
		c-0.3,2.5-0.5,4.9-0.5,7.4c0,20.5,0,41.1,0,61.6c0,2.7,0.3,5.4,0.6,8c0.1,1.4,0.9,2.4,2,3.1c1.9,1.3,4.1,2,6.4,2.1c1.5,0,3,0,4.8,0
		c0,1.6,0,3.1,0,4.6C447.9,244,433.6,244,419.3,244z"/>
	<path d="M0,152.8c0.6,0,1.3,0.1,1.9,0.1c96.5,0,193,0,289.4,0c0.8,0,1.5,0,2.3,0c0,1.8,0,3.5,0,5.3c-0.7,0-1.3,0-1.9,0
		c-96.6,0-193.2,0-289.8,0c-0.6,0-1.3,0.1-1.9,0.1C0,156.5,0,154.6,0,152.8z"/>
	<path d="M152.3,67.7c0.3-11.7,3.1-22.6,10.4-31.9c9.2-11.7,21.2-18.3,36.1-18.8c19.9-0.7,34,8.9,43.5,25.8
		c4.9,8.7,6.1,18.4,5.5,28.3c-1.1,18.1-9.2,32.1-24.6,41.6c-8.4,5.2-17.8,6.8-27.5,6c-10.3-0.8-19.2-4.7-26.9-11.6
		c-8.4-7.6-13.4-17.1-15.3-28.3C152.9,75.1,152.7,71.4,152.3,67.7z M229.8,67.7c-0.1-1.8-0.2-5-0.5-8.2c-0.6-6.9-2-13.5-5-19.8
		c-4.5-9.3-11.6-14.9-22.2-15.6c-8.1-0.5-15.2,1.5-20.8,7.6c-3.5,3.8-5.8,8.2-7.4,13c-2.7,8-3.3,16.2-3.2,24.5
		c0.1,7.5,1.1,14.9,3.6,21.9c2.1,5.8,5,11.2,9.9,15.1c8,6.3,16.9,6.9,26,3.3c8.7-3.4,13.8-10.2,16.6-18.9
		C229.2,83.8,229.7,76.4,229.8,67.7z"/>
	<path d="M401.7,112c0,1.7,0,3.1,0,4.6c-11.7,0-23.4,0-35.1,0c0-1.5,0-3,0-4.7c2,0,3.9,0.1,5.8,0c1.2-0.1,2.4-0.4,3.5-0.9
		c2.6-1.1,3.6-3.3,3.8-5.9c0.1-1.8,0.3-3.5,0.3-5.3c0-21.9,0-43.7,0-65.6c0-0.9-0.3-1.5-0.8-2.1c-2.9-3.4-6.1-6.5-10.7-7.6
		c-1.7-0.4-3.4-0.6-5.1-0.7c-1.2,0-1.6-0.8-1.7-1.6c-0.2-1-0.1-2.1-0.1-3.2c0.6,0,1.1,0,1.5,0c8,0,16.1,0,24.1,0
		c1,0,1.6,0.4,2.2,1.1c18.4,22.7,36.8,45.3,55.3,68c0.1,0.1,0.2,0.2,0.5,0.5c0.1-0.5,0.1-0.8,0.1-1.1c0-17.3,0-34.6,0-51.8
		c0-2.1-0.3-4.2-0.6-6.3c-0.3-2.8-2.1-4.4-4.7-5c-1.9-0.4-4-0.4-5.9-0.5c-0.7-0.1-1.4,0-2.2,0c0-1.6,0-3.1,0-4.7
		c11.7,0,23.4,0,35.1,0c0,1.5,0,3,0,4.7c-1.8,0-3.6-0.1-5.4,0c-1,0.1-2.1,0.2-3.1,0.6c-3.1,1-4.4,3.3-4.6,6.3
		c-0.1,1.6-0.3,3.1-0.3,4.7c0,27.1,0,54.1,0,81.2c0,0.5,0,0.9,0,1.6c-1.3,0-2.5,0-3.8,0c-0.3,0-0.7-0.4-0.9-0.6
		c-9.7-11.9-19.5-23.8-29.2-35.7c-10.2-12.5-20.4-25-30.6-37.5c-0.2-0.2-0.4-0.5-0.8-0.8c0,0.6-0.1,0.9-0.1,1.3
		c0,18.7,0,37.5,0,56.2c0,1.9,0.3,3.7,0.5,5.6c0.3,2.6,1.9,4.1,4.3,4.8c1.5,0.4,3.1,0.5,4.6,0.6C398.9,112.1,400.3,112,401.7,112z"
		/>
	<path d="M319.8,23.8c0-1.6,0-3.1,0-4.7c11.8,0,23.5,0,35.3,0c0,1.5,0,3,0,4.7c-1.6,0-3.2,0-4.8,0c-3.1,0.1-5.6,1.5-7,4.2
		c-0.8,1.6-1,3.5-1.3,5.3c-0.2,1.5-0.2,3-0.2,4.4c0,13.6,0,27.2,0,40.8c0,5.8-0.4,11.6-1.9,17.3c-2.9,11-10.3,17.7-20.8,21.1
		c-6.6,2.2-13.5,2.3-20.4,1.8c-5.4-0.3-10.7-1.1-15.6-3.6c-9-4.6-14.7-11.9-16.2-22c-0.7-5-1-10.1-1.1-15.1
		c-0.1-13.4,0-26.9-0.1-40.3c0-2.5-0.2-5.1-0.6-7.5c-0.7-4.3-3-6.2-7.4-6.4c-1.9-0.1-3.8,0-5.8,0c0-1.7,0-3.2,0-4.7
		c14.4,0,28.7,0,43.1,0c0,1.5,0,3,0,4.7c-1.4,0-2.8-0.1-4.3,0c-1.5,0.1-3.1,0.3-4.6,0.7c-2.3,0.7-3.8,2.4-4.2,4.8
		c-0.4,2.4-0.7,4.8-0.7,7.2c-0.1,14.2-0.1,28.5,0,42.7c0,5.5,0.6,10.9,1.8,16.2c1.8,7.8,6.7,12.6,14.2,14.4
		c9.4,2.3,18.4,0.8,26.6-4.7c5.4-3.6,8.1-8.8,8.7-15.1c0.5-4.8,0.9-9.7,0.9-14.5c0.1-12.8,0.1-25.5,0-38.3c0-2.2-0.2-4.3-0.4-6.5
		c-0.4-4.9-3-6.6-7.7-7C323.6,23.7,321.7,23.8,319.8,23.8z"/>
	<path d="M647.8,112.1c0,1.6,0,3,0,4.5c-13.2,0-26.3,0-39.5,0c0-1.5,0-3,0-4.5c1.4-0.1,2.7-0.3,4-0.5c0.7-0.1,1.5-0.3,2.2-0.5
		c2.6-0.8,3.8-2.7,3.2-5.4c-0.5-2.3-1.2-4.5-2.1-6.6c-1.9-4.8-4-9.6-6-14.4c-0.4,0-0.8,0-1.1,0c-11.1,0-22.2,0-33.3,0
		c-0.6,0-1.1-0.1-1.4,0.7c-2.3,5.5-4.7,11-7,16.6c-0.5,1.3-0.9,2.7-1.1,4c-0.4,2.3,0.6,4,2.8,4.7c1.9,0.6,4,0.8,6,1.2
		c0.7,0.1,1.3,0.1,2.1,0.2c0,1.5,0,3,0,4.5c-10.7,0-21.3,0-32,0c0-1.5,0-2.9,0-4.4c1.4-0.3,2.8-0.7,4.1-1c2.6-0.5,4.6-1.9,5.9-4.2
		c2.2-4.1,4.4-8.2,6.3-12.4c11-25.5,21.9-51.1,32.8-76.7c0.4-0.8,0.8-1.1,1.7-1.1c2.6,0.1,2.6,0,3.6,2.4c11,26.4,22,52.7,33.1,79.1
		c1.1,2.6,2.5,5.2,3.9,7.7c2.1,3.8,5.6,5.5,9.8,5.9C646.4,112,647,112,647.8,112.1z M592.2,42.5c-5.1,11.8-10,23.2-15,34.8
		c9.9,0,19.6,0,29.6,0C601.9,65.8,597.1,54.4,592.2,42.5z"/>
	<path d="M553.5,43.5c-1.6,0-3.1,0-4.6,0c-0.3-1.5-0.5-3.1-0.8-4.6c-1.1-6.6-5.6-11.3-13.6-11.7c-4.7-0.2-9.4-0.1-14.2-0.1
		c-0.1,0-0.2,0.1-0.4,0.1c0,0.4,0,0.9,0,1.3c0,23.7,0,47.3,0,71c0,2,0.2,4,0.4,6c0.4,4.2,2.4,5.9,7,6.3c1.9,0.2,3.9,0,5.9,0
		c0,1.7,0,3.1,0,4.7c-14.1,0-28.2,0-42.3,0c0-1.5,0-3,0-4.7c2,0,3.9,0.1,5.9,0c1.2-0.1,2.4-0.4,3.5-0.9c2.5-1.1,3.5-3.2,3.8-5.8
		c0.1-1.6,0.3-3.2,0.3-4.8c0-24,0-48,0-71.9c0-0.4,0-0.8,0-1.1c-0.2-0.1-0.2-0.2-0.3-0.2c-5.4,0.1-10.8,0-16.2,0.3
		c-5.1,0.3-9.1,4-10.6,9.3c-0.6,2.1-0.9,4.4-1.3,6.7c-1.4,0-2.9,0-4.5,0c0.4-8.1,0.8-16.2,1.2-24.3c26.6,0,53.1,0,79.8,0
		C552.7,27.3,553.1,35.3,553.5,43.5z"/>
	<path d="M654.1,23.8c0-1.6,0-3.1,0-4.7c14.2,0,28.4,0,42.7,0c0,1.5,0,3,0,4.7c-1.9,0-3.7-0.1-5.4,0c-1.3,0.1-2.7,0.4-3.9,0.9
		c-2,0.8-3.3,2.3-3.6,4.4c-0.3,2.7-0.7,5.3-0.7,8c-0.1,20.4-0.1,40.9,0,61.3c0,2.8,0.2,5.6,0.7,8.4c0.2,1,1,2.1,1.8,2.8
		c2,1.7,4.5,2.2,7.1,2.2c1.4,0,2.7,0,4.1,0c0,1.6,0,3.1,0,4.7c-14.3,0-28.5,0-42.7,0c0-1.5,0-3,0-4.8c2,0,4,0.1,5.9,0
		c1.2-0.1,2.4-0.4,3.6-0.9c1.9-0.8,3.2-2.3,3.5-4.4c0.3-2.2,0.6-4.5,0.6-6.7c0-21.4,0-42.8,0-64.2c0-2-0.2-3.9-0.4-5.9
		c-0.2-2.1-1.3-3.6-3.2-4.6c-1.9-0.9-3.8-1.4-5.9-1.4C656.9,23.8,655.6,23.8,654.1,23.8z"/>
	<path d="M574.6,158.1c0-1.7,0-3.4,0-5.1c78.1,0,156.1,0,234.1,0c0,1.7,0,3.3,0,5.1C730.7,158.1,652.7,158.1,574.6,158.1z"/>
</g>
</svg>
