<?xml version="1.0" encoding="utf-8"?>
<!-- Generator: Adobe Illustrator 21.1.0, SVG Export Plug-In . SVG Version: 6.00 Build 0)  -->
<svg version="1.1" id="Layer_1" xmlns="http://www.w3.org/2000/svg" xmlns:xlink="http://www.w3.org/1999/xlink" x="0px" y="0px"
	 viewBox="0 0 20 18" style="enable-background:new 0 0 20 18;" xml:space="preserve">
<style type="text/css">
	.st0{clip-path:url(#SVGID_2_);}
	.st1{clip-path:url(#SVGID_4_);fill:#FFFFFF;}
	.st2{clip-path:url(#SVGID_6_);}
	.st3{clip-path:url(#SVGID_8_);fill:#FFFFFF;}
</style>
<g>
	<defs>
		<path id="SVGID_1_" d="M9-2133.8l-1.4-1.3c-5.2-4.6-8.6-7.6-8.6-11.3c0-3,2.4-5.4,5.5-5.4c1.7,0,3.4,0.8,4.5,2.1
			c1.1-1.3,2.8-2.1,4.5-2.1c3.1,0,5.5,2.4,5.5,5.4c0,3.7-3.4,6.7-8.6,11.3L9-2133.8z"/>
	</defs>
	<clipPath id="SVGID_2_">
		<use xlink:href="#SVGID_1_"  style="overflow:visible;"/>
	</clipPath>
	<g class="st0">
		<defs>
			<rect id="SVGID_3_" x="-1811" y="-2241.1" width="1920" height="2747.6"/>
		</defs>
		<clipPath id="SVGID_4_">
			<use xlink:href="#SVGID_3_"  style="overflow:visible;"/>
		</clipPath>
		<rect x="-6" y="-2156.7" class="st1" width="30" height="27.8"/>
	</g>
</g>
<g>
	<defs>
		<path id="SVGID_5_" d="M10,18l-1.4-1.3C3.4,12.1,0,9.1,0,5.4C0,2.4,2.4,0,5.5,0C7.2,0,8.9,0.8,10,2.1C11.1,0.8,12.8,0,14.5,0
			C17.6,0,20,2.4,20,5.4c0,3.7-3.4,6.7-8.6,11.3L10,18z"/>
	</defs>
	<clipPath id="SVGID_6_">
		<use xlink:href="#SVGID_5_"  style="overflow:visible;"/>
	</clipPath>
	<g class="st2">
		<defs>
			<rect id="SVGID_7_" x="-1810" y="-89.3" width="1920" height="2747.6"/>
		</defs>
		<clipPath id="SVGID_8_">
			<use xlink:href="#SVGID_7_"  style="overflow:visible;"/>
		</clipPath>
		<rect x="-5" y="-4.9" class="st3" width="30" height="27.8"/>
	</g>
</g>
</svg>
