<?xml version="1.0" encoding="utf-8"?>
<!-- Generator: Adobe Illustrator 21.1.0, SVG Export Plug-In . SVG Version: 6.00 Build 0)  -->
<svg version="1.1" id="Layer_1" xmlns="http://www.w3.org/2000/svg" xmlns:xlink="http://www.w3.org/1999/xlink" x="0px" y="0px"
	 viewBox="0 0 29 29" style="enable-background:new 0 0 29 29;" xml:space="preserve">
<style type="text/css">
	.st0{clip-path:url(#SVGID_2_);}
	.st1{clip-path:url(#SVGID_4_);}
</style>
<g>
	<defs>
		<path id="SVGID_1_" d="M10.8,18.2c-4.1,0-7.5-3.3-7.5-7.5s3.3-7.5,7.5-7.5s7.5,3.3,7.5,7.5S14.9,18.2,10.8,18.2z M20.7,18.2h-1.3
			L19,17.8c1.6-1.9,2.6-4.3,2.6-7c0-6-4.8-10.8-10.8-10.8C4.8,0,0,4.8,0,10.8c0,6,4.8,10.8,10.8,10.8c2.7,0,5.1-1,7-2.6l0.4,0.5v1.3
			l8.3,8.3l2.5-2.5L20.7,18.2z"/>
	</defs>
	<clipPath id="SVGID_2_">
		<use xlink:href="#SVGID_1_"  style="overflow:visible;"/>
	</clipPath>
	<g class="st0">
		<defs>
			<rect id="SVGID_3_" x="-1736" y="-64.7" width="1910.1" height="2786.6"/>
		</defs>
		<clipPath id="SVGID_4_">
			<use xlink:href="#SVGID_3_"  style="overflow:visible;"/>
		</clipPath>
		<rect x="-5" y="-5" class="st1" width="38.9" height="38.9"/>
	</g>
</g>
</svg>
