<?xml version="1.0" encoding="utf-8"?>
<!-- Generator: Adobe Illustrator 21.1.0, SVG Export Plug-In . SVG Version: 6.00 Build 0)  -->
<svg version="1.1" id="Layer_1" xmlns="http://www.w3.org/2000/svg" xmlns:xlink="http://www.w3.org/1999/xlink" x="0px" y="0px"
	 viewBox="0 0 20 20" style="enable-background:new 0 0 20 20;" xml:space="preserve">
<style type="text/css">
	.st0{clip-path:url(#SVGID_2_);}
	.st1{clip-path:url(#SVGID_4_);fill:#009DDB;}
	.st2{clip-path:url(#SVGID_6_);}
	.st3{clip-path:url(#SVGID_8_);fill:#009DDB;}
</style>
<g>
	<defs>
		<path id="SVGID_1_" d="M11-2339.8c-2.5,0-4.7-1.3-6-3.2c0-2,4-3.1,6-3.1c2,0,6,1.1,6,3.1C15.7-2341.1,13.5-2339.8,11-2339.8z
			 M11-2354c1.7,0,3,1.3,3,3s-1.3,3-3,3s-3-1.3-3-3S9.3-2354,11-2354z M11-2357c-5.5,0-10,4.5-10,10s4.5,10,10,10s10-4.5,10-10
			S16.5-2357,11-2357z"/>
	</defs>
	<clipPath id="SVGID_2_">
		<use xlink:href="#SVGID_1_"  style="overflow:visible;"/>
	</clipPath>
	<g class="st0">
		<defs>
			<rect id="SVGID_3_" x="-1809" y="-2407" width="1920" height="2801"/>
		</defs>
		<clipPath id="SVGID_4_">
			<use xlink:href="#SVGID_3_"  style="overflow:visible;"/>
		</clipPath>
		<rect x="-4" y="-2362" class="st1" width="30" height="30"/>
	</g>
</g>
<g>
	<defs>
		<path id="SVGID_5_" d="M10,17.2c-2.5,0-4.7-1.3-6-3.2c0-2,4-3.1,6-3.1c2,0,6,1.1,6,3.1C14.7,15.9,12.5,17.2,10,17.2z M10,3
			c1.7,0,3,1.3,3,3s-1.3,3-3,3S7,7.7,7,6S8.3,3,10,3z M10,0C4.5,0,0,4.5,0,10s4.5,10,10,10s10-4.5,10-10S15.5,0,10,0z"/>
	</defs>
	<clipPath id="SVGID_6_">
		<use xlink:href="#SVGID_5_"  style="overflow:visible;"/>
	</clipPath>
	<g class="st2">
		<defs>
			<rect id="SVGID_7_" x="-1810" y="-50" width="1920" height="2801"/>
		</defs>
		<clipPath id="SVGID_8_">
			<use xlink:href="#SVGID_7_"  style="overflow:visible;"/>
		</clipPath>
		<rect x="-5" y="-5" class="st3" width="30" height="30"/>
	</g>
</g>
</svg>
