<svg id="Layer_1" data-name="Layer 1" xmlns="http://www.w3.org/2000/svg" xmlns:xlink="http://www.w3.org/1999/xlink" viewBox="0 0 105.81 124.81"><defs><style>.cls-1,.cls-2{fill:none;}.cls-2{clip-rule:evenodd;}.cls-3{clip-path:url(#clip-path);}.cls-4{clip-path:url(#clip-path-2);}.cls-5{clip-path:url(#clip-path-3);}.cls-6{clip-path:url(#clip-path-4);}.cls-7{clip-path:url(#clip-path-5);}.cls-8{clip-path:url(#clip-path-6);}.cls-9{clip-path:url(#clip-path-7);}.cls-10{clip-path:url(#clip-path-8);}.cls-11{clip-path:url(#clip-path-9);}.cls-12{clip-path:url(#clip-path-11);}.cls-13{clip-path:url(#clip-path-12);}.cls-14{clip-path:url(#clip-path-13);}.cls-15{clip-path:url(#clip-path-14);}.cls-16{clip-path:url(#clip-path-15);}.cls-17{clip-path:url(#clip-path-16);}.cls-18{clip-path:url(#clip-path-17);}.cls-19{clip-path:url(#clip-path-18);}.cls-20{clip-path:url(#clip-path-19);}.cls-21{clip-path:url(#clip-path-21);}.cls-22{clip-path:url(#clip-path-22);}.cls-23{clip-path:url(#clip-path-23);}.cls-24{clip-path:url(#clip-path-24);}.cls-25{clip-path:url(#clip-path-25);}.cls-26{clip-path:url(#clip-path-26);}.cls-27{clip-path:url(#clip-path-27);}.cls-28{clip-path:url(#clip-path-28);}.cls-29{clip-path:url(#clip-path-29);}.cls-30{clip-path:url(#clip-path-30);}.cls-31{clip-path:url(#clip-path-31);}.cls-32{clip-path:url(#clip-path-33);}.cls-33{clip-path:url(#clip-path-34);}.cls-34{clip-path:url(#clip-path-35);}.cls-35{clip-path:url(#clip-path-36);}.cls-36{clip-path:url(#clip-path-37);}.cls-37{clip-path:url(#clip-path-38);}.cls-38{clip-path:url(#clip-path-39);}.cls-39{clip-path:url(#clip-path-40);}.cls-40{clip-path:url(#clip-path-41);}.cls-41{clip-path:url(#clip-path-43);}.cls-42{clip-path:url(#clip-path-44);}.cls-43{clip-path:url(#clip-path-45);}.cls-44{clip-path:url(#clip-path-46);}.cls-45{clip-path:url(#clip-path-47);}.cls-46{clip-path:url(#clip-path-48);}.cls-47{clip-path:url(#clip-path-49);}.cls-48{clip-path:url(#clip-path-50);}.cls-49{clip-path:url(#clip-path-51);}.cls-50{clip-path:url(#clip-path-53);}.cls-51{clip-path:url(#clip-path-54);}.cls-52{clip-path:url(#clip-path-55);}.cls-53{clip-path:url(#clip-path-56);}</style><clipPath id="clip-path" transform="translate(-505.1 -370)"><path class="cls-1" d="M592.21,432.79H526.14a11.36,11.36,0,0,1,0-22.72l.4,0a2.35,2.35,0,0,0,2.41-2.81,23.54,23.54,0,0,1-.46-4.57,23,23,0,0,1,43.41-10.56,2.37,2.37,0,0,0,2.57,1.22,16.08,16.08,0,0,1,3.33-.34,16.35,16.35,0,0,1,16,19.62,2.34,2.34,0,0,0,1.5,2.68,9,9,0,0,1-3.09,17.46Zm6.49-21.07a20.44,20.44,0,0,0,.13-2.35,21.06,21.06,0,0,0-21-21.05,19.77,19.77,0,0,0-2.56.16,27.69,27.69,0,0,0-51.45,14.23,26.45,26.45,0,0,0,.15,2.81,16.07,16.07,0,0,0,2.2,32h66.07a13.71,13.71,0,0,0,6.49-25.78Z"/></clipPath><clipPath id="clip-path-2" transform="translate(-505.1 -370)"><rect class="cls-1" x="-989" y="-1899" width="1920" height="3924"/></clipPath><clipPath id="clip-path-3" transform="translate(-505.1 -370)"><path class="cls-2" d="M530.52,452.12l4.54-4.54a2.35,2.35,0,1,0-3.32-3.33l-4.55,4.55-4.54-4.55a2.35,2.35,0,1,0-3.32,3.33l4.54,4.54-4.54,4.55a2.35,2.35,0,1,0,3.32,3.33l4.54-4.55,4.55,4.55a2.35,2.35,0,1,0,3.32-3.33Z"/></clipPath><clipPath id="clip-path-4" transform="translate(-505.1 -370)"><rect class="cls-1" x="-990" y="-1902" width="1920" height="3924"/></clipPath><clipPath id="clip-path-5" transform="translate(-505.1 -370)"><path class="cls-2" d="M527.2,459.1c-3,0-3,4.71,0,4.71S530.23,459.1,527.2,459.1Z"/></clipPath><clipPath id="clip-path-6" transform="translate(-505.1 -370)"><rect class="cls-1" x="-990" y="-1883" width="1920" height="3924"/></clipPath><clipPath id="clip-path-7" transform="translate(-505.1 -370)"><path class="cls-2" d="M517.2,450.1c-3,0-3,4.71,0,4.71S520.23,450.1,517.2,450.1Z"/></clipPath><clipPath id="clip-path-8" transform="translate(-505.1 -370)"><rect class="cls-1" x="-1000" y="-1892" width="1920" height="3924"/></clipPath><clipPath id="clip-path-9" transform="translate(-505.1 -370)"><path class="cls-2" d="M527.2,440.1c-3,0-3,4.71,0,4.71S530.23,440.1,527.2,440.1Z"/></clipPath><clipPath id="clip-path-11" transform="translate(-505.1 -370)"><path class="cls-2" d="M538.2,450.1c-3,0-3,4.71,0,4.71S541.23,450.1,538.2,450.1Z"/></clipPath><clipPath id="clip-path-12" transform="translate(-505.1 -370)"><rect class="cls-1" x="-979" y="-1892" width="1920" height="3924"/></clipPath><clipPath id="clip-path-13" transform="translate(-505.1 -370)"><path class="cls-2" d="M562.52,452.12l4.54-4.54a2.35,2.35,0,1,0-3.32-3.33l-4.55,4.55-4.54-4.55a2.35,2.35,0,1,0-3.32,3.33l4.54,4.54-4.54,4.55a2.35,2.35,0,1,0,3.32,3.33l4.54-4.55,4.55,4.55a2.35,2.35,0,1,0,3.32-3.33Z"/></clipPath><clipPath id="clip-path-14" transform="translate(-505.1 -370)"><rect class="cls-1" x="-958" y="-1902" width="1920" height="3924"/></clipPath><clipPath id="clip-path-15" transform="translate(-505.1 -370)"><path class="cls-2" d="M559.2,459.1c-3,0-3,4.71,0,4.71S562.23,459.1,559.2,459.1Z"/></clipPath><clipPath id="clip-path-16" transform="translate(-505.1 -370)"><rect class="cls-1" x="-958" y="-1883" width="1920" height="3924"/></clipPath><clipPath id="clip-path-17" transform="translate(-505.1 -370)"><path class="cls-2" d="M549.2,450.1c-3,0-3,4.71,0,4.71S552.23,450.1,549.2,450.1Z"/></clipPath><clipPath id="clip-path-18" transform="translate(-505.1 -370)"><rect class="cls-1" x="-968" y="-1892" width="1920" height="3924"/></clipPath><clipPath id="clip-path-19" transform="translate(-505.1 -370)"><path class="cls-2" d="M559.2,440.1c-3,0-3,4.71,0,4.71S562.23,440.1,559.2,440.1Z"/></clipPath><clipPath id="clip-path-21" transform="translate(-505.1 -370)"><path class="cls-2" d="M550.2,424.1c-3,0-3,4.71,0,4.71S553.23,424.1,550.2,424.1Z"/></clipPath><clipPath id="clip-path-22" transform="translate(-505.1 -370)"><rect class="cls-1" x="-967" y="-1918" width="1920" height="3924"/></clipPath><clipPath id="clip-path-23" transform="translate(-505.1 -370)"><path class="cls-2" d="M570.2,450.1c-3,0-3,4.71,0,4.71S573.23,450.1,570.2,450.1Z"/></clipPath><clipPath id="clip-path-24" transform="translate(-505.1 -370)"><rect class="cls-1" x="-947" y="-1892" width="1920" height="3924"/></clipPath><clipPath id="clip-path-25" transform="translate(-505.1 -370)"><path class="cls-2" d="M592.52,452.12l4.54-4.54a2.35,2.35,0,1,0-3.32-3.33l-4.55,4.55-4.54-4.55a2.35,2.35,0,1,0-3.32,3.33l4.54,4.54-4.54,4.55a2.35,2.35,0,1,0,3.32,3.33l4.54-4.55,4.55,4.55a2.35,2.35,0,1,0,3.32-3.33Z"/></clipPath><clipPath id="clip-path-26" transform="translate(-505.1 -370)"><rect class="cls-1" x="-928" y="-1902" width="1920" height="3924"/></clipPath><clipPath id="clip-path-27" transform="translate(-505.1 -370)"><path class="cls-2" d="M589.2,459.1c-3,0-3,4.71,0,4.71S592.23,459.1,589.2,459.1Z"/></clipPath><clipPath id="clip-path-28" transform="translate(-505.1 -370)"><rect class="cls-1" x="-928" y="-1883" width="1920" height="3924"/></clipPath><clipPath id="clip-path-29" transform="translate(-505.1 -370)"><path class="cls-2" d="M579.2,450.1c-3,0-3,4.71,0,4.71S582.23,450.1,579.2,450.1Z"/></clipPath><clipPath id="clip-path-30" transform="translate(-505.1 -370)"><rect class="cls-1" x="-938" y="-1892" width="1920" height="3924"/></clipPath><clipPath id="clip-path-31" transform="translate(-505.1 -370)"><path class="cls-2" d="M589.2,440.1c-3,0-3,4.71,0,4.71S592.23,440.1,589.2,440.1Z"/></clipPath><clipPath id="clip-path-33" transform="translate(-505.1 -370)"><path class="cls-2" d="M600.2,450.1c-3,0-3,4.71,0,4.71S603.23,450.1,600.2,450.1Z"/></clipPath><clipPath id="clip-path-34" transform="translate(-505.1 -370)"><rect class="cls-1" x="-917" y="-1892" width="1920" height="3924"/></clipPath><clipPath id="clip-path-35" transform="translate(-505.1 -370)"><path class="cls-2" d="M577.52,478.12l4.54-4.54a2.35,2.35,0,1,0-3.32-3.33l-4.55,4.55-4.54-4.55a2.35,2.35,0,1,0-3.32,3.33l4.54,4.54-4.54,4.55a2.35,2.35,0,1,0,3.32,3.33l4.54-4.55,4.55,4.55a2.35,2.35,0,1,0,3.32-3.33Z"/></clipPath><clipPath id="clip-path-36" transform="translate(-505.1 -370)"><rect class="cls-1" x="-943" y="-1876" width="1920" height="3924"/></clipPath><clipPath id="clip-path-37" transform="translate(-505.1 -370)"><path class="cls-2" d="M574.2,485.1c-3,0-3,4.71,0,4.71S577.23,485.1,574.2,485.1Z"/></clipPath><clipPath id="clip-path-38" transform="translate(-505.1 -370)"><rect class="cls-1" x="-943" y="-1857" width="1920" height="3924"/></clipPath><clipPath id="clip-path-39" transform="translate(-505.1 -370)"><path class="cls-2" d="M564.2,476.1c-3,0-3,4.71,0,4.71S567.23,476.1,564.2,476.1Z"/></clipPath><clipPath id="clip-path-40" transform="translate(-505.1 -370)"><rect class="cls-1" x="-953" y="-1866" width="1920" height="3924"/></clipPath><clipPath id="clip-path-41" transform="translate(-505.1 -370)"><path class="cls-2" d="M574.2,466.1c-3,0-3,4.71,0,4.71S577.23,466.1,574.2,466.1Z"/></clipPath><clipPath id="clip-path-43" transform="translate(-505.1 -370)"><path class="cls-2" d="M585.2,476.1c-3,0-3,4.71,0,4.71S588.23,476.1,585.2,476.1Z"/></clipPath><clipPath id="clip-path-44" transform="translate(-505.1 -370)"><rect class="cls-1" x="-932" y="-1866" width="1920" height="3924"/></clipPath><clipPath id="clip-path-45" transform="translate(-505.1 -370)"><path class="cls-2" d="M548.52,478.12l4.54-4.54a2.35,2.35,0,1,0-3.32-3.33l-4.55,4.55-4.54-4.55a2.35,2.35,0,1,0-3.32,3.33l4.54,4.54-4.54,4.55a2.35,2.35,0,1,0,3.32,3.33l4.54-4.55,4.55,4.55a2.35,2.35,0,1,0,3.32-3.33Z"/></clipPath><clipPath id="clip-path-46" transform="translate(-505.1 -370)"><rect class="cls-1" x="-972" y="-1876" width="1920" height="3924"/></clipPath><clipPath id="clip-path-47" transform="translate(-505.1 -370)"><path class="cls-2" d="M545.2,485.1c-3,0-3,4.71,0,4.71S548.23,485.1,545.2,485.1Z"/></clipPath><clipPath id="clip-path-48" transform="translate(-505.1 -370)"><rect class="cls-1" x="-972" y="-1857" width="1920" height="3924"/></clipPath><clipPath id="clip-path-49" transform="translate(-505.1 -370)"><path class="cls-2" d="M535.2,476.1c-3,0-3,4.71,0,4.71S538.23,476.1,535.2,476.1Z"/></clipPath><clipPath id="clip-path-50" transform="translate(-505.1 -370)"><rect class="cls-1" x="-982" y="-1866" width="1920" height="3924"/></clipPath><clipPath id="clip-path-51" transform="translate(-505.1 -370)"><path class="cls-2" d="M545.2,466.1c-3,0-3,4.71,0,4.71S548.23,466.1,545.2,466.1Z"/></clipPath><clipPath id="clip-path-53" transform="translate(-505.1 -370)"><path class="cls-2" d="M556.2,476.1c-3,0-3,4.71,0,4.71S559.23,476.1,556.2,476.1Z"/></clipPath><clipPath id="clip-path-54" transform="translate(-505.1 -370)"><rect class="cls-1" x="-961" y="-1866" width="1920" height="3924"/></clipPath><clipPath id="clip-path-55" transform="translate(-505.1 -370)"><path class="cls-2" d="M542.92,424.53H528.46a2.35,2.35,0,0,0,0,4.7h14.46a2.35,2.35,0,0,0,0-4.7Z"/></clipPath><clipPath id="clip-path-56" transform="translate(-505.1 -370)"><rect class="cls-1" x="-988" y="-1897" width="1920" height="3924"/></clipPath></defs><title>value_icon</title><g class="cls-3"><g class="cls-4"><rect width="105.81" height="72.5"/></g></g><g class="cls-5"><g class="cls-6"><rect x="8.54" y="68.56" width="27.11" height="27.13"/></g></g><g class="cls-7"><g class="cls-8"><rect x="14.83" y="84.1" width="14.54" height="14.71"/></g></g><g class="cls-9"><g class="cls-10"><rect x="4.83" y="75.1" width="14.54" height="14.71"/></g></g><g class="cls-11"><g class="cls-6"><rect x="14.83" y="65.1" width="14.54" height="14.71"/></g></g><g class="cls-12"><g class="cls-13"><rect x="25.83" y="75.1" width="14.54" height="14.71"/></g></g><g class="cls-14"><g class="cls-15"><rect x="40.54" y="68.56" width="27.11" height="27.13"/></g></g><g class="cls-16"><g class="cls-17"><rect x="46.83" y="84.1" width="14.54" height="14.71"/></g></g><g class="cls-18"><g class="cls-19"><rect x="36.83" y="75.1" width="14.54" height="14.71"/></g></g><g class="cls-20"><g class="cls-15"><rect x="46.83" y="65.1" width="14.54" height="14.71"/></g></g><g class="cls-21"><g class="cls-22"><rect x="37.83" y="49.1" width="14.54" height="14.71"/></g></g><g class="cls-23"><g class="cls-24"><rect x="57.83" y="75.1" width="14.54" height="14.71"/></g></g><g class="cls-25"><g class="cls-26"><rect x="71.54" y="64.56" width="27.11" height="27.13"/></g></g><g class="cls-27"><g class="cls-28"><rect x="76.83" y="84.1" width="14.54" height="14.71"/></g></g><g class="cls-29"><g class="cls-30"><rect x="66.83" y="75.1" width="14.54" height="14.71"/></g></g><g class="cls-31"><g class="cls-26"><rect x="76.83" y="65.1" width="14.54" height="14.71"/></g></g><g class="cls-32"><g class="cls-33"><rect x="87.83" y="75.1" width="14.54" height="14.71"/></g></g><g class="cls-34"><g class="cls-35"><rect x="55.54" y="94.56" width="27.11" height="27.13"/></g></g><g class="cls-36"><g class="cls-37"><rect x="61.83" y="110.1" width="14.54" height="14.71"/></g></g><g class="cls-38"><g class="cls-39"><rect x="51.83" y="101.1" width="14.54" height="14.71"/></g></g><g class="cls-40"><g class="cls-35"><rect x="61.83" y="91.1" width="14.54" height="14.71"/></g></g><g class="cls-41"><g class="cls-42"><rect x="72.83" y="101.1" width="14.54" height="14.71"/></g></g><g class="cls-43"><g class="cls-44"><rect x="26.54" y="94.56" width="27.11" height="27.13"/></g></g><g class="cls-45"><g class="cls-46"><rect x="32.83" y="110.1" width="14.54" height="14.71"/></g></g><g class="cls-47"><g class="cls-48"><rect x="22.83" y="101.1" width="14.54" height="14.71"/></g></g><g class="cls-49"><g class="cls-44"><rect x="32.83" y="91.1" width="14.54" height="14.71"/></g></g><g class="cls-50"><g class="cls-51"><rect x="43.83" y="101.1" width="14.54" height="14.71"/></g></g><g class="cls-52"><g class="cls-53"><rect x="16.01" y="49.53" width="29.16" height="14.71"/></g></g></svg>