<?xml version="1.0" standalone="no"?>
<!DOCTYPE svg PUBLIC "-//W3C//DTD SVG 1.1//EN" "http://www.w3.org/Graphics/SVG/1.1/DTD/svg11.dtd" >
<svg>
<metadata>
Created by FontForge 20090622 at Fri Jul  6 08:17:18 2018
 By deploy user
Typeface &#194;&#169; (your company). 2006. All Rights Reserved
</metadata>
<defs>
<font id="CourtneyDorkling" horiz-adv-x="464" >
  <font-face 
    font-family="Courtney Dorkling"
    font-weight="400"
    font-stretch="normal"
    units-per-em="2048"
    panose-1="2 0 0 0 0 0 0 0 0 0"
    ascent="1638"
    descent="-410"
    x-height="1528"
    cap-height="2436"
    bbox="0 -1800 2532 2998"
    underline-thickness="150"
    underline-position="-142"
    unicode-range="U+0020-U+201D"
  />
<missing-glyph horiz-adv-x="2088" 
 />
    <glyph glyph-name=".notdef" horiz-adv-x="2088" 
 />
    <glyph glyph-name=".null" horiz-adv-x="40" 
 />
    <glyph glyph-name="nonmarkingreturn" horiz-adv-x="40" 
 />
    <glyph glyph-name="space" unicode=" " horiz-adv-x="1604" 
 />
    <glyph glyph-name="space" unicode="&#xa0;" horiz-adv-x="1604" 
 />
    <glyph glyph-name="exclam" unicode="!" horiz-adv-x="440" 
d="M288 2488q78 0 112 -72v-40q-80 -1327 -80 -1520l16 -120q-32 -160 -128 -160h-32q-104 0 -104 112v136q0 118 24 272l-8 80v8l40 400l-8 88q24 77 48 688q46 128 120 128zM144 304q136 -29 136 -128v-40q0 -117 -136 -136h-8q-136 0 -136 160q37 144 144 144z" />
    <glyph glyph-name="quotedbl" unicode="&#x22;" horiz-adv-x="886" 
d="M300 2832q80 0 116 -328q8 -27 8 -144v-48q0 -115 -92 -380q-145 -332 -228 -332q-100 0 -100 60l-4 36q0 19 64 96l80 144q88 217 88 368q8 0 8 32q0 57 -24 280l-4 96q0 120 88 120zM704 2998q80 0 116 -328q8 -27 8 -144v-48q0 -115 -92 -380q-145 -332 -228 -332
q-100 0 -100 60l-4 36q0 19 64 96l80 144q88 217 88 368q8 0 8 32q0 57 -24 280l-4 96q0 120 88 120z" />
    <glyph glyph-name="ampersand" unicode="&#x26;" horiz-adv-x="2393" 
d="M1029 2888q211 -81 211 -459v-25q0 -363 -260 -732q-124 -160 -124 -248q129 -595 334 -595h25q249 220 422 484q223 261 223 620q52 49 99 49h37q137 0 162 -186q0 -294 -620 -1029l-62 -124q0 -131 657 -322q211 -20 211 -149q-41 -99 -162 -99q-122 0 -868 297h-74
q-67 0 -347 -334q-240 -236 -533 -236q-215 0 -360 298v173q0 128 161 583l285 508q100 129 100 211v25l-13 161q0 599 223 1017q112 112 273 112zM806 2082v-13q0 -74 50 -74q72 0 124 297l-25 174h-37q-58 0 -112 -384zM608 1077l-87 -124q-236 -463 -236 -744
q16 -136 124 -136q255 38 459 310l87 136v25q0 45 -211 347q-48 186 -136 186z" />
    <glyph glyph-name="quotesingle" unicode="'" 
d="M300 2832q80 0 116 -328q8 -27 8 -144v-48q0 -115 -92 -380q-145 -332 -228 -332q-100 0 -100 60l-4 36q0 19 64 96l80 144q88 217 88 368q8 0 8 32q0 57 -24 280l-4 96q0 120 88 120z" />
    <glyph glyph-name="parenleft" unicode="(" horiz-adv-x="832" 
d="M720 2456q72 -25 72 -80v-16q0 -50 -184 -256q-202 -290 -312 -696q-21 -35 -56 -312v-48l-8 -8l8 -24l-24 -192v-56q30 -305 96 -400q104 -120 168 -120h112q72 -10 72 -72v-16q0 -160 -216 -160h-16q-196 63 -312 256q-120 264 -120 560q56 648 160 872
q150 445 384 664q136 104 176 104z" />
    <glyph glyph-name="parenright" unicode=")" horiz-adv-x="600" 
d="M96 2560q115 0 304 -440q118 -296 160 -672v-216q0 -315 -144 -856q-74 -206 -208 -336l-88 -40q-82 0 -104 128q0 126 144 200q80 82 136 352q56 237 56 416v176q0 309 -104 680q-140 263 -176 360q-72 94 -72 152q27 96 96 96z" />
    <glyph glyph-name="comma" unicode="," 
d="M300 832q80 0 116 -328q8 -27 8 -144v-48q0 -115 -92 -380q-145 -332 -228 -332q-100 0 -100 60l-4 36q0 20 64 96l80 144q88 217 88 368q8 0 8 32q0 57 -24 280l-4 96q0 120 88 120z" />
    <glyph glyph-name="hyphen" unicode="-" horiz-adv-x="1112" 
d="M984 1096q88 -43 88 -112v-8q0 -113 -160 -128l-408 -32l-152 8l-232 -24q-120 33 -120 104v16q0 93 152 112q448 0 832 64z" />
    <glyph glyph-name="hyphen" unicode="&#xad;" horiz-adv-x="1112" 
d="M984 1096q88 -43 88 -112v-8q0 -113 -160 -128l-408 -32l-152 8l-232 -24q-120 33 -120 104v16q0 93 152 112q448 0 832 64z" />
    <glyph glyph-name="period" unicode="." horiz-adv-x="260" 
d="M112 240q108 -40 108 -120v-16q-30 -104 -96 -104q-94 0 -124 104v8q16 124 88 124z" />
    <glyph glyph-name="slash" unicode="/" horiz-adv-x="1296" 
d="M1152 2720q87 0 104 -112q0 -83 -96 -248q-184 -458 -296 -816q-104 -342 -248 -688q0 -37 -304 -888l-72 -208q-66 -160 -136 -160h-8q-78 0 -96 120v16q0 96 168 496l376 1144q96 244 120 344q32 40 184 520q178 480 304 480z" />
    <glyph glyph-name="zero" unicode="0" horiz-adv-x="1336" 
d="M546 2494q58 0 122 -82q39 -97 87 -97q46 -23 163 -51q377 -235 377 -754q0 -91 -66 -230q-159 -354 -372 -693l-117 -189q-116 -158 -261 -306q-111 -87 -173 -92q-136 24 -184 87q-82 104 -91 245q-31 56 -31 346q0 342 97 1015l56 316q18 104 77 215q29 70 112 127
q107 138 158 138zM428 1938l16 -71v-26q0 -34 -82 -148q-71 -135 -112 -658q-6 0 -20 -229l5 -41l-11 -153q0 -331 97 -331h11q67 0 219 214q40 88 122 194q38 95 143 239q44 101 133 240l76 173l46 143l5 56q-33 281 -66 281q-70 172 -255 250q-61 46 -209 46
q-118 0 -118 -179z" />
    <glyph glyph-name="one" unicode="1" horiz-adv-x="372" 
d="M179 2412q127 0 127 -188q-61 -215 -61 -296l-10 -82l-11 -408l6 -56l-6 -56l6 -398v-61q28 -500 66 -500l36 -132v-5q-51 -189 -174 -189h-36q-66 0 -112 107l-5 31q5 178 15 178l-5 71q0 282 -15 699v10l5 128l-5 30l5 72l-5 66l5 21l-5 30q9 60 26 622l10 31l-5 46
q0 229 122 229h26z" />
    <glyph glyph-name="two" unicode="2" horiz-adv-x="1468" 
d="M602 2326h10q255 0 255 -470q0 -440 -245 -1183q-71 -118 -153 -336v-21q0 -92 520 -92q190 0 286 123l31 10q81 0 122 -184q0 -145 -245 -163l-143 10l-275 -20l-153 31l-143 -11q-316 27 -316 72l-20 71q0 76 173 337q337 784 337 1428q0 124 -102 143
q-90 -19 -184 -113q-61 -71 -153 -244l-92 -51q-78 0 -112 102q116 338 418 499q0 27 184 62z" />
    <glyph glyph-name="three" unicode="3" horiz-adv-x="1204" 
d="M792 2364q180 -32 180 -216v-48q0 -219 -120 -468v-84q300 -298 300 -468l12 -84q-34 -327 -132 -480q-230 -300 -312 -300q-203 -162 -516 -216q-204 0 -204 156v12q0 108 144 120h144q413 0 648 516l24 144q0 239 -168 324q0 36 -108 48l-264 -132l-36 -12
q-96 32 -96 60v36q0 145 312 360q180 297 180 360v12q0 98 -84 132h-48q-121 -7 -252 -144q-109 -72 -192 -72q-55 23 -60 48v36q0 167 468 348z" />
    <glyph glyph-name="four" unicode="4" horiz-adv-x="1932" 
d="M940 2388q259 0 259 -194l-11 -33l11 -194l-11 -432q22 -65 86 -65h98l248 86h43q88 0 130 -129q0 -156 -465 -184q-162 0 -162 -270l-10 -259q0 -233 97 -389v-65q0 -189 -151 -248q-184 36 -184 270v810q0 94 -119 108q-235 0 -648 -140h-43q-97 0 -108 129
q0 71 313 346q181 197 411 637q154 216 216 216zM551 1448l54 -32q324 0 324 130l21 388l-43 22q-51 -24 -291 -400q-22 0 -65 -108z" />
    <glyph glyph-name="five" unicode="5" horiz-adv-x="1264" 
d="M612 2352h156q260 0 312 -180v-36q-38 -84 -108 -84h-24q-136 72 -432 72h-12q-264 0 -264 -324q0 -132 84 -132q202 36 372 36q375 0 516 -312l12 -168q-30 -361 -144 -576q-221 -348 -396 -348h-144q-203 0 -396 -48q-129 0 -144 168q66 132 192 132l228 -12h252
q111 0 240 228q60 85 108 384v84q0 169 -312 228q-257 0 -540 -144h-36q-120 0 -120 168q0 200 60 540v144q0 139 312 156z" />
    <glyph glyph-name="six" unicode="6" horiz-adv-x="952" 
d="M468 2112q99 0 132 -96q0 -62 -180 -252q-156 -395 -156 -504l-36 -204q20 -108 48 -108q32 0 312 192l144 48h36q144 -29 144 -144v-60q0 -278 -492 -684l-144 -36q-276 105 -276 432q0 675 288 1272q121 144 180 144zM432 696l36 -36q144 66 144 168v36l-24 24h-12
q-144 -127 -144 -192z" />
    <glyph glyph-name="seven" unicode="7" horiz-adv-x="1216" 
d="M1008 2256h48q88 0 120 -132q0 -110 -156 -492q0 -45 -204 -552l-156 -420q-55 -235 -204 -396h-72q-72 45 -72 108l408 1032q132 395 132 480q-15 60 -36 60h-48q-375 -96 -564 -120q-204 42 -204 156q20 108 108 108h156q190 0 744 168z" />
    <glyph glyph-name="eight" unicode="8" horiz-adv-x="1420" 
d="M1092 2280q204 0 204 -168v-24q-19 -150 -156 -264q-48 -72 -48 -108v-12q0 -40 216 -336l60 -240l12 -132q0 -278 -240 -576q-24 0 -180 -192q-28 0 -276 -180l-240 -48q-312 48 -312 120q-91 78 -132 288v168q0 319 324 792v24l-108 228v96q0 432 744 552zM480 1824
q0 -45 72 -96q432 129 432 288q0 27 -60 36q-444 -93 -444 -228zM204 576q33 -240 216 -240q77 0 312 108q244 0 432 456l12 60v60q-50 408 -240 408q-372 -81 -372 -168q-132 -80 -204 -228q-156 -241 -156 -456z" />
    <glyph glyph-name="nine" unicode="9" horiz-adv-x="1396" 
d="M1030 2366q327 -27 327 -173v-20q-164 -525 -225 -1020l-102 -643v-92l21 -194q-56 -224 -174 -224h-41q-122 47 -122 153q122 648 122 745q82 451 102 703q-20 55 -51 62q-38 0 -346 -286q-169 -92 -306 -92q-235 0 -235 235q0 314 428 653q360 193 602 193zM255 1632
v-41q10 -30 61 -30h31q74 0 449 367l81 112q-15 61 -81 61q-195 -26 -480 -347q-61 -84 -61 -122z" />
    <glyph glyph-name="colon" unicode=":" horiz-adv-x="240" 
d="M112 1424q108 -40 108 -120v-16q-30 -104 -96 -104q-94 0 -124 104v8q16 124 88 124zM112 690q108 -40 108 -120v-16q-30 -104 -96 -104q-94 0 -124 104v8q16 124 88 124z" />
    <glyph glyph-name="semicolon" unicode=";" 
d="M300 832q80 0 116 -328q8 -27 8 -144v-48q0 -115 -92 -380q-145 -332 -228 -332q-100 0 -100 60l-4 36q0 20 64 96l80 144q88 217 88 368q8 0 8 32q0 57 -24 280l-4 96q0 120 88 120zM292 1468q108 -40 108 -120v-16q-30 -104 -96 -104q-94 0 -124 104v8q16 124 88 124z
" />
    <glyph glyph-name="semicolon" unicode="&#x37e;" 
d="M300 832q80 0 116 -328q8 -27 8 -144v-48q0 -115 -92 -380q-145 -332 -228 -332q-100 0 -100 60l-4 36q0 20 64 96l80 144q88 217 88 368q8 0 8 32q0 57 -24 280l-4 96q0 120 88 120zM292 1468q108 -40 108 -120v-16q-30 -104 -96 -104q-94 0 -124 104v8q16 124 88 124z
" />
    <glyph glyph-name="question" unicode="?" horiz-adv-x="739" 
d="M444 775q74 -9 165 -13l47 6l198 73q102 12 132 -105l6 -35q-70 -177 -278 -203l-12 -2q-79 -11 -162 -10l-134 48zM449 524q-388 207 -419 468q-21 158 317 450q422 238 513 354q237 212 249 442l-65 222q-87 207 -430 163q-108 -13 -391 -156l-48 -6q-98 -13 -175 147
l17 64q-13 87 610 244q187 23 486 -123q233 -189 264 -390l16 -118q17 -241 -19 -245q19 -157 -561 -650q-470 -295 -455 -417q71 -149 125 -142q8 -56 270 -80l-45 -279q-127 15 -259 52zM467 214q154 -90 133 -212l-5 -24q-74 -150 -174 -133q-144 26 -161 192l2 12
q57 185 167 166z" />
    <glyph glyph-name="A" unicode="A" horiz-adv-x="1984" 
d="M1236 2724q120 0 120 -276v-228q0 -257 192 -768q35 -179 168 -372q0 -196 192 -636l36 -168q-32 -120 -120 -120h-24q-143 0 -336 612q-108 144 -216 144h-168l-468 -12q-49 -16 -72 -60l12 -180q0 -82 -252 -564l-120 -96h-60q-93 0 -120 144q0 93 240 684
q156 417 288 912q228 791 336 864q45 72 108 72l120 -36q113 84 144 84zM696 1272l60 -60h396q132 0 132 84q-180 589 -180 792q0 186 -60 204h-36q-117 -214 -168 -492q-60 -59 -144 -528z" />
    <glyph glyph-name="B" unicode="B" horiz-adv-x="1480" 
d="M264 2616h12q48 0 204 -72l192 12h48q233 0 360 -240l12 -96v-12q0 -174 -144 -492q0 -97 276 -264q216 -192 216 -480v-24q0 -232 -336 -576q-280 -269 -576 -360h-12l-216 -12q-240 30 -240 228l-60 384l24 228l-24 228v192l36 204l-36 204l36 384l-36 264
q138 300 264 300zM288 1800q16 -132 84 -132q396 107 396 264q60 79 60 156q-54 216 -240 216h-48q-215 0 -252 -384v-120zM264 1176l12 -204l-12 -96q0 -301 108 -408q74 -156 144 -156q174 0 528 348q132 186 132 288q0 311 -432 492h-12q-435 -56 -456 -228z" />
    <glyph glyph-name="C" unicode="C" horiz-adv-x="1672" 
d="M1116 2508h36q480 -40 480 -144v-72l-72 -72h-24l-204 36q-484 0 -672 -300q-88 0 -288 -696q-84 -291 -120 -636q57 -276 132 -276q0 -31 96 -48h60q244 42 744 348h84q60 -31 60 -96q0 -140 -288 -252q-249 -193 -612 -300h-60q-314 0 -456 408l-12 288q0 478 312 1200
q175 285 384 456q184 156 420 156z" />
    <glyph glyph-name="D" unicode="D" horiz-adv-x="1540" 
d="M240 2772h36q252 -10 708 -504q67 -30 240 -276q84 0 240 -504l36 -264q-96 -441 -360 -756q-321 -396 -444 -396q-48 -72 -204 -72h-156q-264 0 -264 240l-60 300l12 156l-24 300l96 1260l12 48l-48 288q0 119 180 180zM312 1668l12 -240l-48 -276q30 -672 96 -672
q54 -216 168 -216q316 134 540 552q144 262 144 540q-26 310 -348 648q-291 324 -396 324h-24q-96 0 -96 -492z" />
    <glyph glyph-name="E" unicode="E" horiz-adv-x="1804" 
d="M240 2400h36q50 0 276 -108l324 -24l552 72q120 -51 120 -132v-12q0 -163 -588 -204h-120l-48 -12l-36 12q-408 0 -408 -96l-24 -60q41 -540 84 -540q57 -36 216 -36h156q125 0 588 96q168 -29 168 -132q0 -148 -816 -240h-12l-192 12q-154 0 -180 -288l-12 -96v-24
q0 -103 240 -240l96 -12q531 48 984 156q120 -16 120 -108q0 -138 -372 -204q-155 -68 -936 -120q-110 -60 -168 -60h-48q-168 0 -168 324l24 324q-24 212 -36 804l12 72l-72 552q125 324 240 324z" />
    <glyph glyph-name="F" unicode="F" horiz-adv-x="2008" 
d="M1644 2424h108q216 -61 216 -192q-65 -228 -264 -228q-32 0 -144 144l-156 24q-460 -48 -876 -192q-180 0 -180 -348l-24 -108v-96q0 -97 108 -120l648 144l276 48q110 0 156 -120q0 -128 -372 -180l-696 -168q0 -24 -72 -36q-60 -58 -60 -132v-24l-12 -540l12 -192
q-36 -108 -132 -108h-24q-156 0 -156 264l24 420l-12 180l12 60l-12 12v12q60 402 60 672v180q-72 169 -72 228q143 240 396 240q664 120 792 120z" />
    <glyph glyph-name="G" unicode="G" horiz-adv-x="2104" 
d="M1116 2616h72q329 0 432 -168l12 -84v-24q0 -66 -72 -108h-96l-252 108h-96q-348 -76 -348 -168q-276 -391 -276 -564q-48 -53 -144 -504l-72 -396q47 -432 264 -432h48q384 0 648 324l24 84v48q-51 276 -168 276l-36 12l-168 -12h-60q-240 43 -240 180q0 143 408 180
l912 48q156 -29 156 -144v-48q0 -91 -168 -120l-216 48q-204 -12 -204 -72v-48q72 -212 72 -324q0 -143 -180 -360q-299 -300 -480 -300q-91 -48 -204 -48h-84q-420 81 -420 156q-180 164 -180 432q0 534 384 1536q330 444 492 444q115 48 240 48z" />
    <glyph glyph-name="H" unicode="H" horiz-adv-x="1288" 
d="M312 2520q143 0 156 -168v-24l-36 -192l12 -228l-36 -264q0 -372 84 -372h36q360 0 360 156l12 84l-72 792v12q0 127 156 156q131 0 144 -540l48 -372v-60l-12 -276q48 -265 60 -876q24 0 24 -276q-64 -72 -156 -72q-136 0 -156 252l12 420q0 360 -144 360
q-420 0 -420 -204l-24 -144v-84l36 -336q0 -156 -216 -192q-120 68 -120 156v12l48 504q0 109 -108 288v84q138 159 144 228l-12 156l36 324v72l12 348l-12 120q24 156 144 156z" />
    <glyph glyph-name="I" unicode="I" horiz-adv-x="1516" 
d="M156 2436q67 -36 252 -72h132l432 48h72q216 0 216 -144q-56 -168 -336 -168q-76 0 -156 -312l12 -12v-36l-24 -384v-720q0 -240 144 -240v-12l60 12h72l228 24q183 0 216 -144v-12q0 -105 -192 -132h-60q-348 0 -552 -132h-12l-192 60h-12l-288 -24q-66 0 -108 72v72
q110 156 360 156q84 57 84 96l-12 216l12 336l-24 204q36 196 48 804q0 96 -372 132l-156 156q116 156 156 156z" />
    <glyph glyph-name="J" unicode="J" horiz-adv-x="1846" 
d="M983 2730q23 -2 143 -160l75 -25l437 93q168 -38 168 -152q0 -168 -277 -168q-336 0 -336 -117v-9l17 -302l-17 -672q-27 0 -51 -563q-39 -91 -58 -311q-102 -344 -252 -344h-194q-118 0 -445 109q-84 67 -84 135v33q27 118 135 118q29 0 344 -126h67q148 0 177 210
q78 90 126 1193l8 25q-26 495 -109 495h-42q-270 -82 -714 -285h-9q-69 0 -92 101q0 142 328 277q495 165 495 260q0 134 118 185h42z" />
    <glyph glyph-name="K" unicode="K" horiz-adv-x="2056" 
d="M132 2568h24q156 0 156 -432q18 0 60 -672q30 -108 72 -108q48 0 432 312q540 420 540 588q38 108 120 108h48q108 -81 108 -156q0 -234 -792 -864q-120 -114 -120 -156q0 -168 612 -612q179 -120 552 -240q72 -55 72 -120q0 -147 -192 -168h-24q-318 52 -900 516
l-312 336q-76 108 -120 108q-60 0 -60 -336l96 -252v-24q-73 -372 -204 -372q0 -24 -60 -24q-112 0 -156 168l48 360q0 1023 -132 1920q47 120 132 120z" />
    <glyph glyph-name="L" unicode="L" horiz-adv-x="1516" 
d="M240 2316q75 0 96 -300l-36 -276l24 -312l-36 -264l24 -276l-36 -288v-84q0 -204 180 -204l900 36h36q84 -50 84 -72v-60q0 -103 -180 -180l-156 12q-648 -12 -972 -48q-156 24 -156 144l-12 408l48 1332l-12 120q44 312 156 312h48z" />
    <glyph glyph-name="M" unicode="M" horiz-adv-x="2572" 
d="M2100 2412q168 0 168 -312l48 -672l-12 -192q0 -78 228 -1056v-48q-66 -132 -180 -132q-135 0 -156 324q-180 805 -180 1248q-53 96 -72 96h-36q-43 -22 -228 -360l-240 -528q-66 -132 -192 -132q-191 0 -576 504q0 29 -192 300q-56 156 -96 156h-36q-31 0 -48 -96
l36 -372l-36 -288q60 -465 108 -636q-40 -204 -144 -204q-154 0 -192 408q-27 0 -48 1416h12l-36 264q27 252 192 252h36q112 0 216 -264q200 -296 348 -612q170 -173 252 -336q121 -96 168 -96q74 30 204 348q137 241 312 636l240 324q58 60 132 60z" />
    <glyph glyph-name="N" unicode="N" horiz-adv-x="1864" 
d="M1728 2604q96 0 96 -120v-144l-48 -252v-120q-36 -606 -84 -744l24 -312l-24 -300q0 -163 108 -456v-60q-12 -96 -96 -96q-156 0 -384 240q-534 473 -684 720l-276 288h-12q-72 -20 -72 -168l24 -252l-36 -228q60 -175 60 -276v-12q0 -202 -168 -276q-142 0 -156 240
q0 177 36 408l-12 120l24 372l-12 336q0 660 144 660h48q76 0 192 -444q45 -133 216 -324q0 -51 300 -396q343 -396 420 -396h24q72 0 72 456q24 0 24 168l-12 216l72 468v24l-48 240q78 420 240 420z" />
    <glyph glyph-name="O" unicode="O" horiz-adv-x="1564" 
d="M948 2376h36q108 0 204 -132q183 -169 264 -540q72 -277 72 -432q0 -161 -120 -468q-177 -276 -276 -384q-357 -360 -540 -384q0 -28 -216 -36q-246 0 -360 444l-12 168v504q4 357 120 744l156 372q121 132 264 132l252 -12zM552 1704h-12l-132 12q-80 0 -108 -312
q-19 0 -36 -120l12 -144l-36 -264q0 -420 180 -564l60 -12q207 0 492 348q271 300 300 624q-76 497 -204 696l-276 60h-36q-68 0 -168 -300z" />
    <glyph glyph-name="P" unicode="P" horiz-adv-x="1276" 
d="M360 2880h24q58 0 108 -240q65 -48 336 -96q306 -128 396 -336l12 -72v-36q-54 -363 -204 -552q-148 -172 -252 -252q0 -40 -288 -300q-48 -86 -84 -312q0 -189 96 -516v-60q-19 -108 -96 -108q-228 75 -228 312q-36 160 -48 696l12 36l-12 72v12l-12 324l24 276l-12 204
v96l12 108q0 54 -132 180l-12 60q3 66 192 180q39 236 72 276q51 48 96 48zM384 1896l36 -300l-12 -144q0 -65 60 -84q52 0 216 192q198 164 276 420v36q0 224 -228 264l-180 60q-144 0 -144 -348z" />
    <glyph glyph-name="Q" unicode="Q" horiz-adv-x="1663" 
d="M948 2376h36q108 0 204 -132q183 -169 264 -540q72 -277 72 -432q0 -161 -120 -468q-177 -276 -276 -384q-357 -360 -540 -384q0 -28 -216 -36q-246 0 -360 444l-12 168v504q4 357 120 744l156 372q121 132 264 132l252 -12zM552 1704h-12l-132 12q-80 0 -108 -312
q-19 0 -36 -120l12 -144l-36 -264q0 -420 180 -564l60 -12q207 0 492 348q271 300 300 624q-76 497 -204 696l-276 60h-36q-68 0 -168 -300zM1570 305q69 -86 36 -156l-3 -8q-54 -116 -224 -55l-432 162l-151 80l-248 86q-106 91 -73 163l8 16q44 95 208 42
q457 -213 879 -330z" />
    <glyph glyph-name="R" unicode="R" horiz-adv-x="1924" 
d="M732 2580q330 0 384 -492l12 -144q-93 -394 -288 -552q-48 -54 -48 -108q0 -91 600 -432q5 -22 204 -132q288 -187 288 -312q-32 -120 -120 -120h-36q-56 0 -288 216q-903 564 -1008 564h-12q-96 -31 -96 -108v-24q0 -473 72 -600q48 -48 48 -132v-84q-97 -120 -156 -120
q-216 70 -216 432q-48 111 -48 336v468l12 492l-36 168q0 88 84 336q0 264 324 264zM336 1896l24 -192l-12 -156q0 -88 144 -108q165 0 336 420q24 52 24 192v24q0 182 -144 204q-254 0 -372 -372v-12z" />
    <glyph glyph-name="S" unicode="S" horiz-adv-x="1552" 
d="M912 2472h12q210 0 300 -168v-36q-16 -120 -120 -120l-204 48h-48q-420 -73 -420 -144q-56 0 -108 -156q0 -123 504 -360q636 -417 636 -576q36 0 48 -240v-120q-8 -203 -216 -420q-279 -180 -468 -180q-636 78 -636 168l-24 60q57 168 156 168h48q300 -108 408 -108
q345 0 408 216l36 228q-40 226 -300 408q-106 103 -552 288q-372 250 -372 408q0 264 360 516q283 120 552 120z" />
    <glyph glyph-name="T" unicode="T" horiz-adv-x="1900" 
d="M1716 2628q144 -36 144 -180q0 -111 -492 -336q-174 0 -240 -384q-24 -288 -60 -432l12 -204l-48 -228l12 -192v-108l-12 -132q0 -46 192 -252v-60q0 -120 -132 -120q-192 0 -300 204l-48 336q48 426 48 624l-12 12v12q60 500 120 768v60q0 65 -60 96h-48l-672 -168h-12
q-108 16 -108 108v12q13 168 168 168q340 120 756 204q105 45 588 144z" />
    <glyph glyph-name="U" unicode="U" horiz-adv-x="1708" 
d="M240 2364q132 0 132 -204v-84l-108 -672v-12q48 -240 72 -828q0 -104 180 -216h24q135 8 564 540l192 348q108 347 108 456q0 83 -120 300v48q47 80 144 132h48q145 0 192 -264q0 -340 -84 -588q0 -78 -240 -504q0 -100 -552 -684q-126 -132 -240 -132q-319 0 -420 348
q-132 296 -132 1080q0 302 96 828q84 108 144 108z" />
    <glyph glyph-name="V" unicode="V" horiz-adv-x="1702" 
d="M1017 861q-62 -68 -123 -357q-185 -455 -264 -464h-58q-144 0 -308 530q0 80 -57 127l-88 386q1 5 1 24q-120 756 -120 953q32 156 140 156h12q96 0 250 -813q32 -68 109 -524q76 -67 132 -67q81 47 171 399l347 837q205 456 335 456h36q24 0 102 -100l-108 -315
q-128 -251 -509 -1228z" />
    <glyph glyph-name="W" unicode="W" horiz-adv-x="2566" 
d="M41 2712l72 24q180 0 180 -576q0 -141 288 -1224l48 -36h12q114 0 216 468q210 642 360 840q0 21 84 48q120 0 264 -540q60 -93 300 -744q63 -168 144 -168q30 0 84 516v216l72 720q24 228 192 228q168 -21 168 -168v-24q-96 -201 -144 -588q-24 0 -24 -84l12 -216
l-36 -360v-96l-60 -252l12 -108q-99 -384 -156 -384h-48q-165 0 -408 576q-93 117 -252 612q-96 216 -144 216q-96 0 -156 -396q-54 -27 -120 -300l-204 -444q-36 -27 -108 -168q-63 -48 -132 -48q-129 0 -336 888q-27 0 -72 324q-21 0 -72 348q-23 226 -57 305l-20 512
q21 39 41 83z" />
    <glyph glyph-name="X" unicode="X" horiz-adv-x="1720" 
d="M1524 2700h36q60 -28 120 -120v-12q0 -160 -96 -300q0 -84 -120 -216q0 -68 -84 -156q0 -61 -120 -228q0 -63 -96 -180q-3 -42 -120 -204l-84 -228q75 -399 228 -528l312 -288v-48q-60 -192 -168 -192h-12q-212 0 -288 156q-142 64 -264 396q-44 36 -84 36
q-106 0 -240 -324q-64 -103 -204 -240h-48q-192 54 -192 168q0 163 132 252q0 66 240 348q124 217 168 372v36l-288 624l-156 252v24q26 216 120 216q45 0 216 -156q245 -492 372 -492h36q59 17 228 324q56 49 324 588z" />
    <glyph glyph-name="Y" unicode="Y" horiz-adv-x="1972" 
d="M84 2748h72q96 0 240 -192q53 -13 444 -468q53 -84 120 -84h12q206 65 432 276q89 65 228 240q119 96 168 96h24q108 0 108 -96q-3 -101 -312 -372q-34 -75 -228 -204q0 -28 -192 -204q-84 -95 -84 -300q-54 -70 -96 -600v-12l12 -132l-12 -12v-12q0 -73 108 -456
q-99 -216 -192 -216h-12q-180 0 -180 492l48 1056q0 192 -264 444q0 51 -516 552l-12 60v36q0 70 84 108z" />
    <glyph glyph-name="Z" unicode="Z" horiz-adv-x="2070" 
d="M1897 2968q82 0 133 -143q0 -129 -133 -357q-67 -51 -92 -153q-102 -79 -102 -153q-68 -52 -142 -204q-39 -28 -255 -357q-34 -3 -113 -183q-21 0 -71 -123q-49 -20 -153 -214q-207 -258 -357 -510q-26 0 -71 -194q75 -51 142 -51h72l81 21h72l234 -31q373 51 541 123
l71 10q215 -95 215 -163q-49 -194 -143 -194q0 -31 -296 -61l-286 30l-316 -41l-214 21q-161 -41 -275 -41h-11q-418 0 -418 143l-10 30v11q0 33 82 153q0 36 153 193q119 133 183 255q28 19 102 164q40 24 92 142q38 20 112 143q170 245 204 265q10 87 123 204q0 66 91 153
q0 33 113 174l91 153l215 336v31q-17 41 -72 41h-10q-371 -82 -510 -82l-530 -61q-48 -31 -164 -31q-107 0 -153 164q31 130 378 142q247 92 612 92l755 153h30z" />
    <glyph glyph-name="a" unicode="a" horiz-adv-x="1336" 
d="M832 1616q320 -52 320 -184l8 -72v-48l-16 -272l8 -24l-40 -544q16 -224 112 -224q72 -27 72 -80v-16q0 -127 -160 -152q-256 0 -256 464v280l-32 32q-62 0 -224 -304l-200 -312q-115 -120 -160 -120h-8q-188 0 -256 264q0 158 96 408l160 336q154 253 296 416
q202 152 280 152zM256 464q10 -40 24 -40h16q85 0 304 376q224 404 224 464v16q0 48 -48 48q-116 0 -448 -616z" />
    <glyph glyph-name="b" unicode="b" horiz-adv-x="1688" 
d="M464 2712q52 0 64 -72v-64q0 -58 -120 -528q-48 -268 -128 -944q11 -56 32 -56q29 0 216 216q332 296 448 296q0 29 328 72q203 0 312 -216l32 -152v-32q0 -126 -280 -520q-190 -206 -296 -352l-264 -200q-17 0 -88 -64q-116 -96 -224 -96h-16q-112 35 -112 176
q43 264 136 264q6 15 72 32q116 -48 152 -48q56 0 256 184q0 16 112 128q129 145 208 320q96 118 96 216v8q0 78 -136 112h-56q-123 -14 -408 -192q-304 -331 -304 -416q-86 -185 -128 -392q-91 -152 -184 -152h-8q-176 0 -176 184q64 885 120 1344q104 493 152 656
q97 288 192 288z" />
    <glyph glyph-name="c" unicode="c" horiz-adv-x="1410" 
d="M91 832l216 464q198 256 288 288q102 64 192 64h24q146 0 208 -224q0 -70 -88 -80l-120 48h-16q-134 0 -320 -312q-14 0 -56 -104q-44 -30 -104 -280l-56 -208v-24q0 -182 216 -208q138 0 728 376q32 16 88 16q64 0 80 -72q0 -98 -128 -168q-96 -100 -272 -168
q-154 -146 -368 -184q-130 -56 -256 -56q-344 112 -344 408l8 8v8q-5 25 -11 41l86 346q5 10 5 21z" />
    <glyph glyph-name="d" unicode="d" horiz-adv-x="2008" 
d="M1832 2304q95 0 136 -128v-56q0 -38 -136 -368l-232 -696q-112 -484 -112 -688l16 -176q0 -109 -160 -128q-110 0 -128 136l48 360q-8 120 -40 120h-16q-72 0 -520 -440q-242 -240 -416 -240q-186 0 -264 240l-8 72q0 240 304 592q79 129 272 256q204 160 392 160h24
q178 0 304 -120h40q112 106 112 248q94 241 144 440q72 180 120 352q63 64 120 64zM240 360q0 -112 88 -112q77 13 520 448q16 0 64 64q168 109 168 208q0 76 -112 104q-230 0 -616 -464q-112 -192 -112 -248z" />
    <glyph glyph-name="e" unicode="e" horiz-adv-x="1392" 
d="M784 1464q224 -55 224 -224v-16q0 -325 -608 -736q-136 -86 -136 -168q16 -72 88 -72h56q106 0 680 336q116 56 152 56h32q70 0 80 -104q-8 -68 -344 -240q-506 -296 -632 -296h-32q-344 77 -344 440v8q37 297 312 720q135 214 400 296h72zM376 784v-8l40 -8
q157 79 232 216q120 104 120 168q-6 64 -64 64q-84 0 -296 -312q-32 -52 -32 -120z" />
    <glyph glyph-name="f" unicode="f" horiz-adv-x="1730" 
d="M1152 2608h72q189 0 216 -160v-24q-32 -88 -104 -88l-152 56l-32 8q-236 -93 -296 -224q-137 -229 -144 -456q-40 -241 -48 -520q0 -64 88 -80q487 16 608 40h160l216 16h8q112 -12 112 -104v-48q0 -80 -368 -80q0 -12 -120 -16l-96 8q-284 -32 -512 -32
q-120 -24 -120 -120l-24 -320l8 -208l-16 -192q32 -342 96 -544q0 -104 -128 -120q-176 68 -176 448q0 210 -24 344l8 144l-16 176l16 160q0 176 -88 176h-192q-104 27 -104 104v32q59 112 288 112q144 43 144 208l-8 112l80 536q163 422 312 528q141 128 336 128z" />
    <glyph glyph-name="g" unicode="g" horiz-adv-x="1997" 
d="M1544 272q-104 -52 -104 -256q0 -274 -96 -808q-64 -372 -168 -712q-134 -296 -320 -296q-248 0 -496 280q-152 248 -152 488q16 180 176 456q158 242 304 376l344 352q176 100 176 312v136l-40 352v40q-18 96 -80 96h-16q-56 0 -248 -264q-320 -382 -320 -408
q-222 -240 -256 -240l-48 -16q-128 0 -192 200l-8 48q56 224 200 496q200 328 272 392q136 112 232 112h104l88 -16h32q202 80 240 80q150 0 200 -272q0 -54 40 -208l-8 -56v-104q22 -304 80 -304q44 0 240 152l456 272q18 17 71 -76l-61 -212q-206 -64 -642 -392zM336 680
q8 -26 32 -32q148 26 376 456v40l-24 24q-88 0 -184 -160q-38 -118 -160 -232q-40 -46 -40 -96zM424 -1120q0 -168 160 -336q126 -80 192 -80h48q108 0 176 232l72 256q88 448 96 600l24 88l-8 88l8 88q-14 72 -32 72h-32q-74 -42 -304 -280q-76 -64 -176 -240
q-224 -322 -224 -488z" />
    <glyph glyph-name="h" unicode="h" horiz-adv-x="1760" 
d="M504 2184q120 -24 120 -120l-232 -960q-128 -542 -128 -624v-8q5 -48 24 -48h40q100 43 312 296q403 411 480 424q251 192 400 192h32q142 0 168 -224q-46 -193 -120 -408l-72 -360q5 -35 104 -120l8 -40q0 -140 -144 -168l-40 -8q-133 0 -200 184v48q0 141 128 552
q0 59 40 184q-15 37 -32 40h-40q-201 -51 -656 -576q-384 -432 -472 -432l-48 -8q-114 0 -176 152q0 229 168 1072q160 507 240 880q40 80 96 80z" />
    <glyph glyph-name="i" unicode="i" horiz-adv-x="512" 
d="M336 2008h40q75 0 96 -104v-24q0 -80 -128 -104q-176 19 -176 112q0 85 168 120zM216 1360q88 0 88 -128l-24 -264l8 -32l-40 -520l24 -264q-26 -152 -112 -152q-160 9 -160 136v40q40 434 56 816q0 368 160 368z" />
    <glyph glyph-name="j" unicode="j" horiz-adv-x="1381" 
d="M584 2096h40q104 -62 104 -160v-8q0 -58 -72 -112h-24q-100 0 -136 80l-16 64v32q32 104 104 104zM1008 376q-120 -76 -120 -136l8 -104q-24 -38 -40 -360q-18 -6 -32 -104l8 -72v-24q-56 -124 -56 -256q-64 -72 -64 -232q-30 -20 -80 -224q-10 0 -72 -144
q-82 -120 -160 -120q-178 44 -280 184q-82 126 -120 376v56q0 168 184 576q86 104 144 224l280 336q24 44 24 88l-120 880l-24 112q18 200 120 200q104 0 144 -328q0 -52 128 -656l48 -16l408 184l139 -6l-113 -213q-291 -124 -354 -221zM224 -792q0 -262 120 -312
q84 0 184 440q46 72 80 368l-8 48l16 120q-12 64 -32 64h-16q-72 -46 -120 -160q-30 -6 -80 -128q-38 -16 -72 -160q-34 -6 -48 -200q-20 -6 -24 -80z" />
    <glyph glyph-name="k" unicode="k" horiz-adv-x="1550" 
d="M1240 424q-68 24 -488 80q-8 14 -248 64q-4 24 -64 24h-64q-88 0 -88 -120v-96q0 -38 88 -192v-16q-66 -168 -184 -168h-48q-112 0 -144 160v48l16 64v144l40 120v64q0 72 40 160q0 138 48 208v72l40 160q60 336 104 336q16 150 64 264q0 80 64 168q50 192 192 192h8
q74 0 88 -112v-32q0 -32 -48 -72q-72 -174 -96 -304q-18 0 -40 -160q-56 -90 -56 -216q-38 0 -48 -232q-16 0 -16 -48q16 -36 32 -40q64 0 144 128q22 0 168 176q14 0 104 120q14 0 104 120q68 46 160 160l176 120l72 8q104 -28 104 -96q0 -30 -80 -96q-32 -50 -160 -120
q0 -38 -160 -176q-14 -50 -96 -112q0 -18 -160 -192q0 -22 -88 -120l-8 -56v-32q0 -56 264 -88q0 -12 232 -32q0 -18 72 -24h16l104 8l40 -8l71 8l-135 -206z" />
    <glyph glyph-name="l" unicode="l" horiz-adv-x="832" 
d="M720 2528q72 -17 72 -128q0 -48 -192 -560q-384 -1292 -384 -1520q0 -88 88 -88l128 8q60 0 80 -104q0 -94 -216 -136h-8q-223 0 -288 296q0 264 192 976q80 230 96 328q28 34 128 376l112 280q103 272 192 272z" />
    <glyph glyph-name="m" unicode="m" horiz-adv-x="2088" 
d="M248 1736q85 0 96 -224l-40 -184v-72l-32 -304l8 -64v-24l-24 -112v-56q0 -60 40 -72q45 5 120 184q73 78 208 392q143 176 192 176h16q139 0 152 -416v-144q16 -176 72 -176q18 0 216 288q60 106 216 280q201 247 344 288q112 -46 112 -160q0 -256 16 -256l-32 -208
l8 -208l-16 -120q0 -16 120 -120l8 -48q0 -80 -168 -168l-56 -8q-152 37 -152 136q0 104 16 144l-8 120l16 360q0 80 -56 80q-127 -105 -160 -200q-50 -58 -88 -144q-24 -10 -96 -144q-26 -13 -56 -120q-33 -28 -80 -128l-120 -112h-64q-176 63 -176 288l-48 304
q-29 24 -56 24q-29 -21 -144 -248l-152 -296q-100 -194 -208 -264h-56q-136 65 -136 232v32l8 56l-8 72v88q0 102 24 232l-16 192l80 656q51 176 160 176z" />
    <glyph glyph-name="n" unicode="n" horiz-adv-x="2104" 
d="M1400 1288q208 -24 208 -144v-88l-32 -152l8 -104l-32 -216l16 -192v-48l40 -40h56q256 120 416 232l48 8h8q80 0 80 -112q-114 -178 -280 -224q-192 -176 -392 -176q-205 0 -248 272v32l32 296l-8 104l16 184q0 72 -64 72l-200 -128q-46 0 -456 -360
q-158 -156 -216 -256q-33 -23 -56 -88l-128 -144l-48 -16h-16q-152 24 -152 152v136q64 502 160 816q33 116 112 160h16q92 0 120 -112v-8l-40 -152l8 -48l-48 -152v-8q5 -128 40 -128h24q33 10 224 224q330 284 504 336l272 72h8z" />
    <glyph glyph-name="o" unicode="o" horiz-adv-x="1264" 
d="M832 1616q219 0 344 -288q48 -138 48 -328q-58 -374 -120 -440q-184 -433 -424 -512q-99 -48 -152 -48q-148 13 -320 112q-208 167 -208 424q57 446 264 728l152 184q202 152 264 152zM272 488q0 -168 192 -216h40q151 0 368 432q0 33 64 200q0 92 24 192q0 201 -112 256
h-64q-196 0 -416 -448q-64 -139 -96 -416z" />
    <glyph glyph-name="p" unicode="p" horiz-adv-x="1544" 
d="M1256 1872q191 0 248 -320v-56q0 -229 -168 -576q-38 -42 -96 -168q-282 -308 -416 -376q-136 -112 -368 -112q-107 0 -208 -752l56 -168q-34 -144 -112 -144h-48q-107 0 -144 192v32q0 206 176 952q13 0 32 184q26 38 96 304q48 79 128 456q101 288 248 288
q41 0 360 200l184 64h32zM472 528l48 -24q278 65 568 440q168 286 168 496q16 0 16 104q-13 88 -88 88q-120 0 -296 -160q-232 -254 -264 -456q-76 -135 -120 -344q-32 -57 -32 -144z" />
    <glyph glyph-name="q" unicode="q" horiz-adv-x="1845" 
d="M1828 700q-40 -24 -244 -124q-48 -34 -240 -104l-32 -48l88 -136l16 -104q-56 -224 -200 -456q0 -46 -152 -240q0 -32 -128 -184q-22 0 -96 -112q-36 -12 -144 -144q-94 -48 -176 -48h-8q-130 0 -184 192q0 390 88 728q48 184 96 656l-24 40l-144 -8q-274 0 -336 224
l-8 88q56 234 320 512q218 216 408 288q30 20 256 56q268 0 304 -152l8 -48v-112q-92 -214 -192 -312q-14 -56 -152 -160q-94 -170 -112 -304q-40 -62 -40 -96q16 -48 64 -48h8q122 8 816 336q157 71 235 20l30 -111q-107 -87 -125 -89zM264 968v-64q26 -56 80 -56
q188 30 360 232l152 360v8q0 56 -72 56q-30 0 -184 -128q-78 -36 -128 -120q-158 -150 -208 -288zM600 -320v-24l8 -88l-32 -120v-64l32 -32h40l136 136q14 2 216 288q152 244 152 352q0 168 -120 168q-336 -42 -336 -160q0 -72 -56 -256q0 -74 -40 -200z" />
    <glyph glyph-name="r" unicode="r" horiz-adv-x="1472" 
d="M280 1512q93 0 128 -192l-32 -280v-104q0 -29 24 -48q59 0 272 248q344 336 600 336q160 -22 160 -120v-24q0 -117 -176 -128q-280 0 -592 -432q-291 -373 -400 -680q-59 -88 -136 -88q-104 0 -128 176v8q0 152 80 384l72 448l-8 88l16 168l-8 128q45 112 128 112z" />
    <glyph glyph-name="s" unicode="s" horiz-adv-x="1304" 
d="M1040 1712q134 0 216 -112l8 -80q-43 -144 -152 -144q-87 80 -144 80h-16q-153 0 -400 -216q-112 -134 -112 -200v-24q0 -74 264 -216q344 -253 344 -448v-16q0 -233 -264 -296q-172 -40 -232 -40l-240 16h-64q-240 29 -240 112l-8 24q0 79 192 104l408 -32
q208 32 208 136q0 154 -512 440q-112 80 -112 208q0 75 112 264l128 144q248 228 592 296h24z" />
    <glyph glyph-name="t" unicode="t" horiz-adv-x="1686" 
d="M968 2240h16q72 0 88 -104q0 -48 -96 -384l-8 -64v-16q0 -64 64 -64h184l256 -16l136 8q160 -13 160 -112v-32q-26 -64 -128 -64l-288 -8l-200 8q-264 -38 -264 -104q-64 -113 -96 -592q-72 -382 -72 -640l8 -360q-22 -96 -96 -96h-16q-103 0 -128 160q8 354 24 480
l-8 120q30 108 48 400l64 464l16 80q0 48 -64 56h-24q-216 0 -384 -192l-48 -16h-16q-80 0 -96 112v40q160 240 256 240q115 48 184 48h104q174 0 200 152q48 216 120 416q61 80 104 80z" />
    <glyph glyph-name="u" unicode="u" horiz-adv-x="1696" 
d="M520 1656q78 0 112 -128v-8q0 -67 -144 -272q-192 -400 -192 -656l-16 -72q14 -56 32 -56h24q61 0 312 256q32 2 464 440q99 131 168 184q182 200 264 200q86 0 112 -136q-112 -657 -112 -816l8 -64l-8 -136q0 -85 104 -232v-48q0 -90 -128 -112h-32q-166 24 -184 312v32
l24 576q0 32 -40 48q-63 0 -280 -248l-384 -368q-255 -232 -312 -232l-80 -8h-8q-183 0 -216 240l-8 64v32q32 243 96 512l112 312l88 184q142 200 200 200h24z" />
    <glyph glyph-name="v" unicode="v" horiz-adv-x="1279" 
d="M80 736q-80 504 -80 640q26 128 120 128h8q86 0 192 -560q22 -46 72 -344q36 -32 56 -32q38 22 96 248l232 560q144 320 248 320h24q44 0 240 -152q52 0 72 -120v-8q-18 -112 -104 -112q-126 48 -160 48q-124 0 -368 -792q-40 -44 -80 -232q-130 -320 -200 -328h-40
q-116 0 -232 376q0 45 -35 74l-62 271q1 7 1 15z" />
    <glyph glyph-name="w" unicode="w" horiz-adv-x="1944" 
d="M1800 1632h24q176 0 176 -128q0 -65 -176 -136q-60 -57 -120 -328q-142 -648 -232 -848q-70 -104 -128 -104h-40q-69 0 -208 112l-128 200q-109 280 -160 280l-216 -416q-161 -224 -224 -224q0 -22 -104 -40q-116 0 -216 232l-40 216v184l-8 88q64 747 224 840h48
q72 -40 72 -104q0 -95 -88 -600l-16 -224v-24q16 -240 96 -240q99 0 304 600q147 360 208 360q0 14 40 16q97 0 128 -136l80 -432q103 -296 160 -296h16q45 0 112 248l136 520q102 344 176 344q0 24 104 40z" />
    <glyph glyph-name="x" unicode="x" horiz-adv-x="1160" 
d="M1016 1800h24q40 -19 80 -80v-8q0 -107 -64 -200q0 -56 -80 -144q0 -46 -56 -104q0 -41 -80 -152q0 -42 -64 -120q-2 -28 -80 -136l-56 -152q50 -266 152 -352l208 -192v-32q-40 -128 -112 -128h-8q-141 0 -192 104q-94 43 -176 264q-29 24 -56 24q-71 0 -160 -216
q-42 -69 -136 -160h-32q-128 36 -128 112q0 108 88 168q0 44 160 232q83 145 112 248v24l-192 416l-104 168v16q18 144 80 144q30 0 144 -104q163 -328 248 -328h24q39 11 152 216q38 33 216 392z" />
    <glyph glyph-name="y" unicode="y" horiz-adv-x="1328" 
d="M1008 1528h16q142 0 208 -368q27 -41 56 -392q0 -248 -136 -816q-184 -558 -320 -704q-198 -351 -504 -440l-120 -8q-160 16 -160 120q56 208 152 208h16l112 -48q68 0 208 136q137 160 312 520q184 544 184 784l16 112q-32 448 -96 448h-24q-65 0 -176 -200
q-38 -42 -192 -304q-25 -19 -168 -240q-98 -96 -160 -96h-40q-127 0 -192 280v8l16 240l-16 160q44 246 96 392q0 45 104 72h8q44 0 72 -48v-40q-56 -249 -56 -328v-312q0 -43 32 -56h8q85 0 232 288q148 260 312 464q7 37 80 96q67 70 120 72z" />
    <glyph glyph-name="z" unicode="z" horiz-adv-x="1264" 
d="M322 1882l334 38h48q216 0 456 -96q64 -52 64 -104v-32q0 -176 -600 -712q-332 -342 -336 -464q0 -46 120 -56q246 22 352 80q150 54 240 56q176 -22 176 -104v-8q0 -90 -200 -128q-420 -136 -512 -136h-96q-294 16 -368 240v64q16 96 152 288l680 672q96 130 96 160
q0 50 -64 56h-16q-460 0 -600 -64l-144 -24q-68 0 -102 136l8 32z" />
    <glyph glyph-name="quotedblleft" unicode="&#x201c;" horiz-adv-x="886" 
d="M528 1766q-80 0 -116 328q-8 27 -8 144v48q0 115 92 380q145 332 228 332q100 0 100 -60l4 -36q0 -19 -64 -96l-80 -144q-88 -217 -88 -368q-8 0 -8 -32q0 -57 24 -280l4 -96q0 -120 -88 -120zM124 1600q-80 0 -116 328q-8 27 -8 144v48q0 115 92 380q145 332 228 332
q100 0 100 -60l4 -36q0 -19 -64 -96l-80 -144q-88 -217 -88 -368q-8 0 -8 -32q0 -57 24 -280l4 -96q0 -120 -88 -120z" />
    <glyph glyph-name="quotedblright" unicode="&#x201d;" horiz-adv-x="886" 
d="M300 2832q80 0 116 -328q8 -27 8 -144v-48q0 -115 -92 -380q-145 -332 -228 -332q-100 0 -100 60l-4 36q0 19 64 96l80 144q88 217 88 368q8 0 8 32q0 57 -24 280l-4 96q0 120 88 120zM704 2998q80 0 116 -328q8 -27 8 -144v-48q0 -115 -92 -380q-145 -332 -228 -332
q-100 0 -100 60l-4 36q0 19 64 96l80 144q88 217 88 368q8 0 8 32q0 57 -24 280l-4 96q0 120 88 120z" />
    <glyph glyph-name="quoteleft" unicode="&#x2018;" 
d="M124 1600q-80 0 -116 328q-8 27 -8 144v48q0 115 92 380q145 332 228 332q100 0 100 -60l4 -36q0 -19 -64 -96l-80 -144q-88 -217 -88 -368q-8 0 -8 -32q0 -57 24 -280l4 -96q0 -120 -88 -120z" />
    <glyph glyph-name="quoteright" unicode="&#x2019;" 
d="M300 2832q80 0 116 -328q8 -27 8 -144v-48q0 -115 -92 -380q-145 -332 -228 -332q-100 0 -100 60l-4 36q0 19 64 96l80 144q88 217 88 368q8 0 8 32q0 57 -24 280l-4 96q0 120 88 120z" />
  </font>
</defs>
</svg>
